<?xml version="1.0" standalone="no"?>
<!DOCTYPE svg PUBLIC "-//W3C//DTD SVG 1.1//EN" "http://www.w3.org/Graphics/SVG/1.1/DTD/svg11.dtd" >
<svg xmlns="http://www.w3.org/2000/svg" xmlns:xlink="http://www.w3.org/1999/xlink" version="1.1">
<metadata>
Created by FontForge 20170731 at Tue Nov 30 17:20:20 2010
 By Aleksey,,,
Copyright (c) Mark Simonson, 2005. All rights reserved.
</metadata>
<defs>
<font id="ProximaNovaExCn-Regular" horiz-adv-x="378" >
  <font-face 
    font-family="Proxima Nova ExCn Rg"
    font-weight="400"
    font-stretch="normal"
    units-per-em="1000"
    panose-1="2 0 5 6 3 0 0 2 0 4"
    ascent="800"
    descent="-200"
    x-height="483"
    cap-height="667"
    bbox="-100 -270 811 886"
    underline-thickness="20"
    underline-position="-173"
    unicode-range="U+000D-FB04"
  />
<missing-glyph horiz-adv-x="476" 
d="M414 -90h-351v842h351v-842zM382 -60v782h-288v-782h288z" />
    <glyph glyph-name="f_f_j" unicode="ffj" horiz-adv-x="628" 
d="M363 0h-69v423h-47v60h47v81q0 52 26 82.5t69 30.5q31 0 52 -14l-17 -54q-7 7 -21 7q-19 0 -29.5 -14t-10.5 -38v-81h65v-60h-65v-423zM538 554q-19 0 -33 14t-14 33t14 33.5t33 14.5q20 0 34 -14.5t14 -33.5t-14 -33t-34 -14zM475 -196q-40 0 -58 31l26 49q8 -19 28 -19
q33 0 33 64v554h68v-554q0 -67 -24 -96t-73 -29zM139 0h-69v423h-47v60h47v81q0 53 27 83t76 30q43 0 69 -27l-24 -54q-16 20 -35 20q-44 0 -44 -52v-81h65v-60h-65v-423z" />
    <glyph glyph-name="f_j" unicode="fj" horiz-adv-x="405" 
d="M139 0h-69v423h-47v60h47v81q0 52 26 82.5t69 30.5q31 0 52 -14l-17 -54q-7 7 -21 7q-19 0 -29.5 -14t-10.5 -38v-81h65v-60h-65v-423zM314 554q-19 0 -33 14t-14 33t14 33.5t33 14.5q20 0 34 -14.5t14 -33.5t-14 -33t-34 -14zM251 -196q-40 0 -58 31l26 49q8 -19 28 -19
q33 0 33 64v554h68v-554q0 -67 -24 -96t-73 -29z" />
    <glyph glyph-name="f_f" unicode="ff" horiz-adv-x="448" 
d="M139 0h-69v423h-47v60h47v81q0 53 27 83t76 30q43 0 69 -27l-24 -54q-16 20 -35 20q-44 0 -44 -52v-81h65v-60h-65v-423zM363 0h-69v423h-47v60h47v81q0 53 27 83t76 30q43 0 69 -27l-24 -54q-16 20 -35 20q-44 0 -44 -52v-81h65v-60h-65v-423z" />
    <glyph glyph-name="fi" unicode="fi" horiz-adv-x="405" 
d="M139 0h-69v423h-47v60h47v81q0 52 26 82.5t69 30.5q31 0 52 -14l-17 -54q-7 7 -21 7q-19 0 -29.5 -14t-10.5 -38v-81h65v-60h-65v-423zM314 554q-19 0 -33 14t-14 33t14 33.5t33 14.5q20 0 34 -14.5t14 -33.5t-14 -33t-34 -14zM348 0h-68v483h68v-483z" />
    <glyph glyph-name="fl" unicode="fl" horiz-adv-x="405" 
d="M139 0h-69v423h-47v60h47v81q0 52 26 82.5t69 30.5q31 0 52 -14l-17 -54q-7 7 -21 7q-19 0 -29.5 -14t-10.5 -38v-81h65v-60h-65v-423zM348 0h-68v667h68v-667z" />
    <glyph glyph-name="f_f_i" unicode="ffi" horiz-adv-x="628" 
d="M363 0h-69v423h-47v60h47v81q0 52 26 82.5t69 30.5q31 0 52 -14l-17 -54q-7 7 -21 7q-19 0 -29.5 -14t-10.5 -38v-81h65v-60h-65v-423zM538 554q-19 0 -33 14t-14 33t14 33.5t33 14.5q20 0 34 -14.5t14 -33.5t-14 -33t-34 -14zM572 0h-68v483h68v-483zM139 0h-69v423h-47
v60h47v81q0 53 27 83t76 30q43 0 69 -27l-24 -54q-16 20 -35 20q-44 0 -44 -52v-81h65v-60h-65v-423z" />
    <glyph glyph-name="f_f_l" unicode="ffl" horiz-adv-x="628" 
d="M363 0h-69v423h-47v60h47v81q0 52 26 82.5t69 30.5q31 0 52 -14l-17 -54q-7 7 -21 7q-19 0 -29.5 -14t-10.5 -38v-81h65v-60h-65v-423zM572 0h-68v667h68v-667zM139 0h-69v423h-47v60h47v81q0 53 27 83t76 30q43 0 69 -27l-24 -54q-16 20 -35 20q-44 0 -44 -52v-81h65
v-60h-65v-423z" />
    <glyph glyph-name="f_b" unicode="fb" horiz-adv-x="608" 
d="M139 0h-69v423h-47v60h47v81q0 52 26 82.5t69 30.5q31 0 52 -14l-17 -54q-7 7 -21 7q-19 0 -29.5 -14t-10.5 -38v-81h65v-60h-65v-423zM348 129q9 -33 30 -56.5t44 -23.5q77 0 77 192q0 193 -77 193q-23 0 -44 -24.5t-30 -57.5v-223zM348 0h-68v667h68v-251
q14 38 39.5 58.5t51.5 20.5q66 0 99 -69.5t33 -184.5q0 -116 -33 -184.5t-99 -68.5q-25 0 -50.5 20.5t-40.5 56.5v-65z" />
    <glyph glyph-name="f_h" unicode="fh" horiz-adv-x="602" 
d="M139 0h-69v423h-47v60h47v81q0 52 26 82.5t69 30.5q31 0 52 -14l-17 -54q-7 7 -21 7q-19 0 -29.5 -14t-10.5 -38v-81h65v-60h-65v-423zM546 0h-68v372q0 62 -46 62q-26 0 -49 -23t-35 -56v-355h-68v667h68v-252q16 34 46.5 57t61.5 23q48 0 69 -25t21 -80v-390z" />
    <glyph glyph-name="f_k" unicode="fk" horiz-adv-x="585" 
d="M139 0h-69v423h-47v60h47v81q0 52 26 82.5t69 30.5q31 0 52 -14l-17 -54q-7 7 -21 7q-19 0 -29.5 -14t-10.5 -38v-81h65v-60h-65v-423zM569 0h-74l-91 219l-56 -96v-123h-68v667h68v-451l148 267h74l-122 -216z" />
    <glyph glyph-name=".notdef" horiz-adv-x="476" 
d="M414 -90h-351v842h351v-842zM382 -60v782h-288v-782h288z" />
    <glyph glyph-name=".null" horiz-adv-x="0" 
 />
    <glyph glyph-name=".null" horiz-adv-x="0" 
 />
    <glyph glyph-name="nonmarkingreturn" horiz-adv-x="333" 
 />
    <glyph glyph-name="CR" unicode="&#xd;" horiz-adv-x="0" 
 />
    <glyph glyph-name="space" unicode=" " horiz-adv-x="172" 
 />
    <glyph glyph-name="exclam" unicode="!" horiz-adv-x="227" 
d="M142 183h-56l-16 484h86zM113 -10q-21 0 -36.5 15.5t-15.5 36.5t15.5 36t36.5 15q22 0 37 -15t15 -36t-15 -36.5t-37 -15.5z" />
    <glyph glyph-name="quotedbl" unicode="&#x22;" horiz-adv-x="336" 
d="M115 417h-35q-25 203 -25 217q0 18 13 30.5t30 12.5t29.5 -12.5t12.5 -30.5zM256 417h-36q-25 203 -25 217q0 18 12.5 30.5t30.5 12.5t30.5 -12.5t12.5 -30.5z" />
    <glyph glyph-name="numbersign" unicode="#" horiz-adv-x="423" 
d="M225 0h-57l44 183h-71l-42 -183h-57l43 183h-68l11 49h69l47 203h-69l9 49h71l42 183h57l-42 -183h70l42 183h56l-42 -183h68l-10 -49h-70l-47 -203h71l-11 -49h-72zM222 232l48 203h-70l-47 -203h69z" />
    <glyph glyph-name="dollar" unicode="$" horiz-adv-x="343" 
d="M155 -100v88q-83 3 -135 61l38 60q37 -51 97 -53v254q-31 27 -43.5 39.5t-34 39.5t-30.5 57t-9 67q0 61 32 105t85 56v94h56v-91q59 -6 100 -46l-33 -58q-28 30 -67 36v-238q35 -31 54.5 -53.5t38 -64.5t18.5 -90q0 -62 -30 -107.5t-81 -60.5v-95h-56zM115 516
q0 -48 40 -91v174q-40 -25 -40 -83zM246 159q0 52 -35 95v-180q35 30 35 85z" />
    <glyph glyph-name="percent" unicode="%" horiz-adv-x="570" 
d="M150 349q-55 0 -88 46t-33 117q0 72 33 118.5t88 46.5t87.5 -46.5t32.5 -118.5q0 -71 -32.5 -117t-87.5 -46zM169 0h-41l273 667h42zM420 -12q-54 0 -87 46t-33 117q0 72 33 118.5t87 46.5q55 0 88 -46.5t33 -118.5q0 -71 -33 -117t-88 -46zM150 395q31 0 49.5 33.5
t18.5 83.5q0 52 -18.5 85t-49.5 33q-32 0 -50 -33t-18 -85q0 -51 18 -84t50 -33zM420 35q32 0 50 32.5t18 83.5q0 52 -18 85.5t-50 33.5q-31 0 -49.5 -33.5t-18.5 -85.5q0 -50 18.5 -83t49.5 -33z" />
    <glyph glyph-name="ampersand" unicode="&#x26;" horiz-adv-x="399" 
d="M394 0h-77q-15 25 -35 60q-50 -72 -117 -72q-57 0 -92.5 47t-35.5 128q0 68 24 113.5t68 90.5q-35 92 -35 148q0 73 29 117.5t78 44.5q41 0 70 -37t29 -92q0 -44 -17 -83t-33.5 -58t-50.5 -53q20 -49 42 -91q15 -31 39 -76q17 52 34 137l58 -24q-23 -109 -56 -178
q31 -52 78 -122zM175 46q40 0 76 68q-38 69 -54 103q-20 38 -42 88q-47 -63 -47 -139q0 -56 19 -88t48 -32zM159 515q0 -42 18 -101q63 65 63 132q0 38 -11.5 57.5t-27.5 19.5q-42 0 -42 -108z" />
    <glyph glyph-name="quotesingle" unicode="'" horiz-adv-x="195" 
d="M115 417h-35q-25 203 -25 217q0 18 13 30.5t30 12.5t29.5 -12.5t12.5 -30.5z" />
    <glyph glyph-name="parenleft" unicode="(" horiz-adv-x="209" 
d="M190 -178l-48 -21q-95 208 -95 442t95 442l48 -20q-67 -208 -67 -422q0 -215 67 -421z" />
    <glyph glyph-name="parenright" unicode=")" horiz-adv-x="209" 
d="M66 -199l-47 21q67 206 67 421q0 214 -67 422l47 20q96 -207 96 -442t-96 -442z" />
    <glyph glyph-name="asterisk" unicode="*" horiz-adv-x="303" 
d="M173 392h-43l6 116l-97 -63l-22 37l102 53l-102 52l22 37l97 -62l-6 115h43l-6 -115l97 62l22 -37l-103 -52l103 -53l-22 -37l-97 63z" />
    <glyph glyph-name="plus" unicode="+" 
d="M349 312h-133v-154h-53v154h-134v50h134v148h53v-148h133v-50z" />
    <glyph glyph-name="comma" unicode="," horiz-adv-x="227" 
d="M170 20q0 -43 -22 -82t-56 -63l-35 28q24 17 42 43t21 50q-1 0 -5.5 -0.5t-6.5 -0.5q-20 0 -33.5 13.5t-13.5 34.5t14.5 35.5t36.5 14.5q24 0 41 -19.5t17 -53.5z" />
    <glyph glyph-name="hyphen" unicode="-" horiz-adv-x="235" 
d="M205 211h-175v61h175v-61z" />
    <glyph glyph-name="period" unicode="." horiz-adv-x="227" 
d="M114 -10q-22 0 -37.5 15.5t-15.5 36.5t15.5 36t37.5 15q21 0 36 -15t15 -36t-15 -36.5t-36 -15.5z" />
    <glyph glyph-name="slash" unicode="/" horiz-adv-x="200" 
d="M53 -20h-53l147 707h53z" />
    <glyph glyph-name="zero" unicode="0" horiz-adv-x="412" 
d="M206 -12q-46 0 -79.5 31t-51 83.5t-25 109.5t-7.5 121q0 65 7.5 121.5t25 109t51 83t79.5 30.5t80 -30.5t51.5 -83t25 -109t7.5 -121.5t-7.5 -121.5t-25 -109t-51 -83.5t-80.5 -31zM206 56q28 0 46.5 23.5t26 68.5t10 85.5t2.5 99.5q0 47 -1 79.5t-6 72.5t-14 65t-25 42
t-39 17q-27 0 -45.5 -23.5t-26.5 -67.5t-10.5 -85.5t-2.5 -99.5q0 -46 1 -79t6 -73.5t14 -65t25 -42t39 -17.5z" />
    <glyph glyph-name="one" unicode="1" horiz-adv-x="292" 
d="M229 0h-76v567l-99 -107l-45 48l153 159h67v-667z" />
    <glyph glyph-name="two" unicode="2" horiz-adv-x="391" 
d="M347 0h-295v63q143 229 179.5 305.5t36.5 139.5q0 44 -21 72.5t-55 28.5q-62 0 -100 -83l-54 42q29 55 65.5 82t90.5 27q70 0 111 -46.5t41 -121.5q0 -66 -38 -151t-161 -291h200v-67z" />
    <glyph glyph-name="three" unicode="3" horiz-adv-x="390" 
d="M187 -12q-54 0 -95 31.5t-63 80.5l56 41q37 -85 99 -85q87 0 87 129q0 67 -27 95.5t-63 28.5q-29 0 -37 -2v70q8 -1 35 -1q39 0 62 29t23 84q0 120 -79 120q-61 0 -94 -78l-55 38q23 52 63.5 80t88.5 28q70 0 111 -44t41 -133q0 -54 -25.5 -98t-68.5 -57q43 -10 72 -56
t29 -109q0 -87 -41 -139.5t-119 -52.5z" />
    <glyph glyph-name="four" unicode="4" horiz-adv-x="366" 
d="M299 0h-75v173h-210v69l195 425h90v-427h53v-67h-53v-173zM224 240v332l-146 -332h146z" />
    <glyph glyph-name="five" unicode="5" horiz-adv-x="393" 
d="M194 -12q-59 0 -94.5 28t-61.5 84l55 40q31 -84 98 -84q39 0 62 43.5t23 104.5q0 149 -77 149q-27 0 -46.5 -13.5t-40.5 -48.5l-57 19v357h272v-67h-197v-236q32 56 91 56q61 0 97 -56t36 -159q0 -91 -43.5 -154t-116.5 -63z" />
    <glyph glyph-name="six" unicode="6" horiz-adv-x="393" 
d="M207 -12q-164 0 -164 345q0 70 9.5 129t29.5 108.5t55.5 78t84.5 28.5q41 0 74.5 -23t51.5 -63l-45 -50q-26 68 -79 68q-30 0 -51 -24.5t-32 -66.5t-16 -86t-5 -94v-14q15 40 42 66.5t64 26.5q57 0 94 -55.5t37 -157.5q0 -90 -39 -153t-111 -63zM204 56q40 0 57.5 42
t17.5 104q0 149 -74 149q-54 0 -84 -104q3 -191 83 -191z" />
    <glyph glyph-name="seven" unicode="7" horiz-adv-x="330" 
d="M156 0h-80l151 600h-206v67h288v-52z" />
    <glyph glyph-name="eight" unicode="8" horiz-adv-x="391" 
d="M196 -12q-76 0 -116.5 45.5t-40.5 126.5q0 60 32.5 111t72.5 73q-38 20 -67.5 64.5t-29.5 102.5q0 80 42.5 123t106.5 43t106.5 -43t42.5 -123q0 -58 -30 -102.5t-68 -64.5q40 -22 72.5 -72.5t32.5 -110.5q0 -81 -41 -127t-115 -46zM196 371q10 5 24 17t31 43.5t17 68.5
q0 51 -18.5 80t-53.5 29q-74 0 -74 -109q0 -37 17 -68.5t32 -44t25 -16.5zM196 56q35 0 57 29.5t22 83.5q0 41 -17.5 76.5t-35 52t-26.5 18.5q-10 -2 -28 -18.5t-35 -52t-17 -76.5q0 -54 22 -83.5t58 -29.5z" />
    <glyph glyph-name="nine" unicode="9" horiz-adv-x="393" 
d="M170 -11q-41 0 -74.5 23t-51.5 63l46 50q25 -68 79 -68q38 0 62 43.5t32.5 100.5t8.5 126v15q-15 -41 -41.5 -67t-63.5 -26q-58 0 -95 55t-37 158q0 90 39 153t111 63q165 0 165 -345q0 -70 -9.5 -129t-29.5 -108.5t-56 -78t-85 -28.5zM187 315q54 0 84 104
q-3 191 -82 191q-40 0 -58 -42t-18 -104q0 -149 74 -149z" />
    <glyph glyph-name="colon" unicode=":" horiz-adv-x="227" 
d="M114 387q-22 0 -37.5 15.5t-15.5 35.5q0 22 15.5 37t37.5 15q21 0 36 -15t15 -37q0 -20 -15 -35.5t-36 -15.5zM114 -10q-22 0 -37.5 15.5t-15.5 36.5t15.5 36t37.5 15q21 0 36 -15t15 -36t-15 -36.5t-36 -15.5z" />
    <glyph glyph-name="semicolon" unicode=";" horiz-adv-x="227" 
d="M114 387q-22 0 -37.5 15.5t-15.5 35.5q0 22 15.5 37t37.5 15q21 0 36 -15t15 -37q0 -20 -15 -35.5t-36 -15.5zM170 22q0 -43 -22 -82.5t-56 -63.5l-35 29q24 16 42 42.5t21 49.5q-1 0 -5.5 -0.5t-6.5 -0.5q-20 0 -33.5 13.5t-13.5 34.5t14.5 36t36.5 15q24 0 41 -20
t17 -53z" />
    <glyph glyph-name="less" unicode="&#x3c;" 
d="M349 161l-320 149v49l320 149v-58l-259 -116l259 -114v-59z" />
    <glyph glyph-name="equal" unicode="=" 
d="M349 407h-320v49h320v-49zM349 212h-320v49h320v-49z" />
    <glyph glyph-name="greater" unicode="&#x3e;" 
d="M349 310l-320 -149v59l259 114l-259 116v58l320 -149v-49z" />
    <glyph glyph-name="question" unicode="?" horiz-adv-x="313" 
d="M134 183q-26 33 -26 83q0 33 11 61.5t26.5 50t31 42t26.5 47.5t11 58q0 33 -21 59.5t-54 26.5q-37 0 -67 -33l-34 49q45 51 115 51q59 0 97.5 -41t38.5 -100q0 -45 -18 -84.5t-39.5 -63.5t-39.5 -58t-18 -68q0 -32 19 -53zM160 -10q-21 0 -36.5 15.5t-15.5 36.5t15.5 36
t36.5 15t36 -15t15 -36t-15 -36.5t-36 -15.5z" />
    <glyph glyph-name="at" unicode="@" horiz-adv-x="600" 
d="M263 -70q-104 0 -166 77t-62 208q0 164 99 294t231 130q90 0 145 -65.5t55 -179.5q0 -128 -46 -218.5t-103 -90.5q-32 0 -52 19.5t-22 50.5l-1 7q-47 -77 -108 -77q-38 0 -64.5 29t-26.5 94q0 69 22 135t65 111t96 45q56 0 72 -72l11 56h63l-59 -278q-3 -15 -3 -24
q0 -26 6.5 -36t22.5 -10q12 0 27 17.5t30 48.5t25 82.5t10 110.5q0 101 -45.5 156t-120.5 55q-77 0 -145.5 -57t-108 -147t-39.5 -185q0 -116 53 -184.5t143 -68.5q71 0 137 56l17 -26q-76 -63 -158 -63zM257 137q20 0 39.5 14t29 27.5t25.5 38.5l35 162q-12 68 -53 68
q-55 0 -90 -76t-35 -155t49 -79z" />
    <glyph glyph-name="A" unicode="A" horiz-adv-x="364" 
d="M357 0h-77l-27 153h-142l-27 -153h-77l131 667h87zM244 220l-62 357l-62 -357h124z" />
    <glyph glyph-name="B" unicode="B" horiz-adv-x="403" 
d="M213 0h-150v667h144q69 0 106.5 -46t37.5 -124q0 -122 -87 -153q42 -7 69 -55t27 -109q0 -85 -36.5 -132.5t-110.5 -47.5zM192 375q81 0 81 112q0 113 -81 113h-54v-225h54zM196 67q86 0 86 120q0 52 -21.5 86.5t-64.5 34.5h-58v-241h58z" />
    <glyph glyph-name="C" unicode="C" horiz-adv-x="390" 
d="M217 -12q-89 0 -131.5 94.5t-42.5 250.5t42.5 250.5t131.5 94.5q99 0 138 -128l-62 -24q-13 43 -29.5 63.5t-46.5 20.5q-96 0 -96 -277t96 -277q33 0 50.5 26.5t27.5 74.5l63 -23q-34 -146 -141 -146z" />
    <glyph glyph-name="D" unicode="D" horiz-adv-x="427" 
d="M190 0h-127v667h127q99 0 147 -90.5t48 -243.5q0 -154 -47.5 -243.5t-147.5 -89.5zM190 67q116 0 116 266q0 267 -116 267h-52v-533h52z" />
    <glyph glyph-name="E" unicode="E" horiz-adv-x="352" 
d="M311 0h-248v667h248v-67h-173v-225h166v-67h-166v-241h173v-67z" />
    <glyph glyph-name="F" unicode="F" horiz-adv-x="351" 
d="M138 0h-75v667h248v-67h-173v-225h166v-67h-166v-308z" />
    <glyph glyph-name="G" unicode="G" horiz-adv-x="411" 
d="M217 -12q-88 0 -131 92.5t-43 252.5t43 252.5t131 92.5q103 0 138 -128l-62 -24q-13 42 -29.5 63t-46.5 21q-96 0 -96 -277t96 -277q48 0 72 41v175h-89v67h157v-271q-51 -80 -140 -80z" />
    <glyph glyph-name="H" unicode="H" horiz-adv-x="436" 
d="M373 0h-75v309h-160v-309h-75v667h75v-290h160v290h75v-667z" />
    <glyph glyph-name="I" unicode="I" horiz-adv-x="201" 
d="M138 0h-75v667h75v-667z" />
    <glyph glyph-name="J" unicode="J" horiz-adv-x="321" 
d="M113 -12q-63 0 -106 46l28 60q28 -38 71 -38q78 0 78 89v522h75v-525q0 -78 -39 -116t-107 -38z" />
    <glyph glyph-name="K" unicode="K" horiz-adv-x="418" 
d="M407 0h-87l-137 289l-45 -86v-203h-75v667h75v-347l171 347h85l-169 -317z" />
    <glyph glyph-name="L" unicode="L" horiz-adv-x="333" 
d="M311 0h-248v667h75v-600h173v-67z" />
    <glyph glyph-name="M" unicode="M" horiz-adv-x="558" 
d="M495 0h-74v499l-127 -499h-30l-126 499v-499h-75v667h102l114 -447l116 447h100v-667z" />
    <glyph glyph-name="N" unicode="N" horiz-adv-x="436" 
d="M373 0h-72l-163 462v-462h-75v667h75l160 -453v453h75v-667z" />
    <glyph glyph-name="O" unicode="O" horiz-adv-x="434" 
d="M217 -12q-61 0 -101 48t-56.5 122.5t-16.5 174.5t16.5 174.5t56.5 122.5t101 48q89 0 131.5 -95.5t42.5 -249.5t-42.5 -249.5t-131.5 -95.5zM217 56q50 0 73 77t23 200q0 124 -23 200.5t-73 76.5q-96 0 -96 -277t96 -277z" />
    <glyph glyph-name="P" unicode="P" horiz-adv-x="387" 
d="M138 0h-75v667h137q78 0 118.5 -56.5t40.5 -142.5t-40.5 -142.5t-118.5 -56.5h-62v-269zM193 336q43 0 65.5 36t22.5 96t-22.5 96t-65.5 36h-55v-264h55z" />
    <glyph glyph-name="Q" unicode="Q" horiz-adv-x="434" 
d="M217 -12q-61 0 -101 48t-56.5 122.5t-16.5 174.5t16.5 174.5t56.5 122.5t101 48q89 0 131.5 -95.5t42.5 -249.5q0 -217 -76 -301l18 -45l-56 -22l-12 32q-23 -9 -48 -9zM217 56q11 0 23 5l-56 148l56 22l44 -115q29 70 29 217q0 124 -23 200.5t-73 76.5q-96 0 -96 -277
t96 -277z" />
    <glyph glyph-name="R" unicode="R" horiz-adv-x="409" 
d="M365 0h-81l-87 269h-59v-269h-75v667h140q69 0 112.5 -53.5t43.5 -143.5q0 -80 -27.5 -125t-64.5 -59zM193 336q43 0 65.5 36t22.5 96t-22.5 96t-65.5 36h-55v-264h55z" />
    <glyph glyph-name="S" unicode="S" horiz-adv-x="354" 
d="M163 -12q-87 0 -143 61l38 60q18 -24 45.5 -38.5t55.5 -14.5q37 0 62 28.5t25 74.5q0 42 -21.5 76t-52 60t-61 53.5t-52 69.5t-21.5 95q0 72 43.5 118.5t110.5 46.5q72 0 119 -47l-33 -58q-34 37 -85 37q-33 0 -55.5 -26t-22.5 -68q0 -35 21.5 -66.5t51.5 -58t60.5 -56
t52 -73.5t21.5 -99q0 -77 -44 -126t-115 -49z" />
    <glyph glyph-name="T" unicode="T" horiz-adv-x="322" 
d="M199 0h-76v600h-105v67h286v-67h-105v-600z" />
    <glyph glyph-name="U" unicode="U" horiz-adv-x="437" 
d="M218 -12q-70 0 -112.5 46t-42.5 138v495h75v-498q0 -114 80 -114q81 0 81 114v498h75v-495q0 -92 -43 -138t-113 -46z" />
    <glyph glyph-name="V" unicode="V" horiz-adv-x="364" 
d="M225 0h-87l-131 667h77l98 -567l98 567h77z" />
    <glyph glyph-name="W" unicode="W" horiz-adv-x="548" 
d="M424 0h-80l-70 514l-70 -514h-79l-107 667h78l71 -531l75 531h64l76 -531l70 531h78z" />
    <glyph glyph-name="X" unicode="X" horiz-adv-x="368" 
d="M365 0h-84l-97 268l-97 -268h-83l137 339l-130 328h84l89 -257l89 257h84l-130 -327z" />
    <glyph glyph-name="Y" unicode="Y" horiz-adv-x="372" 
d="M224 0h-75v283l-150 384h82l105 -307l107 307h80l-149 -384v-283z" />
    <glyph glyph-name="Z" unicode="Z" horiz-adv-x="340" 
d="M307 0h-274v66l184 534h-184v67h267v-63l-186 -537h193v-67z" />
    <glyph glyph-name="bracketleft" unicode="[" horiz-adv-x="182" 
d="M164 -190h-129v868h129v-52h-75v-764h75v-52z" />
    <glyph glyph-name="backslash" unicode="\" horiz-adv-x="200" 
d="M148 -20l-147 707h53l147 -707h-53z" />
    <glyph glyph-name="bracketright" unicode="]" horiz-adv-x="182" 
d="M147 -190h-130v52h76v764h-76v52h130v-868z" />
    <glyph glyph-name="asciicircum" unicode="^" horiz-adv-x="330" 
d="M311 333h-55l-91 275l-91 -275h-55l120 334h52z" />
    <glyph glyph-name="underscore" unicode="_" horiz-adv-x="279" 
d="M282 -92h-285v52h285v-52z" />
    <glyph glyph-name="grave" unicode="`" horiz-adv-x="146" 
d="M146 556h-46l-100 144h67z" />
    <glyph glyph-name="a" unicode="a" horiz-adv-x="376" 
d="M320 0h-69v48q-16 -30 -41.5 -45t-52.5 -15q-56 0 -90 44.5t-34 116.5q0 71 34 115t90 44q27 0 52.5 -14.5t41.5 -42.5v80q0 53 -17 79t-58 26q-51 0 -95 -51l-29 49q55 61 135 61q133 0 133 -151v-344zM176 38q51 0 75 63v92q-24 65 -75 65q-36 0 -54.5 -31.5
t-18.5 -78.5t18.5 -78.5t54.5 -31.5z" />
    <glyph glyph-name="b" unicode="b" horiz-adv-x="384" 
d="M124 129q9 -33 30 -56.5t44 -23.5q77 0 77 192q0 193 -77 193q-23 0 -44 -24.5t-30 -57.5v-223zM124 0h-68v667h68v-251q14 38 39.5 58.5t51.5 20.5q66 0 99 -69.5t33 -184.5q0 -116 -33 -184.5t-99 -68.5q-25 0 -50.5 20.5t-40.5 56.5v-65z" />
    <glyph glyph-name="c" unicode="c" horiz-adv-x="317" 
d="M196 -12q-75 0 -117 71t-42 183q0 111 41.5 182t117.5 71q59 0 99 -44l-28 -52q-28 35 -62 35q-49 0 -72.5 -55t-23.5 -137t23.5 -137.5t72.5 -55.5q34 0 62 35l28 -52q-36 -44 -99 -44z" />
    <glyph glyph-name="d" unicode="d" horiz-adv-x="384" 
d="M328 0h-68v65q-15 -36 -40.5 -56.5t-50.5 -20.5q-66 0 -99 68.5t-33 184.5q0 115 33 184.5t99 69.5q26 0 51.5 -20.5t39.5 -58.5v251h68v-667zM186 49q23 0 44.5 24t29.5 56v224q-9 32 -30 56.5t-44 24.5q-77 0 -77 -193q0 -192 77 -192z" />
    <glyph glyph-name="e" unicode="e" horiz-adv-x="373" 
d="M205 -12q-83 0 -125.5 70t-42.5 184q0 112 39 182.5t115 70.5q77 0 113 -69.5t36 -182.5v-24h-234q0 -80 27 -127t77 -47q47 0 80 58l41 -36q-51 -79 -126 -79zM272 270q0 69 -19 118.5t-64 49.5q-31 0 -51 -29.5t-26 -64t-6 -74.5h166z" />
    <glyph glyph-name="f" unicode="f" horiz-adv-x="224" 
d="M139 0h-69v423h-47v60h47v81q0 53 27 83t76 30q43 0 69 -27l-24 -54q-16 20 -35 20q-44 0 -44 -52v-81h65v-60h-65v-423z" />
    <glyph glyph-name="g" unicode="g" horiz-adv-x="384" 
d="M178 -196q-79 0 -128 49l28 58q39 -46 94 -46q88 0 88 116v93q-15 -37 -40.5 -58.5t-50.5 -21.5q-66 0 -99 67t-33 183q0 115 33 183t99 68q26 0 51.5 -20.5t39.5 -58.5v67h68v-495q0 -97 -41 -140.5t-109 -43.5zM186 55q23 0 44 24.5t30 57.5v216q-9 32 -30 56.5
t-44 24.5q-77 0 -77 -190q0 -189 77 -189z" />
    <glyph glyph-name="h" unicode="h" 
d="M322 0h-68v372q0 62 -46 62q-26 0 -49 -23t-35 -56v-355h-68v667h68v-252q16 34 46.5 57t61.5 23q48 0 69 -25t21 -80v-390z" />
    <glyph glyph-name="i" unicode="i" horiz-adv-x="180" 
d="M90 554q-19 0 -33 14t-14 33t14 33.5t33 14.5q20 0 34 -14.5t14 -33.5t-14 -33t-34 -14zM124 0h-68v483h68v-483z" />
    <glyph glyph-name="j" unicode="j" horiz-adv-x="180" 
d="M90 554q-19 0 -33 14t-14 33t14 33.5t33 14.5q20 0 34 -14.5t14 -33.5t-14 -33t-34 -14zM27 -196q-40 0 -58 31l26 49q8 -19 28 -19q33 0 33 64v554h68v-554q0 -67 -24 -96t-73 -29z" />
    <glyph glyph-name="k" unicode="k" horiz-adv-x="361" 
d="M345 0h-74l-91 219l-56 -96v-123h-68v667h68v-451l148 267h74l-122 -216z" />
    <glyph glyph-name="l" unicode="l" horiz-adv-x="180" 
d="M124 0h-68v667h68v-667z" />
    <glyph glyph-name="m" unicode="m" horiz-adv-x="576" 
d="M520 0h-69v371q0 63 -46 63q-26 0 -49 -23.5t-34 -55.5v-355h-68v371q0 63 -46 63q-26 0 -49 -23.5t-35 -55.5v-355h-68v483h68v-68q16 33 46 56.5t62 23.5q39 0 62 -21.5t26 -60.5q16 34 46.5 58t63.5 24q90 0 90 -105v-390z" />
    <glyph glyph-name="n" unicode="n" 
d="M322 0h-68v371q0 63 -46 63q-26 0 -49 -23t-35 -56v-355h-68v483h68v-68q16 34 46.5 57t61.5 23q90 0 90 -105v-390z" />
    <glyph glyph-name="o" unicode="o" horiz-adv-x="382" 
d="M191 -12q-78 0 -116 72t-38 182q0 109 38 181t116 72t115.5 -71.5t37.5 -181.5t-37.5 -182t-115.5 -72zM191 49q82 0 82 193q0 192 -82 192t-82 -192q0 -193 82 -193z" />
    <glyph glyph-name="p" unicode="p" horiz-adv-x="384" 
d="M215 -12q-26 0 -51.5 20.5t-39.5 58.5v-251h-68v667h68v-65q15 36 40.5 56.5t50.5 20.5q66 0 99 -68.5t33 -184.5q0 -115 -33 -184.5t-99 -69.5zM198 49q77 0 77 193q0 192 -77 192q-23 0 -44 -23.5t-30 -56.5v-224q9 -33 30.5 -57t43.5 -24z" />
    <glyph glyph-name="q" unicode="q" horiz-adv-x="384" 
d="M186 49q23 0 44 24.5t30 56.5v224q-8 33 -29.5 56.5t-44.5 23.5q-77 0 -77 -192q0 -193 77 -193zM169 -12q-66 0 -99 69.5t-33 184.5q0 116 33 184.5t99 68.5q25 0 50.5 -20.5t40.5 -56.5v65h68v-667h-68v251q-14 -38 -39.5 -58.5t-51.5 -20.5z" />
    <glyph glyph-name="r" unicode="r" horiz-adv-x="252" 
d="M124 0h-68v483h68v-77q39 87 112 87v-71q-9 3 -18 3q-29 0 -53.5 -23t-40.5 -58v-344z" />
    <glyph glyph-name="s" unicode="s" horiz-adv-x="309" 
d="M152 -12q-86 0 -131 61l33 47q40 -52 93 -52q30 0 50.5 19.5t20.5 52.5q0 25 -13.5 46t-33.5 34.5t-44 31t-44 35t-33.5 46.5t-13.5 66q0 52 35.5 86t92.5 34q70 0 115 -54l-32 -46q-31 44 -82 44q-29 0 -46.5 -18t-17.5 -44q0 -28 18.5 -50.5t45.5 -40t54 -37.5
t45.5 -53.5t18.5 -77.5q0 -58 -37.5 -94t-93.5 -36z" />
    <glyph glyph-name="t" unicode="t" horiz-adv-x="233" 
d="M156 -12q-45 0 -65.5 25t-20.5 79v331h-49v60h49v132h69v-132h65v-60h-65v-321q0 -28 6.5 -40.5t23.5 -12.5q21 0 32 17l22 -50q-26 -28 -67 -28z" />
    <glyph glyph-name="u" unicode="u" 
d="M322 0h-68v66q-17 -34 -45.5 -56t-62.5 -22q-48 0 -69 25t-21 80v390h68v-372q0 -62 46 -62q26 0 49 22.5t35 54.5v357h68v-483z" />
    <glyph glyph-name="v" unicode="v" horiz-adv-x="326" 
d="M200 0h-75l-116 483h74l79 -399l82 399h72z" />
    <glyph glyph-name="w" unicode="w" horiz-adv-x="541" 
d="M423 0h-71l-81 389l-82 -389h-71l-105 483h72l72 -387l77 387h70l79 -387l73 387h72z" />
    <glyph glyph-name="x" unicode="x" horiz-adv-x="326" 
d="M313 0h-73l-77 191l-78 -191h-73l109 244l-103 239h73l72 -184l72 184h72l-103 -239z" />
    <glyph glyph-name="y" unicode="y" horiz-adv-x="326" 
d="M33 -189l11 60q10 -6 24 -6q17 0 26 10t16 35l19 75l-120 498h74l79 -396l82 396h72l-143 -589q-14 -51 -36.5 -70.5t-61.5 -19.5q-26 0 -42 7z" />
    <glyph glyph-name="z" unicode="z" horiz-adv-x="303" 
d="M268 0h-234v54l151 369h-151v60h230v-52l-150 -371h154v-60z" />
    <glyph glyph-name="braceleft" unicode="{" horiz-adv-x="202" 
d="M185 -190h-30q-39 0 -68 29t-29 75v237q0 30 -13.5 50t-38.5 20v46q25 0 38.5 20t13.5 50v236q0 46 29.5 75.5t67.5 29.5h30v-52h-30q-18 0 -30.5 -14.5t-12.5 -38.5v-241q0 -69 -45 -88q45 -19 45 -88v-242q0 -23 12.5 -38t30.5 -15h30v-51z" />
    <glyph glyph-name="bar" unicode="|" horiz-adv-x="177" 
d="M114 -20h-51v707h51v-707z" />
    <glyph glyph-name="braceright" unicode="}" horiz-adv-x="202" 
d="M17 -190v51h30q18 0 30.5 15t12.5 38v242q0 69 45 88q-45 19 -45 88v241q0 24 -12.5 38.5t-30.5 14.5h-30v52h30q38 0 67.5 -29.5t29.5 -75.5v-236q0 -30 13.5 -50t38.5 -20v-46q-25 0 -38.5 -20t-13.5 -50v-237q0 -46 -29 -75t-68 -29h-30z" />
    <glyph glyph-name="asciitilde" unicode="~" horiz-adv-x="395" 
d="M315 667l52 -5q-2 -37 -5 -63t-10.5 -62t-18 -58t-30 -38t-45.5 -16q-33 0 -52.5 30t-25 65.5t-16 65.5t-28.5 30q-26 0 -36.5 -41.5t-19.5 -151.5l-53 6q2 36 5 63t10.5 62t18.5 57.5t30 38.5t45 16q33 0 53 -30t25 -66.5t15.5 -66.5t28.5 -30q27 0 37.5 41.5
t19.5 152.5z" />
    <glyph glyph-name="nbspace" unicode="&#xa0;" horiz-adv-x="172" 
 />
    <glyph glyph-name="exclamdown" unicode="&#xa1;" horiz-adv-x="227" 
d="M70 -184l16 484h56l15 -484h-87zM61 441q0 21 15.5 36.5t37.5 15.5q21 0 36.5 -15.5t15.5 -36.5t-15.5 -36t-36.5 -15q-22 0 -37.5 15t-15.5 36z" />
    <glyph glyph-name="cent" unicode="&#xa2;" horiz-adv-x="317" 
d="M171 -100v91q-64 12 -99 80.5t-35 170.5q0 101 35 169.5t99 80.5v73h55v-73q39 -9 69 -41l-28 -52q-21 25 -41 31v-378q21 7 41 32l28 -52q-28 -34 -69 -41v-91h-55zM109 242q0 -149 62 -185v368q-62 -34 -62 -183z" />
    <glyph glyph-name="sterling" unicode="&#xa3;" horiz-adv-x="380" 
d="M30 271v50h67q-16 31 -23.5 47.5t-16 50t-8.5 68.5q0 78 44 134t112 56q53 0 89.5 -30t48.5 -84l-60 -28q-23 78 -75 78q-32 0 -55.5 -34.5t-23.5 -93.5q0 -28 5.5 -53.5t11 -39t17.5 -38.5t16 -33h76v-50h-59q5 -25 5 -49q0 -38 -18.5 -79.5t-46.5 -65.5q18 10 38 10
q23 0 52.5 -15.5t46.5 -15.5q44 0 65 34l27 -59q-12 -18 -40.5 -30.5t-57.5 -12.5q-35 0 -67 20.5t-51 20.5q-31 0 -78 -36l-27 55q40 27 64 70.5t24 88.5q0 30 -12 64h-90z" />
    <glyph glyph-name="currency" unicode="&#xa4;" horiz-adv-x="391" 
d="M196 97q-54 0 -90 34l-65 -66l-43 43l73 73q-29 61 -29 152q0 93 30 153l-74 74l43 43l67 -68q35 33 88 33q52 0 87 -32l67 67l43 -43l-74 -74q30 -60 30 -153q0 -91 -30 -154l74 -74l-43 -43l-67 67q-37 -32 -87 -32zM196 162q31 0 51 26t27 62t7 83q0 46 -7 82t-27 62
t-51 26q-46 0 -66 -49t-20 -121q0 -73 20 -122t66 -49z" />
    <glyph glyph-name="yen" unicode="&#xa5;" horiz-adv-x="372" 
d="M224 0h-75v124h-128v49h128v110h-128v49h109l-131 335h82l105 -307l107 307h80l-130 -335h106v-49h-125v-110h125v-49h-125v-124z" />
    <glyph glyph-name="brokenbar" unicode="&#xa6;" horiz-adv-x="177" 
d="M114 -20h-51v316h51v-316zM114 371h-51v316h51v-316z" />
    <glyph glyph-name="section" unicode="&#xa7;" horiz-adv-x="310" 
d="M283 300q0 -82 -72 -116q72 -56 72 -135q0 -54 -37 -92t-94 -38q-80 0 -131 61l33 46q39 -54 93 -54q31 0 51 22.5t20 52.5q0 27 -13.5 49t-33.5 36t-44 31.5t-44 34.5t-33.5 46t-13.5 65q0 38 22 69t62 40q-84 62 -84 142q0 52 35.5 84.5t85.5 32.5q74 0 121 -55
l-32 -42q-37 45 -84 45q-27 0 -44 -18.5t-17 -46.5q0 -25 13.5 -45.5t33.5 -34.5t44 -31.5t44 -35.5t33.5 -47.5t13.5 -65.5zM221 288q0 58 -55 103q-68 -12 -68 -73q0 -31 16 -56.5t55 -52.5q52 27 52 79z" />
    <glyph glyph-name="dieresis" unicode="&#xa8;" horiz-adv-x="264" 
d="M246 603q0 -18 -13 -30.5t-31 -12.5q-17 0 -30 12.5t-13 30.5t13 30.5t30 12.5q18 0 31 -12.5t13 -30.5zM105 603q0 -18 -13 -30.5t-31 -12.5q-17 0 -30 12.5t-13 30.5t13 30.5t30 12.5q18 0 31 -12.5t13 -30.5z" />
    <glyph glyph-name="copyright" unicode="&#xa9;" horiz-adv-x="778" 
d="M734 334q0 -142 -101 -243.5t-244 -101.5t-244 101.5t-101 243.5t101 243.5t244 101.5t244 -101.5t101 -243.5zM704 334q0 130 -92.5 222.5t-222.5 92.5t-222.5 -92.5t-92.5 -222.5t92.5 -222.5t222.5 -92.5t222.5 92.5t92.5 222.5zM512 211l25 -24q-57 -66 -145 -66
q-87 0 -148 61.5t-61 151.5q0 92 60.5 153t148.5 61q90 0 145 -65l-25 -24q-19 26 -52 41.5t-68 15.5q-72 0 -123 -50.5t-51 -131.5q0 -77 51.5 -129t122.5 -52q36 0 68 16t52 42z" />
    <glyph glyph-name="ordfeminine" unicode="&#xaa;" horiz-adv-x="280" 
d="M234 326h-53v33q-23 -41 -68 -41q-39 0 -63 28.5t-24 75.5t24 75t63 28q45 0 68 -38v52q0 65 -53 65q-37 0 -67 -36l-22 37q40 43 98 43q50 0 73.5 -27.5t23.5 -85.5v-209zM129 355q37 0 52 38v59q-15 39 -52 39q-23 0 -36 -19.5t-13 -48.5t13 -48.5t36 -19.5z" />
    <glyph glyph-name="guillemotleft" unicode="&#xab;" horiz-adv-x="325" 
d="M295 63h-59l-90 180l90 177h59l-90 -177zM178 63h-58l-90 180l90 177h58l-90 -177z" />
    <glyph glyph-name="logicalnot" unicode="&#xac;" 
d="M349 456v-244h-52v195h-268v49h320z" />
    <glyph glyph-name="uni00AD" unicode="&#xad;" horiz-adv-x="235" 
d="M205 211h-175v61h175v-61z" />
    <glyph glyph-name="registered" unicode="&#xae;" horiz-adv-x="494" 
d="M459 465q0 -88 -62 -150t-150 -62t-150 62t-62 150t62 150t150 62q89 0 150.5 -61.5t61.5 -150.5zM431 465q0 77 -53.5 130.5t-130.5 53.5t-130.5 -53.5t-53.5 -130.5q0 -76 54 -130t130 -54t130 54t54 130zM345 343h-40l-63 96h-44v-96h-32v243h99q32 0 54.5 -20.5
t22.5 -53.5q0 -35 -22.5 -53.5t-39.5 -18.5zM309 512q0 19 -13.5 32.5t-30.5 13.5h-67v-90h67q16 0 30 13t14 31z" />
    <glyph glyph-name="macron" unicode="&#xaf;" horiz-adv-x="248" 
d="M248 573h-248v45h248v-45z" />
    <glyph glyph-name="degree" unicode="&#xb0;" horiz-adv-x="288" 
d="M264 556q0 -49 -35.5 -84t-85.5 -35q-49 0 -84 34.5t-35 84.5t35 85.5t84 35.5q50 0 85.5 -35.5t35.5 -85.5zM219 556q0 31 -22.5 53t-53.5 22t-52.5 -22t-21.5 -53t21.5 -52.5t52.5 -21.5t53.5 21.5t22.5 52.5z" />
    <glyph glyph-name="plusminus" unicode="&#xb1;" 
d="M349 312h-133v-154h-53v154h-134v50h134v148h53v-148h133v-50zM349 44h-320v50h320v-50z" />
    <glyph glyph-name="twosuperior" unicode="&#xb2;" horiz-adv-x="265" 
d="M241 421h-210v42q99 130 126 174.5t27 83.5q0 27 -15 43.5t-39 16.5q-45 0 -70 -51l-36 32q40 65 109 65q48 0 77 -28t29 -77q0 -42 -27 -90t-112 -165h141v-46z" />
    <glyph glyph-name="threesuperior" unicode="&#xb3;" horiz-adv-x="265" 
d="M243 530q0 -52 -29.5 -84t-82.5 -32q-75 0 -111 66l39 32q25 -52 70 -52q58 0 58 73q0 38 -18 54.5t-43 16.5q-22 0 -27 -1v46q5 -1 24 -1q27 0 43.5 17t16.5 49q0 67 -54 67q-42 0 -68 -48l-37 30q36 64 107 64q48 0 77 -27t29 -80q0 -33 -18 -59t-46 -33q28 -6 49 -33
t21 -65z" />
    <glyph glyph-name="acute" unicode="&#xb4;" horiz-adv-x="146" 
d="M146 700l-100 -144h-46l79 144h67z" />
    <glyph glyph-name="mu" unicode="&#xb5;" horiz-adv-x="387" 
d="M124 8v-192h-68v667h68v-372q0 -64 49 -64q26 0 47.5 23t33.5 56v357h68v-384q0 -26 6.5 -38t23.5 -12q9 0 14 1l6 -58q-14 -4 -33 -4q-39 0 -59 20.5t-25 63.5q-30 -84 -86 -84q-29 0 -45 20z" />
    <glyph glyph-name="paragraph" unicode="&#xb6;" horiz-adv-x="449" 
d="M375 -100h-43v724h-90v-724h-43v423q-71 0 -121.5 50.5t-50.5 121.5t50.5 121.5t121.5 50.5h176v-767z" />
    <glyph glyph-name="periodcentered" unicode="&#xb7;" horiz-adv-x="227" 
d="M165 245q0 -21 -15 -36.5t-37 -15.5q-21 0 -36.5 15.5t-15.5 36.5q0 20 15.5 35.5t36.5 15.5t36.5 -15t15.5 -36z" />
    <glyph glyph-name="cedilla" unicode="&#xb8;" horiz-adv-x="165" 
d="M77 -191q-39 0 -77 30l17 35q30 -27 59 -27q19 0 33 12t14 31q0 15 -8 24.5t-21 9.5q-14 0 -28 -14l-31 17l31 84h43l-27 -67q13 10 29 10q23 0 38.5 -18t15.5 -47q0 -35 -25 -57.5t-63 -22.5z" />
    <glyph glyph-name="onesuperior" unicode="&#xb9;" horiz-adv-x="215" 
d="M162 421h-55v328l-60 -63l-32 33l99 102h48v-400z" />
    <glyph glyph-name="ordmasculine" unicode="&#xba;" horiz-adv-x="289" 
d="M144 318q-55 0 -84 47.5t-29 117.5t29 117.5t84 47.5q56 0 84.5 -47t28.5 -118t-28.5 -118t-84.5 -47zM144 363q58 0 58 120q0 119 -58 119q-57 0 -57 -119q0 -120 57 -120z" />
    <glyph glyph-name="guillemotright" unicode="&#xbb;" horiz-adv-x="325" 
d="M178 243l-90 -180h-58l90 180l-90 177h58zM295 243l-90 -180h-59l90 180l-90 177h59z" />
    <glyph glyph-name="onequarter" unicode="&#xbc;" horiz-adv-x="576" 
d="M162 267h-55v328l-60 -63l-32 33l99 102h48v-400zM560 102h-36v-102h-55v102h-141v46l128 252h68v-253h36v-45zM469 147v189l-93 -189h93zM444 667l-274 -667h-41l273 667h42z" />
    <glyph glyph-name="onehalf" unicode="&#xbd;" horiz-adv-x="608" 
d="M162 267h-55v328l-60 -63l-32 33l99 102h48v-400zM585 0h-210v42q99 130 126 174.5t27 83.5q0 27 -15.5 43.5t-38.5 16.5q-45 0 -70 -51l-36 32q40 65 109 65q48 0 77 -28t29 -77q0 -42 -27 -90t-112 -165h141v-46zM444 667l-274 -667h-41l273 667h42z" />
    <glyph glyph-name="threequarters" unicode="&#xbe;" horiz-adv-x="612" 
d="M596 102h-36v-102h-55v102h-141v46l128 252h68v-253h36v-45zM505 147v189l-93 -189h93zM480 667l-274 -667h-41l273 667h42zM243 376q0 -52 -29.5 -84t-82.5 -32q-75 0 -111 66l39 32q25 -52 70 -52q58 0 58 73q0 38 -18 54.5t-43 16.5q-22 0 -27 -1v46q5 -1 24 -1
q27 0 43.5 17t16.5 49q0 67 -54 67q-42 0 -68 -48l-37 30q36 64 107 64q48 0 77 -27t29 -80q0 -33 -18 -59t-46 -33q28 -6 49 -33t21 -65z" />
    <glyph glyph-name="questiondown" unicode="&#xbf;" horiz-adv-x="270" 
d="M178 298q27 -36 27 -84q0 -40 -16.5 -75t-36.5 -57t-36.5 -55.5t-16.5 -70.5q0 -33 21 -60t54 -27q36 0 67 34l34 -50q-46 -50 -115 -50q-59 0 -97.5 41t-38.5 100q0 45 18 84.5t39.5 63.5t39.5 57.5t18 67.5q0 31 -19 54zM153 493q21 0 36.5 -15.5t15.5 -36.5t-15.5 -36
t-36.5 -15t-36.5 15t-15.5 36t15.5 36.5t36.5 15.5z" />
    <glyph glyph-name="Agrave" unicode="&#xc0;" horiz-adv-x="364" 
d="M357 0h-77l-27 153h-142l-27 -153h-77l131 667h87zM244 220l-62 357l-62 -357h124zM218 723h-46l-100 144h67z" />
    <glyph glyph-name="Aacute" unicode="&#xc1;" horiz-adv-x="364" 
d="M357 0h-77l-27 153h-142l-27 -153h-77l131 667h87zM244 220l-62 357l-62 -357h124zM291 867l-100 -144h-46l79 144h67z" />
    <glyph glyph-name="Acircumflex" unicode="&#xc2;" horiz-adv-x="364" 
d="M282 723h-41l-60 105l-57 -105h-42l66 144h66zM357 0h-77l-27 153h-142l-27 -153h-77l131 667h87zM244 220l-62 357l-62 -357h124z" />
    <glyph glyph-name="Atilde" unicode="&#xc3;" horiz-adv-x="364" 
d="M357 0h-77l-27 153h-142l-27 -153h-77l131 667h87zM244 220l-62 357l-62 -357h124zM222 721q-24 0 -38 23.5t-23.5 47.5t-21.5 24q-31 0 -31 -89h-39q0 59 18.5 96.5t54.5 37.5q24 0 38 -23.5t24 -47.5t22 -24q30 0 30 89h39q0 -59 -18.5 -96.5t-54.5 -37.5z" />
    <glyph glyph-name="Adieresis" unicode="&#xc4;" horiz-adv-x="364" 
d="M296 770q0 -18 -13 -30.5t-31 -12.5q-17 0 -30 12.5t-13 30.5t13 30.5t30 12.5q18 0 31 -12.5t13 -30.5zM155 770q0 -18 -13 -30.5t-31 -12.5q-17 0 -30 12.5t-13 30.5t13 30.5t30 12.5q18 0 31 -12.5t13 -30.5zM357 0h-77l-27 153h-142l-27 -153h-77l131 667h87z
M244 220l-62 357l-62 -357h124z" />
    <glyph glyph-name="Aring" unicode="&#xc5;" horiz-adv-x="364" 
d="M357 0h-77l-27 153h-142l-27 -153h-77l131 667h87zM244 220l-62 357l-62 -357h124zM182 692q-34 0 -58.5 24.5t-24.5 59.5q0 34 24.5 58t58.5 24t58 -24t24 -58q0 -35 -24 -59.5t-58 -24.5zM182 728q20 0 33.5 14t13.5 34q0 19 -14 32.5t-33 13.5t-33 -13.5t-14 -32.5
q0 -20 13.5 -34t33.5 -14z" />
    <glyph glyph-name="AE" unicode="&#xc6;" horiz-adv-x="554" 
d="M511 0h-248v153h-125l-47 -153h-77l217 667h280v-67h-172v-225h165v-67h-165v-241h172v-67zM263 220v357l-107 -357h107z" />
    <glyph glyph-name="Ccedilla" unicode="&#xc7;" horiz-adv-x="390" 
d="M212 -187q-40 0 -77 30l17 35q30 -27 59 -27q19 0 33 12t14 31q0 15 -8 24.5t-21 9.5q-14 0 -28 -14l-31 17l22 59q-76 14 -112.5 106t-36.5 237q0 156 42.5 250.5t131.5 94.5q99 0 138 -128l-62 -24q-13 43 -29.5 63.5t-46.5 20.5q-96 0 -96 -277t96 -277
q33 0 50.5 26.5t27.5 74.5l63 -23q-32 -134 -125 -145l-16 -41q13 10 29 10q23 0 38.5 -18t15.5 -47q0 -35 -25 -57.5t-63 -22.5z" />
    <glyph glyph-name="Egrave" unicode="&#xc8;" horiz-adv-x="352" 
d="M311 0h-248v667h248v-67h-173v-225h166v-67h-166v-241h173v-67zM223 723h-46l-100 144h67z" />
    <glyph glyph-name="Eacute" unicode="&#xc9;" horiz-adv-x="352" 
d="M296 867l-100 -144h-46l79 144h67zM311 0h-248v667h248v-67h-173v-225h166v-67h-166v-241h173v-67z" />
    <glyph glyph-name="Ecircumflex" unicode="&#xca;" horiz-adv-x="352" 
d="M289 723h-41l-60 105l-57 -105h-42l66 144h66zM311 0h-248v667h248v-67h-173v-225h166v-67h-166v-241h173v-67z" />
    <glyph glyph-name="Edieresis" unicode="&#xcb;" horiz-adv-x="352" 
d="M302 770q0 -18 -13 -30.5t-31 -12.5q-17 0 -30 12.5t-13 30.5t13 30.5t30 12.5q18 0 31 -12.5t13 -30.5zM161 770q0 -18 -13 -30.5t-31 -12.5q-17 0 -30 12.5t-13 30.5t13 30.5t30 12.5q18 0 31 -12.5t13 -30.5zM311 0h-248v667h248v-67h-173v-225h166v-67h-166v-241h173
v-67z" />
    <glyph glyph-name="Igrave" unicode="&#xcc;" horiz-adv-x="201" 
d="M138 0h-75v667h75v-667zM137 723h-46l-100 144h67z" />
    <glyph glyph-name="Iacute" unicode="&#xcd;" horiz-adv-x="201" 
d="M138 0h-75v667h75v-667zM210 867l-100 -144h-46l79 144h67z" />
    <glyph glyph-name="Icircumflex" unicode="&#xce;" horiz-adv-x="201" 
d="M201 723h-41l-60 105l-57 -105h-42l66 144h66zM138 0h-75v667h75v-667z" />
    <glyph glyph-name="Idieresis" unicode="&#xcf;" horiz-adv-x="201" 
d="M217 770q0 -18 -13 -30.5t-31 -12.5q-17 0 -30 12.5t-13 30.5t13 30.5t30 12.5q18 0 31 -12.5t13 -30.5zM76 770q0 -18 -13 -30.5t-31 -12.5q-17 0 -30 12.5t-13 30.5t13 30.5t30 12.5q18 0 31 -12.5t13 -30.5zM138 0h-75v667h75v-667z" />
    <glyph glyph-name="Eth" unicode="&#xd0;" horiz-adv-x="446" 
d="M209 0h-127v301h-61v56h61v310h127q99 0 147 -90.5t48 -243.5q0 -154 -47.5 -243.5t-147.5 -89.5zM209 67q116 0 116 266q0 267 -116 267h-52v-243h83v-56h-83v-234h52z" />
    <glyph glyph-name="Ntilde" unicode="&#xd1;" horiz-adv-x="436" 
d="M255 721q-24 0 -38 23.5t-23.5 47.5t-21.5 24q-31 0 -31 -89h-39q0 59 18.5 96.5t54.5 37.5q24 0 38 -23.5t24 -47.5t22 -24q30 0 30 89h39q0 -59 -18.5 -96.5t-54.5 -37.5zM373 0h-72l-163 462v-462h-75v667h75l160 -453v453h75v-667z" />
    <glyph glyph-name="Ograve" unicode="&#xd2;" horiz-adv-x="434" 
d="M253 723h-46l-100 144h67zM217 -12q-61 0 -101 48t-56.5 122.5t-16.5 174.5t16.5 174.5t56.5 122.5t101 48q89 0 131.5 -95.5t42.5 -249.5t-42.5 -249.5t-131.5 -95.5zM217 56q50 0 73 77t23 200q0 124 -23 200.5t-73 76.5q-96 0 -96 -277t96 -277z" />
    <glyph glyph-name="Oacute" unicode="&#xd3;" horiz-adv-x="434" 
d="M326 867l-100 -144h-46l79 144h67zM217 -12q-61 0 -101 48t-56.5 122.5t-16.5 174.5t16.5 174.5t56.5 122.5t101 48q89 0 131.5 -95.5t42.5 -249.5t-42.5 -249.5t-131.5 -95.5zM217 56q50 0 73 77t23 200q0 124 -23 200.5t-73 76.5q-96 0 -96 -277t96 -277z" />
    <glyph glyph-name="Ocircumflex" unicode="&#xd4;" horiz-adv-x="434" 
d="M318 723h-41l-60 105l-57 -105h-42l66 144h66zM217 -12q-61 0 -101 48t-56.5 122.5t-16.5 174.5t16.5 174.5t56.5 122.5t101 48q89 0 131.5 -95.5t42.5 -249.5t-42.5 -249.5t-131.5 -95.5zM217 56q50 0 73 77t23 200q0 124 -23 200.5t-73 76.5q-96 0 -96 -277t96 -277z
" />
    <glyph glyph-name="Otilde" unicode="&#xd5;" horiz-adv-x="434" 
d="M217 -12q-61 0 -101 48t-56.5 122.5t-16.5 174.5t16.5 174.5t56.5 122.5t101 48q89 0 131.5 -95.5t42.5 -249.5t-42.5 -249.5t-131.5 -95.5zM217 56q50 0 73 77t23 200q0 124 -23 200.5t-73 76.5q-96 0 -96 -277t96 -277zM258 721q-24 0 -38 23.5t-23.5 47.5t-21.5 24
q-31 0 -31 -89h-39q0 59 18.5 96.5t54.5 37.5q24 0 38 -23.5t24 -47.5t22 -24q30 0 30 89h39q0 -59 -18.5 -96.5t-54.5 -37.5z" />
    <glyph glyph-name="Odieresis" unicode="&#xd6;" horiz-adv-x="434" 
d="M331 770q0 -18 -13 -30.5t-31 -12.5q-17 0 -30 12.5t-13 30.5t13 30.5t30 12.5q18 0 31 -12.5t13 -30.5zM190 770q0 -18 -13 -30.5t-31 -12.5q-17 0 -30 12.5t-13 30.5t13 30.5t30 12.5q18 0 31 -12.5t13 -30.5zM217 -12q-61 0 -101 48t-56.5 122.5t-16.5 174.5
t16.5 174.5t56.5 122.5t101 48q89 0 131.5 -95.5t42.5 -249.5t-42.5 -249.5t-131.5 -95.5zM217 56q50 0 73 77t23 200q0 124 -23 200.5t-73 76.5q-96 0 -96 -277t96 -277z" />
    <glyph glyph-name="multiply" unicode="&#xd7;" 
d="M296 192l-107 107l-107 -107l-35 35l108 107l-108 107l35 35l107 -107l107 107l35 -35l-107 -107l107 -107z" />
    <glyph glyph-name="Oslash" unicode="&#xd8;" horiz-adv-x="434" 
d="M217 -12q-58 0 -99 44l-13 -32h-52l33 80q-43 90 -43 253q0 100 16.5 174.5t56.5 122.5t101 48q57 0 99 -45l14 34h51l-34 -82q44 -89 44 -252q0 -154 -42.5 -249.5t-131.5 -95.5zM121 333q0 -85 10 -145l151 365q-24 57 -65 57q-96 0 -96 -277zM217 56q50 0 73 77
t23 200q0 85 -10 145l-152 -366q24 -56 66 -56z" />
    <glyph glyph-name="Ugrave" unicode="&#xd9;" horiz-adv-x="437" 
d="M218 -12q-70 0 -112.5 46t-42.5 138v495h75v-498q0 -114 80 -114q81 0 81 114v498h75v-495q0 -92 -43 -138t-113 -46zM255 723h-46l-100 144h67z" />
    <glyph glyph-name="Uacute" unicode="&#xda;" horiz-adv-x="437" 
d="M328 867l-100 -144h-46l79 144h67zM218 -12q-70 0 -112.5 46t-42.5 138v495h75v-498q0 -114 80 -114q81 0 81 114v498h75v-495q0 -92 -43 -138t-113 -46z" />
    <glyph glyph-name="Ucircumflex" unicode="&#xdb;" horiz-adv-x="437" 
d="M318 723h-41l-60 105l-57 -105h-42l66 144h66zM218 -12q-70 0 -112.5 46t-42.5 138v495h75v-498q0 -114 80 -114q81 0 81 114v498h75v-495q0 -92 -43 -138t-113 -46z" />
    <glyph glyph-name="Udieresis" unicode="&#xdc;" horiz-adv-x="437" 
d="M332 770q0 -18 -13 -30.5t-31 -12.5q-17 0 -30 12.5t-13 30.5t13 30.5t30 12.5q18 0 31 -12.5t13 -30.5zM191 770q0 -18 -13 -30.5t-31 -12.5q-17 0 -30 12.5t-13 30.5t13 30.5t30 12.5q18 0 31 -12.5t13 -30.5zM218 -12q-70 0 -112.5 46t-42.5 138v495h75v-498
q0 -114 80 -114q81 0 81 114v498h75v-495q0 -92 -43 -138t-113 -46z" />
    <glyph glyph-name="Yacute" unicode="&#xdd;" horiz-adv-x="372" 
d="M224 0h-75v283l-150 384h82l105 -307l107 307h80l-149 -384v-283zM296 867l-100 -144h-46l79 144h67z" />
    <glyph glyph-name="Thorn" unicode="&#xde;" horiz-adv-x="387" 
d="M138 0h-75v667h75v-121h62q78 0 118.5 -57t40.5 -143q0 -85 -40.5 -141.5t-118.5 -56.5h-62v-148zM193 215q43 0 65.5 35.5t22.5 95.5q0 61 -22.5 97t-65.5 36h-55v-264h55z" />
    <glyph glyph-name="germandbls" unicode="&#xdf;" horiz-adv-x="452" 
d="M437 118q0 -53 -37 -91.5t-92 -38.5q-75 0 -127 61l31 49q39 -54 86 -54q27 0 47 20t20 52q0 30 -17.5 53.5t-42.5 41t-50.5 36.5t-43 50t-17.5 71q0 30 15.5 55.5t33.5 40.5t33.5 37t15.5 46q0 29 -21.5 49t-54.5 20q-37 0 -59.5 -24t-22.5 -73v-519h-68v519
q0 69 41.5 113.5t108.5 44.5q61 0 102.5 -35.5t41.5 -88.5q0 -34 -15.5 -62t-34 -42.5t-34 -34.5t-15.5 -41q0 -28 18 -50t44 -39t52 -36.5t44 -52.5t18 -77z" />
    <glyph glyph-name="agrave" unicode="&#xe0;" horiz-adv-x="376" 
d="M320 0h-69v48q-16 -30 -41.5 -45t-52.5 -15q-56 0 -90 44.5t-34 116.5q0 71 34 115t90 44q27 0 52.5 -14.5t41.5 -42.5v80q0 53 -17 79t-58 26q-51 0 -95 -51l-29 49q55 61 135 61q133 0 133 -151v-344zM176 38q51 0 75 63v92q-24 65 -75 65q-36 0 -54.5 -31.5
t-18.5 -78.5t18.5 -78.5t54.5 -31.5zM223 556h-46l-100 144h67z" />
    <glyph glyph-name="aacute" unicode="&#xe1;" horiz-adv-x="376" 
d="M320 0h-69v48q-16 -30 -41.5 -45t-52.5 -15q-56 0 -90 44.5t-34 116.5q0 71 34 115t90 44q27 0 52.5 -14.5t41.5 -42.5v80q0 53 -17 79t-58 26q-51 0 -95 -51l-29 49q55 61 135 61q133 0 133 -151v-344zM176 38q51 0 75 63v92q-24 65 -75 65q-36 0 -54.5 -31.5
t-18.5 -78.5t18.5 -78.5t54.5 -31.5zM296 700l-100 -144h-46l79 144h67z" />
    <glyph glyph-name="acircumflex" unicode="&#xe2;" horiz-adv-x="376" 
d="M320 0h-69v48q-16 -30 -41.5 -45t-52.5 -15q-56 0 -90 44.5t-34 116.5q0 71 34 115t90 44q27 0 52.5 -14.5t41.5 -42.5v80q0 53 -17 79t-58 26q-51 0 -95 -51l-29 49q55 61 135 61q133 0 133 -151v-344zM176 38q51 0 75 63v92q-24 65 -75 65q-36 0 -54.5 -31.5
t-18.5 -78.5t18.5 -78.5t54.5 -31.5zM290 556h-41l-60 105l-57 -105h-42l66 144h66z" />
    <glyph glyph-name="atilde" unicode="&#xe3;" horiz-adv-x="376" 
d="M320 0h-69v48q-16 -30 -41.5 -45t-52.5 -15q-56 0 -90 44.5t-34 116.5q0 71 34 115t90 44q27 0 52.5 -14.5t41.5 -42.5v80q0 53 -17 79t-58 26q-51 0 -95 -51l-29 49q55 61 135 61q133 0 133 -151v-344zM176 38q51 0 75 63v92q-24 65 -75 65q-36 0 -54.5 -31.5
t-18.5 -78.5t18.5 -78.5t54.5 -31.5zM229 554q-24 0 -38 24t-23.5 47.5t-21.5 23.5q-31 0 -31 -89h-39q0 59 18.5 96.5t54.5 37.5q19 0 32 -15t19 -32.5t14.5 -32.5t18.5 -15q30 0 30 89h39q0 -59 -18.5 -96.5t-54.5 -37.5z" />
    <glyph glyph-name="adieresis" unicode="&#xe4;" horiz-adv-x="376" 
d="M320 0h-69v48q-16 -30 -41.5 -45t-52.5 -15q-56 0 -90 44.5t-34 116.5q0 71 34 115t90 44q27 0 52.5 -14.5t41.5 -42.5v80q0 53 -17 79t-58 26q-51 0 -95 -51l-29 49q55 61 135 61q133 0 133 -151v-344zM176 38q51 0 75 63v92q-24 65 -75 65q-36 0 -54.5 -31.5
t-18.5 -78.5t18.5 -78.5t54.5 -31.5zM302 603q0 -18 -13 -30.5t-31 -12.5q-17 0 -30 12.5t-13 30.5t13 30.5t30 12.5q18 0 31 -12.5t13 -30.5zM161 603q0 -18 -13 -30.5t-31 -12.5q-17 0 -30 12.5t-13 30.5t13 30.5t30 12.5q18 0 31 -12.5t13 -30.5z" />
    <glyph glyph-name="aring" unicode="&#xe5;" horiz-adv-x="376" 
d="M320 0h-69v48q-16 -30 -41.5 -45t-52.5 -15q-56 0 -90 44.5t-34 116.5q0 71 34 115t90 44q27 0 52.5 -14.5t41.5 -42.5v80q0 53 -17 79t-58 26q-51 0 -95 -51l-29 49q55 61 135 61q133 0 133 -151v-344zM176 38q51 0 75 63v92q-24 65 -75 65q-36 0 -54.5 -31.5
t-18.5 -78.5t18.5 -78.5t54.5 -31.5zM188 545q-34 0 -58.5 24.5t-24.5 59.5q0 34 24.5 58t58.5 24t58 -24t24 -58q0 -35 -24 -59.5t-58 -24.5zM188 581q20 0 33.5 14t13.5 34q0 19 -14 32.5t-33 13.5t-33 -13.5t-14 -32.5q0 -20 13.5 -34t33.5 -14z" />
    <glyph glyph-name="ae" unicode="&#xe6;" horiz-adv-x="584" 
d="M551 219h-228q1 -80 26.5 -127t74.5 -47q46 0 77 58l40 -36q-49 -79 -125 -79q-48 0 -75.5 23t-48.5 67q-39 -90 -125 -90q-64 0 -99 43t-35 116t34.5 117t92.5 44q64 0 97 -57v80q0 105 -78 105q-53 0 -98 -51l-29 49q55 61 131 61q46 0 74.5 -23.5t36.5 -62.5
q34 86 110 86q75 0 111 -70.5t36 -182.5v-23zM323 270h160q0 69 -18 118.5t-61 49.5q-30 0 -49.5 -29t-25.5 -64t-6 -75zM257 168v25q-26 65 -79 65q-34 0 -54.5 -29t-20.5 -79q0 -51 20 -79t55 -28t57 34.5t22 90.5z" />
    <glyph glyph-name="ccedilla" unicode="&#xe7;" horiz-adv-x="317" 
d="M194 -189q-40 0 -77 30l17 35q30 -27 59 -27q19 0 33 12t14 31q0 15 -8 24.5t-21 9.5q-14 0 -28 -14l-31 17l22 61q-66 10 -101.5 79.5t-35.5 172.5q0 111 41.5 182t117.5 71q59 0 99 -44l-28 -52q-28 35 -62 35q-49 0 -72.5 -55t-23.5 -137t23.5 -137.5t72.5 -55.5
q34 0 62 35l28 -52q-31 -38 -79 -43l-17 -43q13 10 29 10q23 0 38.5 -18t15.5 -47q0 -35 -25 -57.5t-63 -22.5z" />
    <glyph glyph-name="egrave" unicode="&#xe8;" horiz-adv-x="373" 
d="M205 -12q-83 0 -125.5 70t-42.5 184q0 112 39 182.5t115 70.5q77 0 113 -69.5t36 -182.5v-24h-234q0 -80 27 -127t77 -47q47 0 80 58l41 -36q-51 -79 -126 -79zM272 270q0 69 -19 118.5t-64 49.5q-31 0 -51 -29.5t-26 -64t-6 -74.5h166zM228 556h-46l-100 144h67z" />
    <glyph glyph-name="eacute" unicode="&#xe9;" horiz-adv-x="373" 
d="M300 700l-100 -144h-46l79 144h67zM205 -12q-83 0 -125.5 70t-42.5 184q0 112 39 182.5t115 70.5q77 0 113 -69.5t36 -182.5v-24h-234q0 -80 27 -127t77 -47q47 0 80 58l41 -36q-51 -79 -126 -79zM272 270q0 69 -19 118.5t-64 49.5q-31 0 -51 -29.5t-26 -64t-6 -74.5h166
z" />
    <glyph glyph-name="ecircumflex" unicode="&#xea;" horiz-adv-x="373" 
d="M292 556h-41l-60 105l-57 -105h-42l66 144h66zM205 -12q-83 0 -125.5 70t-42.5 184q0 112 39 182.5t115 70.5q77 0 113 -69.5t36 -182.5v-24h-234q0 -80 27 -127t77 -47q47 0 80 58l41 -36q-51 -79 -126 -79zM272 270q0 69 -19 118.5t-64 49.5q-31 0 -51 -29.5t-26 -64
t-6 -74.5h166z" />
    <glyph glyph-name="edieresis" unicode="&#xeb;" horiz-adv-x="373" 
d="M305 603q0 -18 -13 -30.5t-31 -12.5q-17 0 -30 12.5t-13 30.5t13 30.5t30 12.5q18 0 31 -12.5t13 -30.5zM164 603q0 -18 -13 -30.5t-31 -12.5q-17 0 -30 12.5t-13 30.5t13 30.5t30 12.5q18 0 31 -12.5t13 -30.5zM205 -12q-83 0 -125.5 70t-42.5 184q0 112 39 182.5
t115 70.5q77 0 113 -69.5t36 -182.5v-24h-234q0 -80 27 -127t77 -47q47 0 80 58l41 -36q-51 -79 -126 -79zM272 270q0 69 -19 118.5t-64 49.5q-31 0 -51 -29.5t-26 -64t-6 -74.5h166z" />
    <glyph glyph-name="igrave" unicode="&#xec;" horiz-adv-x="180" 
d="M124 0h-68v483h68v-483zM127 556h-46l-100 144h67z" />
    <glyph glyph-name="iacute" unicode="&#xed;" horiz-adv-x="180" 
d="M200 700l-100 -144h-46l79 144h67zM124 0h-68v483h68v-483z" />
    <glyph glyph-name="icircumflex" unicode="&#xee;" horiz-adv-x="180" 
d="M191 556h-41l-60 105l-57 -105h-42l66 144h66zM124 0h-68v483h68v-483z" />
    <glyph glyph-name="idieresis" unicode="&#xef;" horiz-adv-x="180" 
d="M204 603q0 -18 -13 -30.5t-31 -12.5q-17 0 -30 12.5t-13 30.5t13 30.5t30 12.5q18 0 31 -12.5t13 -30.5zM63 603q0 -18 -13 -30.5t-31 -12.5q-17 0 -30 12.5t-13 30.5t13 30.5t30 12.5q18 0 31 -12.5t13 -30.5zM124 0h-68v483h68v-483z" />
    <glyph glyph-name="eth" unicode="&#xf0;" horiz-adv-x="382" 
d="M118 513l-17 38l97 43q-23 46 -35 65l62 30q16 -26 35 -67l69 31l17 -37l-69 -31q67 -162 67 -330q0 -121 -37 -194t-116 -73q-78 0 -116 70.5t-38 176.5q0 105 35 175.5t104 70.5q57 0 83 -61q-14 62 -44 137zM191 49q82 0 82 186t-82 186q-44 0 -63 -53.5t-19 -132.5
q0 -186 82 -186z" />
    <glyph glyph-name="ntilde" unicode="&#xf1;" 
d="M322 0h-68v371q0 63 -46 63q-26 0 -49 -23t-35 -56v-355h-68v483h68v-68q16 34 46.5 57t61.5 23q90 0 90 -105v-390zM231 554q-24 0 -38 24t-23.5 47.5t-21.5 23.5q-31 0 -31 -89h-39q0 59 18.5 96.5t54.5 37.5q19 0 32 -15t19 -32.5t14.5 -32.5t18.5 -15q30 0 30 89h39
q0 -59 -18.5 -96.5t-54.5 -37.5z" />
    <glyph glyph-name="ograve" unicode="&#xf2;" horiz-adv-x="382" 
d="M191 -12q-78 0 -116 72t-38 182q0 109 38 181t116 72t115.5 -71.5t37.5 -181.5t-37.5 -182t-115.5 -72zM191 49q82 0 82 193q0 192 -82 192t-82 -192q0 -193 82 -193zM228 556h-46l-100 144h67z" />
    <glyph glyph-name="oacute" unicode="&#xf3;" horiz-adv-x="382" 
d="M300 700l-100 -144h-46l79 144h67zM191 -12q-78 0 -116 72t-38 182q0 109 38 181t116 72t115.5 -71.5t37.5 -181.5t-37.5 -182t-115.5 -72zM191 49q82 0 82 193q0 192 -82 192t-82 -192q0 -193 82 -193z" />
    <glyph glyph-name="ocircumflex" unicode="&#xf4;" horiz-adv-x="382" 
d="M291 556h-41l-60 105l-57 -105h-42l66 144h66zM191 -12q-78 0 -116 72t-38 182q0 109 38 181t116 72t115.5 -71.5t37.5 -181.5t-37.5 -182t-115.5 -72zM191 49q82 0 82 193q0 192 -82 192t-82 -192q0 -193 82 -193z" />
    <glyph glyph-name="otilde" unicode="&#xf5;" horiz-adv-x="382" 
d="M191 -12q-78 0 -116 72t-38 182q0 109 38 181t116 72t115.5 -71.5t37.5 -181.5t-37.5 -182t-115.5 -72zM191 49q82 0 82 193q0 192 -82 192t-82 -192q0 -193 82 -193zM231 554q-24 0 -38 24t-23.5 47.5t-21.5 23.5q-31 0 -31 -89h-39q0 59 18.5 96.5t54.5 37.5
q19 0 32 -15t19 -32.5t14.5 -32.5t18.5 -15q30 0 30 89h39q0 -59 -18.5 -96.5t-54.5 -37.5z" />
    <glyph glyph-name="odieresis" unicode="&#xf6;" horiz-adv-x="382" 
d="M305 603q0 -18 -13 -30.5t-31 -12.5q-17 0 -30 12.5t-13 30.5t13 30.5t30 12.5q18 0 31 -12.5t13 -30.5zM164 603q0 -18 -13 -30.5t-31 -12.5q-17 0 -30 12.5t-13 30.5t13 30.5t30 12.5q18 0 31 -12.5t13 -30.5zM191 -12q-78 0 -116 72t-38 182q0 109 38 181t116 72
t115.5 -71.5t37.5 -181.5t-37.5 -182t-115.5 -72zM191 49q82 0 82 193q0 192 -82 192t-82 -192q0 -193 82 -193z" />
    <glyph glyph-name="divide" unicode="&#xf7;" horiz-adv-x="374" 
d="M232 478q0 -18 -13 -31t-31 -13t-30.5 13t-12.5 31t12.5 31t30.5 13t31 -13t13 -31zM345 312h-316v50h316v-50zM232 192q0 -18 -13 -31t-31 -13t-30.5 13t-12.5 31t12.5 31t30.5 13t31 -13t13 -31z" />
    <glyph glyph-name="oslash" unicode="&#xf8;" horiz-adv-x="382" 
d="M91 0h-45l29 58q-38 68 -38 184q0 109 38 181t116 72q51 0 88 -35l12 23h45l-30 -59q38 -69 38 -182q0 -110 -37.5 -182t-115.5 -72q-53 0 -88 35zM109 242q0 -61 8 -102l130 256q-21 38 -56 38q-82 0 -82 -192zM191 49q82 0 82 193q0 55 -9 100l-129 -255q19 -38 56 -38
z" />
    <glyph glyph-name="ugrave" unicode="&#xf9;" 
d="M322 0h-68v66q-17 -34 -45.5 -56t-62.5 -22q-48 0 -69 25t-21 80v390h68v-372q0 -62 46 -62q26 0 49 22.5t35 54.5v357h68v-483zM226 556h-46l-100 144h67z" />
    <glyph glyph-name="uacute" unicode="&#xfa;" 
d="M298 700l-100 -144h-46l79 144h67zM322 0h-68v66q-17 -34 -45.5 -56t-62.5 -22q-48 0 -69 25t-21 80v390h68v-372q0 -62 46 -62q26 0 49 22.5t35 54.5v357h68v-483z" />
    <glyph glyph-name="ucircumflex" unicode="&#xfb;" 
d="M290 556h-41l-60 105l-57 -105h-42l66 144h66zM322 0h-68v66q-17 -34 -45.5 -56t-62.5 -22q-48 0 -69 25t-21 80v390h68v-372q0 -62 46 -62q26 0 49 22.5t35 54.5v357h68v-483z" />
    <glyph glyph-name="udieresis" unicode="&#xfc;" 
d="M304 603q0 -18 -13 -30.5t-31 -12.5q-17 0 -30 12.5t-13 30.5t13 30.5t30 12.5q18 0 31 -12.5t13 -30.5zM163 603q0 -18 -13 -30.5t-31 -12.5q-17 0 -30 12.5t-13 30.5t13 30.5t30 12.5q18 0 31 -12.5t13 -30.5zM322 0h-68v66q-17 -34 -45.5 -56t-62.5 -22q-48 0 -69 25
t-21 80v390h68v-372q0 -62 46 -62q26 0 49 22.5t35 54.5v357h68v-483z" />
    <glyph glyph-name="yacute" unicode="&#xfd;" horiz-adv-x="326" 
d="M33 -189l11 60q10 -6 24 -6q17 0 26 10t16 35l19 75l-120 498h74l79 -396l82 396h72l-143 -589q-14 -51 -36.5 -70.5t-61.5 -19.5q-26 0 -42 7zM272 700l-100 -144h-46l79 144h67z" />
    <glyph glyph-name="thorn" unicode="&#xfe;" horiz-adv-x="384" 
d="M215 -12q-63 0 -91 75v-247h-68v851h68v-245q32 73 91 73q66 0 99 -68.5t33 -184.5q0 -115 -33 -184.5t-99 -69.5zM198 49q77 0 77 193q0 192 -77 192q-23 0 -44 -23.5t-30 -56.5v-224q9 -33 30.5 -57t43.5 -24z" />
    <glyph glyph-name="ydieresis" unicode="&#xff;" horiz-adv-x="326" 
d="M33 -189l11 60q10 -6 24 -6q17 0 26 10t16 35l19 75l-120 498h74l79 -396l82 396h72l-143 -589q-14 -51 -36.5 -70.5t-61.5 -19.5q-26 0 -42 7zM279 603q0 -18 -13 -30.5t-31 -12.5q-17 0 -30 12.5t-13 30.5t13 30.5t30 12.5q18 0 31 -12.5t13 -30.5zM138 603
q0 -18 -13 -30.5t-31 -12.5q-17 0 -30 12.5t-13 30.5t13 30.5t30 12.5q18 0 31 -12.5t13 -30.5z" />
    <glyph glyph-name="Amacron" unicode="&#x100;" horiz-adv-x="364" 
d="M357 0h-77l-27 153h-142l-27 -153h-77l131 667h87zM244 220l-62 357l-62 -357h124zM306 740h-248v45h248v-45z" />
    <glyph glyph-name="amacron" unicode="&#x101;" horiz-adv-x="376" 
d="M320 0h-69v48q-16 -30 -41.5 -45t-52.5 -15q-56 0 -90 44.5t-34 116.5q0 71 34 115t90 44q27 0 52.5 -14.5t41.5 -42.5v80q0 53 -17 79t-58 26q-51 0 -95 -51l-29 49q55 61 135 61q133 0 133 -151v-344zM176 38q51 0 75 63v92q-24 65 -75 65q-36 0 -54.5 -31.5
t-18.5 -78.5t18.5 -78.5t54.5 -31.5zM312 573h-248v45h248v-45z" />
    <glyph glyph-name="Abreve" unicode="&#x102;" horiz-adv-x="364" 
d="M357 0h-77l-27 153h-142l-27 -153h-77l131 667h87zM244 220l-62 357l-62 -357h124zM301 780q-45 -61 -119 -61t-119 61l36 28q13 -20 36 -32t47 -12q55 0 83 44z" />
    <glyph glyph-name="abreve" unicode="&#x103;" horiz-adv-x="376" 
d="M320 0h-69v48q-16 -30 -41.5 -45t-52.5 -15q-56 0 -90 44.5t-34 116.5q0 71 34 115t90 44q27 0 52.5 -14.5t41.5 -42.5v80q0 53 -17 79t-58 26q-51 0 -95 -51l-29 49q55 61 135 61q133 0 133 -151v-344zM176 38q51 0 75 63v92q-24 65 -75 65q-36 0 -54.5 -31.5
t-18.5 -78.5t18.5 -78.5t54.5 -31.5zM307 613q-45 -61 -119 -61t-119 61l36 28q13 -20 36 -32t47 -12q55 0 83 44z" />
    <glyph glyph-name="Aogonek" unicode="&#x104;" horiz-adv-x="364" 
d="M352 -115l35 -18q-16 -53 -68 -53q-32 0 -51 19.5t-19 56.5q0 58 50 110h-19l-27 153h-142l-27 -153h-77l131 667h87l132 -667q-66 -44 -66 -108q0 -41 29 -41q26 0 32 34zM244 220l-62 357l-62 -357h124z" />
    <glyph glyph-name="aogonek" unicode="&#x105;" horiz-adv-x="376" 
d="M315 -115l35 -18q-16 -53 -68 -53q-32 0 -51 19.5t-19 56.5q0 58 50 110h-11v48q-16 -30 -41.5 -45t-52.5 -15q-56 0 -90 44.5t-34 116.5q0 71 34 115t90 44q27 0 52.5 -14.5t41.5 -42.5v80q0 53 -17 79t-58 26q-51 0 -95 -51l-29 49q55 61 135 61q133 0 133 -151v-344
q-66 -44 -66 -108q0 -41 29 -41q26 0 32 34zM176 38q51 0 75 63v92q-24 65 -75 65q-36 0 -54.5 -31.5t-18.5 -78.5t18.5 -78.5t54.5 -31.5z" />
    <glyph glyph-name="Cacute" unicode="&#x106;" horiz-adv-x="390" 
d="M327 867l-100 -144h-46l79 144h67zM217 -12q-89 0 -131.5 94.5t-42.5 250.5t42.5 250.5t131.5 94.5q99 0 138 -128l-62 -24q-13 43 -29.5 63.5t-46.5 20.5q-96 0 -96 -277t96 -277q33 0 50.5 26.5t27.5 74.5l63 -23q-34 -146 -141 -146z" />
    <glyph glyph-name="cacute" unicode="&#x107;" horiz-adv-x="317" 
d="M306 700l-100 -144h-46l79 144h67zM196 -12q-75 0 -117 71t-42 183q0 111 41.5 182t117.5 71q59 0 99 -44l-28 -52q-28 35 -62 35q-49 0 -72.5 -55t-23.5 -137t23.5 -137.5t72.5 -55.5q34 0 62 35l28 -52q-36 -44 -99 -44z" />
    <glyph glyph-name="Ccircumflex" unicode="&#x108;" horiz-adv-x="390" 
d="M318 723h-41l-60 105l-57 -105h-42l66 144h66zM217 -12q-89 0 -131.5 94.5t-42.5 250.5t42.5 250.5t131.5 94.5q99 0 138 -128l-62 -24q-13 43 -29.5 63.5t-46.5 20.5q-96 0 -96 -277t96 -277q33 0 50.5 26.5t27.5 74.5l63 -23q-34 -146 -141 -146z" />
    <glyph glyph-name="ccircumflex" unicode="&#x109;" horiz-adv-x="317" 
d="M297 556h-41l-60 105l-57 -105h-42l66 144h66zM196 -12q-75 0 -117 71t-42 183q0 111 41.5 182t117.5 71q59 0 99 -44l-28 -52q-28 35 -62 35q-49 0 -72.5 -55t-23.5 -137t23.5 -137.5t72.5 -55.5q34 0 62 35l28 -52q-36 -44 -99 -44z" />
    <glyph glyph-name="Cdotaccent" unicode="&#x10a;" horiz-adv-x="390" 
d="M217 -12q-89 0 -131.5 94.5t-42.5 250.5t42.5 250.5t131.5 94.5q99 0 138 -128l-62 -24q-13 43 -29.5 63.5t-46.5 20.5q-96 0 -96 -277t96 -277q33 0 50.5 26.5t27.5 74.5l63 -23q-34 -146 -141 -146zM217 724q-18 0 -31 13t-13 31t13 31t31 13t31 -13t13 -31t-13 -31
t-31 -13z" />
    <glyph glyph-name="cdotaccent" unicode="&#x10b;" horiz-adv-x="317" 
d="M196 -12q-75 0 -117 71t-42 183q0 111 41.5 182t117.5 71q59 0 99 -44l-28 -52q-28 35 -62 35q-49 0 -72.5 -55t-23.5 -137t23.5 -137.5t72.5 -55.5q34 0 62 35l28 -52q-36 -44 -99 -44zM198 557q-18 0 -31 13t-13 31t13 31t31 13t31 -13t13 -31t-13 -31t-31 -13z" />
    <glyph glyph-name="Ccaron" unicode="&#x10c;" horiz-adv-x="390" 
d="M253 723h-66l-69 144h42l60 -105l57 105h41zM217 -12q-89 0 -131.5 94.5t-42.5 250.5t42.5 250.5t131.5 94.5q99 0 138 -128l-62 -24q-13 43 -29.5 63.5t-46.5 20.5q-96 0 -96 -277t96 -277q33 0 50.5 26.5t27.5 74.5l63 -23q-34 -146 -141 -146z" />
    <glyph glyph-name="ccaron" unicode="&#x10d;" horiz-adv-x="317" 
d="M232 556h-66l-69 144h42l60 -105l57 105h41zM196 -12q-75 0 -117 71t-42 183q0 111 41.5 182t117.5 71q59 0 99 -44l-28 -52q-28 35 -62 35q-49 0 -72.5 -55t-23.5 -137t23.5 -137.5t72.5 -55.5q34 0 62 35l28 -52q-36 -44 -99 -44z" />
    <glyph glyph-name="Dcaron" unicode="&#x10e;" horiz-adv-x="427" 
d="M244 723h-66l-69 144h42l60 -105l57 105h41zM190 0h-127v667h127q99 0 147 -90.5t48 -243.5q0 -154 -47.5 -243.5t-147.5 -89.5zM190 67q116 0 116 266q0 267 -116 267h-52v-533h52z" />
    <glyph glyph-name="dcaron" unicode="&#x10f;" horiz-adv-x="466" 
d="M471 614q0 -39 -20 -74.5t-50 -57.5l-31 25q23 16 39.5 40.5t17.5 46.5h-4q-4 -1 -6 -1q-17 0 -28.5 12t-11.5 30t12.5 31t30.5 13q21 0 36 -17.5t15 -47.5zM328 0h-68v65q-15 -36 -40.5 -56.5t-50.5 -20.5q-66 0 -99 68.5t-33 184.5q0 115 33 184.5t99 69.5
q26 0 51.5 -20.5t39.5 -58.5v251h68v-667zM186 49q23 0 44.5 24t29.5 56v224q-9 32 -30 56.5t-44 24.5q-77 0 -77 -193q0 -192 77 -192z" />
    <glyph glyph-name="Dcroat" unicode="&#x110;" horiz-adv-x="446" 
d="M209 0h-127v301h-61v56h61v310h127q99 0 147 -90.5t48 -243.5q0 -154 -47.5 -243.5t-147.5 -89.5zM209 67q116 0 116 266q0 267 -116 267h-52v-243h83v-56h-83v-234h52z" />
    <glyph glyph-name="dcroat" unicode="&#x111;" horiz-adv-x="391" 
d="M328 0h-68v65q-15 -36 -40.5 -56.5t-50.5 -20.5q-66 0 -99 68.5t-33 184.5q0 115 33 184.5t99 69.5q26 0 51.5 -20.5t39.5 -58.5v120h-120v45h120v86h68v-86h45v-45h-45v-536zM186 49q23 0 44.5 24t29.5 56v224q-9 32 -30 56.5t-44 24.5q-77 0 -77 -193q0 -192 77 -192z
" />
    <glyph glyph-name="Emacron" unicode="&#x112;" horiz-adv-x="352" 
d="M311 0h-248v667h248v-67h-173v-225h166v-67h-166v-241h173v-67zM312 740h-248v45h248v-45z" />
    <glyph glyph-name="emacron" unicode="&#x113;" horiz-adv-x="373" 
d="M205 -12q-83 0 -125.5 70t-42.5 184q0 112 39 182.5t115 70.5q77 0 113 -69.5t36 -182.5v-24h-234q0 -80 27 -127t77 -47q47 0 80 58l41 -36q-51 -79 -126 -79zM272 270q0 69 -19 118.5t-64 49.5q-31 0 -51 -29.5t-26 -64t-6 -74.5h166zM314 573h-248v45h248v-45z" />
    <glyph glyph-name="Ebreve" unicode="&#x114;" horiz-adv-x="352" 
d="M311 0h-248v667h248v-67h-173v-225h166v-67h-166v-241h173v-67zM307 780q-45 -61 -119 -61t-119 61l36 28q13 -20 36 -32t47 -12q55 0 83 44z" />
    <glyph glyph-name="ebreve" unicode="&#x115;" horiz-adv-x="373" 
d="M205 -12q-83 0 -125.5 70t-42.5 184q0 112 39 182.5t115 70.5q77 0 113 -69.5t36 -182.5v-24h-234q0 -80 27 -127t77 -47q47 0 80 58l41 -36q-51 -79 -126 -79zM272 270q0 69 -19 118.5t-64 49.5q-31 0 -51 -29.5t-26 -64t-6 -74.5h166zM310 613q-45 -61 -119 -61
t-119 61l36 28q13 -20 36 -32t47 -12q55 0 83 44z" />
    <glyph glyph-name="Edotaccent" unicode="&#x116;" horiz-adv-x="352" 
d="M311 0h-248v667h248v-67h-173v-225h166v-67h-166v-241h173v-67zM194 724q-18 0 -31 13t-13 31t13 31t31 13t31 -13t13 -31t-13 -31t-31 -13z" />
    <glyph glyph-name="edotaccent" unicode="&#x117;" horiz-adv-x="373" 
d="M205 -12q-83 0 -125.5 70t-42.5 184q0 112 39 182.5t115 70.5q77 0 113 -69.5t36 -182.5v-24h-234q0 -80 27 -127t77 -47q47 0 80 58l41 -36q-51 -79 -126 -79zM272 270q0 69 -19 118.5t-64 49.5q-31 0 -51 -29.5t-26 -64t-6 -74.5h166zM191 557q-18 0 -31 13t-13 31
t13 31t31 13t31 -13t13 -31t-13 -31t-31 -13z" />
    <glyph glyph-name="Eogonek" unicode="&#x118;" horiz-adv-x="352" 
d="M311 0q-66 -44 -66 -108q0 -41 29 -41q26 0 32 34l35 -18q-16 -53 -68 -53q-32 0 -51 19.5t-19 56.5q0 58 50 110h-190v667h248v-67h-173v-225h166v-67h-166v-241h173v-67z" />
    <glyph glyph-name="eogonek" unicode="&#x119;" horiz-adv-x="373" 
d="M253 -115l35 -18q-16 -53 -68 -53q-32 0 -51 19.5t-19 56.5q0 54 40 99q-76 7 -114.5 75.5t-38.5 177.5q0 112 39 182.5t115 70.5q77 0 113 -69.5t36 -182.5v-24h-234q0 -80 27 -127t77 -47q47 0 80 58l41 -36q-30 -47 -73 -67q-66 -44 -66 -108q0 -41 29 -41q26 0 32 34
zM272 270q0 69 -19 118.5t-64 49.5q-31 0 -51 -29.5t-26 -64t-6 -74.5h166z" />
    <glyph glyph-name="Ecaron" unicode="&#x11a;" horiz-adv-x="352" 
d="M219 723h-66l-69 144h42l60 -105l57 105h41zM311 0h-248v667h248v-67h-173v-225h166v-67h-166v-241h173v-67z" />
    <glyph glyph-name="ecaron" unicode="&#x11b;" horiz-adv-x="373" 
d="M226 556h-66l-69 144h42l60 -105l57 105h41zM205 -12q-83 0 -125.5 70t-42.5 184q0 112 39 182.5t115 70.5q77 0 113 -69.5t36 -182.5v-24h-234q0 -80 27 -127t77 -47q47 0 80 58l41 -36q-51 -79 -126 -79zM272 270q0 69 -19 118.5t-64 49.5q-31 0 -51 -29.5t-26 -64
t-6 -74.5h166z" />
    <glyph glyph-name="Gcircumflex" unicode="&#x11c;" horiz-adv-x="411" 
d="M318 723h-41l-60 105l-57 -105h-42l66 144h66zM217 -12q-88 0 -131 92.5t-43 252.5t43 252.5t131 92.5q103 0 138 -128l-62 -24q-13 42 -29.5 63t-46.5 21q-96 0 -96 -277t96 -277q48 0 72 41v175h-89v67h157v-271q-51 -80 -140 -80z" />
    <glyph glyph-name="gcircumflex" unicode="&#x11d;" horiz-adv-x="384" 
d="M292 556h-41l-60 105l-57 -105h-42l66 144h66zM178 -196q-79 0 -128 49l28 58q39 -46 94 -46q88 0 88 116v93q-15 -37 -40.5 -58.5t-50.5 -21.5q-66 0 -99 67t-33 183q0 115 33 183t99 68q26 0 51.5 -20.5t39.5 -58.5v67h68v-495q0 -97 -41 -140.5t-109 -43.5zM186 55
q23 0 44 24.5t30 57.5v216q-9 32 -30 56.5t-44 24.5q-77 0 -77 -190q0 -189 77 -189z" />
    <glyph glyph-name="Gbreve" unicode="&#x11e;" horiz-adv-x="411" 
d="M217 -12q-88 0 -131 92.5t-43 252.5t43 252.5t131 92.5q103 0 138 -128l-62 -24q-13 42 -29.5 63t-46.5 21q-96 0 -96 -277t96 -277q48 0 72 41v175h-89v67h157v-271q-51 -80 -140 -80zM338 780q-45 -61 -119 -61t-119 61l36 28q13 -20 36 -32t47 -12q55 0 83 44z" />
    <glyph glyph-name="gbreve" unicode="&#x11f;" horiz-adv-x="384" 
d="M178 -196q-79 0 -128 49l28 58q39 -46 94 -46q88 0 88 116v93q-15 -37 -40.5 -58.5t-50.5 -21.5q-66 0 -99 67t-33 183q0 115 33 183t99 68q26 0 51.5 -20.5t39.5 -58.5v67h68v-495q0 -97 -41 -140.5t-109 -43.5zM186 55q23 0 44 24.5t30 57.5v216q-9 32 -30 56.5
t-44 24.5q-77 0 -77 -190q0 -189 77 -189zM311 613q-45 -61 -119 -61t-119 61l36 28q13 -20 36 -32t47 -12q55 0 83 44z" />
    <glyph glyph-name="Gdotaccent" unicode="&#x120;" horiz-adv-x="411" 
d="M217 -12q-88 0 -131 92.5t-43 252.5t43 252.5t131 92.5q103 0 138 -128l-62 -24q-13 42 -29.5 63t-46.5 21q-96 0 -96 -277t96 -277q48 0 72 41v175h-89v67h157v-271q-51 -80 -140 -80zM218 724q-18 0 -31 13t-13 31t13 31t31 13t31 -13t13 -31t-13 -31t-31 -13z" />
    <glyph glyph-name="gdotaccent" unicode="&#x121;" horiz-adv-x="384" 
d="M178 -196q-79 0 -128 49l28 58q39 -46 94 -46q88 0 88 116v93q-15 -37 -40.5 -58.5t-50.5 -21.5q-66 0 -99 67t-33 183q0 115 33 183t99 68q26 0 51.5 -20.5t39.5 -58.5v67h68v-495q0 -97 -41 -140.5t-109 -43.5zM186 55q23 0 44 24.5t30 57.5v216q-9 32 -30 56.5
t-44 24.5q-77 0 -77 -190q0 -189 77 -189zM190 557q-18 0 -31 13t-13 31t13 31t31 13t31 -13t13 -31t-13 -31t-31 -13z" />
    <glyph glyph-name="Gcommaaccent" unicode="&#x122;" horiz-adv-x="411" 
d="M264 -138q0 -39 -20 -74.5t-50 -57.5l-31 25q23 16 39.5 40.5t17.5 46.5h-4q-4 -1 -6 -1q-17 0 -28.5 12t-11.5 30t12.5 31t30.5 13q21 0 36 -17.5t15 -47.5zM217 -12q-88 0 -131 92.5t-43 252.5t43 252.5t131 92.5q103 0 138 -128l-62 -24q-13 42 -29.5 63t-46.5 21
q-96 0 -96 -277t96 -277q48 0 72 41v175h-89v67h157v-271q-51 -80 -140 -80z" />
    <glyph glyph-name="gcommaaccent" unicode="&#x123;" horiz-adv-x="384" 
d="M143 611q0 43 19.5 81t47.5 58l32 -25q-23 -16 -39 -40t-17 -46q2 1 4 1q17 0 30.5 -12.5t13.5 -30.5t-13 -31t-32 -13t-32.5 15t-13.5 43zM178 -196q-79 0 -128 49l28 58q39 -46 94 -46q88 0 88 116v93q-15 -37 -40.5 -58.5t-50.5 -21.5q-66 0 -99 67t-33 183
q0 115 33 183t99 68q26 0 51.5 -20.5t39.5 -58.5v67h68v-495q0 -97 -41 -140.5t-109 -43.5zM186 55q23 0 44 24.5t30 57.5v216q-9 32 -30 56.5t-44 24.5q-77 0 -77 -190q0 -189 77 -189z" />
    <glyph glyph-name="Hcircumflex" unicode="&#x124;" horiz-adv-x="436" 
d="M318 723h-41l-60 105l-57 -105h-42l66 144h66zM373 0h-75v309h-160v-309h-75v667h75v-290h160v290h75v-667z" />
    <glyph glyph-name="hcircumflex" unicode="&#x125;" 
d="M289 723h-41l-60 105l-57 -105h-42l66 144h66zM322 0h-68v372q0 62 -46 62q-26 0 -49 -23t-35 -56v-355h-68v667h68v-252q16 34 46.5 57t61.5 23q48 0 69 -25t21 -80v-390z" />
    <glyph glyph-name="Hbar" unicode="&#x126;" horiz-adv-x="478" 
d="M394 0h-75v309h-160v-309h-75v501h-63v45h63v121h75v-121h160v121h75v-121h58v-45h-58v-501zM159 377h160v124h-160v-124z" />
    <glyph glyph-name="hbar" unicode="&#x127;" horiz-adv-x="392" 
d="M254 536h-116v-121q16 34 46.5 57t61.5 23q48 0 69 -25t21 -80v-390h-68v372q0 62 -46 62q-26 0 -49 -23t-35 -56v-355h-68v536h-49v45h49v86h68v-86h116v-45z" />
    <glyph glyph-name="Itilde" unicode="&#x128;" horiz-adv-x="201" 
d="M138 0h-75v667h75v-667zM142 721q-24 0 -38 23.5t-23.5 47.5t-21.5 24q-31 0 -31 -89h-39q0 59 18.5 96.5t54.5 37.5q24 0 38 -23.5t24 -47.5t22 -24q30 0 30 89h39q0 -59 -18.5 -96.5t-54.5 -37.5z" />
    <glyph glyph-name="itilde" unicode="&#x129;" horiz-adv-x="180" 
d="M124 0h-68v483h68v-483zM131 554q-24 0 -38 24t-23.5 47.5t-21.5 23.5q-31 0 -31 -89h-39q0 59 18.5 96.5t54.5 37.5q19 0 32 -15t19 -32.5t14.5 -32.5t18.5 -15q30 0 30 89h39q0 -59 -18.5 -96.5t-54.5 -37.5z" />
    <glyph glyph-name="Imacron" unicode="&#x12a;" horiz-adv-x="201" 
d="M138 0h-75v667h75v-667zM224 740h-248v45h248v-45z" />
    <glyph glyph-name="imacron" unicode="&#x12b;" horiz-adv-x="180" 
d="M124 0h-68v483h68v-483zM214 573h-248v45h248v-45z" />
    <glyph glyph-name="Ibreve" unicode="&#x12c;" horiz-adv-x="201" 
d="M138 0h-75v667h75v-667zM219 780q-45 -61 -119 -61t-119 61l36 28q13 -20 36 -32t47 -12q55 0 83 44z" />
    <glyph glyph-name="ibreve" unicode="&#x12d;" horiz-adv-x="180" 
d="M124 0h-68v483h68v-483zM209 613q-45 -61 -119 -61t-119 61l36 28q13 -20 36 -32t47 -12q55 0 83 44z" />
    <glyph glyph-name="Iogonek" unicode="&#x12e;" horiz-adv-x="201" 
d="M134 -115l35 -18q-16 -53 -68 -53q-32 0 -51 19.5t-19 56.5q0 58 50 110h-18v667h75v-667h1q-66 -44 -66 -108q0 -41 29 -41q26 0 32 34z" />
    <glyph glyph-name="iogonek" unicode="&#x12f;" horiz-adv-x="180" 
d="M119 -115l35 -18q-16 -53 -68 -53q-32 0 -51 19.5t-19 56.5q0 58 50 110h-10v483h68v-483q-66 -44 -66 -108q0 -41 29 -41q26 0 32 34zM90 554q-19 0 -33 14t-14 33t14 33.5t33 14.5q20 0 34 -14.5t14 -33.5t-14 -33t-34 -14z" />
    <glyph glyph-name="Idotaccent" unicode="&#x130;" horiz-adv-x="201" 
d="M138 0h-75v667h75v-667zM101 724q-18 0 -31 13t-13 31t13 31t31 13t31 -13t13 -31t-13 -31t-31 -13z" />
    <glyph glyph-name="dotlessi" unicode="&#x131;" horiz-adv-x="180" 
d="M124 0h-68v483h68v-483z" />
    <glyph glyph-name="IJ" unicode="&#x132;" horiz-adv-x="522" 
d="M138 0h-75v667h75v-667zM314 -12q-63 0 -106 46l28 60q28 -38 71 -38q78 0 78 89v522h75v-525q0 -78 -39 -116t-107 -38z" />
    <glyph glyph-name="ij" unicode="&#x133;" horiz-adv-x="361" 
d="M90 554q-19 0 -33 14t-14 33t14 33.5t33 14.5q20 0 34 -14.5t14 -33.5t-14 -33t-34 -14zM124 0h-68v483h68v-483zM270 554q-19 0 -33 14t-14 33t14 33.5t33 14.5q20 0 34 -14.5t14 -33.5t-14 -33t-34 -14zM207 -196q-40 0 -58 31l26 49q8 -19 28 -19q33 0 33 64v554h68
v-554q0 -67 -24 -96t-73 -29z" />
    <glyph glyph-name="Jcircumflex" unicode="&#x134;" horiz-adv-x="321" 
d="M321 723h-41l-60 105l-57 -105h-42l66 144h66zM113 -12q-63 0 -106 46l28 60q28 -38 71 -38q78 0 78 89v522h75v-525q0 -78 -39 -116t-107 -38z" />
    <glyph glyph-name="jcircumflex" unicode="&#x135;" horiz-adv-x="180" 
d="M192 556h-41l-60 105l-57 -105h-42l66 144h66zM27 -196q-40 0 -58 31l26 49q8 -19 28 -19q33 0 33 64v554h68v-554q0 -67 -24 -96t-73 -29z" />
    <glyph glyph-name="Kcommaaccent" unicode="&#x136;" horiz-adv-x="418" 
d="M264 -138q0 -39 -20 -74.5t-50 -57.5l-31 25q23 16 39.5 40.5t17.5 46.5h-4q-4 -1 -6 -1q-17 0 -28.5 12t-11.5 30t12.5 31t30.5 13q21 0 36 -17.5t15 -47.5zM407 0h-87l-137 289l-45 -86v-203h-75v667h75v-347l171 347h85l-169 -317z" />
    <glyph glyph-name="kcommaaccent" unicode="&#x137;" horiz-adv-x="361" 
d="M235 -138q0 -39 -20 -74.5t-50 -57.5l-31 25q23 16 39.5 40.5t17.5 46.5h-4q-4 -1 -6 -1q-17 0 -28.5 12t-11.5 30t12.5 31t30.5 13q21 0 36 -17.5t15 -47.5zM345 0h-74l-91 219l-56 -96v-123h-68v667h68v-451l148 267h74l-122 -216z" />
    <glyph glyph-name="kgreenlandic" unicode="&#x138;" horiz-adv-x="361" 
d="M345 0h-74l-91 219l-56 -96v-123h-68v483h68v-267l148 267h74l-122 -216z" />
    <glyph glyph-name="Lacute" unicode="&#x139;" horiz-adv-x="333" 
d="M296 867l-100 -144h-46l79 144h67zM311 0h-248v667h75v-600h173v-67z" />
    <glyph glyph-name="lacute" unicode="&#x13a;" horiz-adv-x="180" 
d="M200 867l-100 -144h-46l79 144h67zM124 0h-68v667h68v-667z" />
    <glyph glyph-name="Lcommaaccent" unicode="&#x13b;" horiz-adv-x="333" 
d="M229 -138q0 -39 -20 -74.5t-50 -57.5l-31 25q23 16 39.5 40.5t17.5 46.5h-4q-4 -1 -6 -1q-17 0 -28.5 12t-11.5 30t12.5 31t30.5 13q21 0 36 -17.5t15 -47.5zM311 0h-248v667h75v-600h173v-67z" />
    <glyph glyph-name="lcommaaccent" unicode="&#x13c;" horiz-adv-x="180" 
d="M145 -138q0 -39 -20 -74.5t-50 -57.5l-31 25q23 16 39.5 40.5t17.5 46.5h-4q-4 -1 -6 -1q-17 0 -28.5 12t-11.5 30t12.5 31t30.5 13q21 0 36 -17.5t15 -47.5zM124 0h-68v667h68v-667z" />
    <glyph glyph-name="Lcaron" unicode="&#x13d;" horiz-adv-x="333" 
d="M288 615q0 -39 -20 -74.5t-50 -57.5l-31 25q23 16 39.5 40.5t17.5 46.5l-4 -1h-6q-17 0 -28.5 12t-11.5 30t12.5 31t30.5 13q21 0 36 -17.5t15 -47.5zM311 0h-248v667h75v-600h173v-67z" />
    <glyph glyph-name="lcaron" unicode="&#x13e;" horiz-adv-x="261" 
d="M282 615q0 -39 -20 -74.5t-50 -57.5l-31 25q23 16 39.5 40.5t17.5 46.5l-4 -1h-6q-17 0 -28.5 12t-11.5 30t12.5 31t30.5 13q21 0 36 -17.5t15 -47.5zM124 0h-68v667h68v-667z" />
    <glyph glyph-name="Ldot" unicode="&#x13f;" horiz-adv-x="362" 
d="M311 0h-248v667h75v-600h173v-67zM333 342q0 -21 -15 -36.5t-37 -15.5q-21 0 -36.5 15.5t-15.5 36.5q0 20 15.5 35.5t36.5 15.5t36.5 -15.5t15.5 -35.5z" />
    <glyph glyph-name="ldot" unicode="&#x140;" horiz-adv-x="287" 
d="M124 0h-68v667h68v-667zM286 245q0 -21 -15 -36.5t-37 -15.5q-21 0 -36.5 15.5t-15.5 36.5q0 20 15.5 35.5t36.5 15.5q22 0 37 -15t15 -36z" />
    <glyph glyph-name="Lslash" unicode="&#x141;" horiz-adv-x="346" 
d="M21 247v67l55 32v321h75v-278l60 35v-66l-60 -35v-256h173v-67h-248v279z" />
    <glyph glyph-name="lslash" unicode="&#x142;" horiz-adv-x="222" 
d="M21 262v56l56 31v318h68v-279l56 32v-55l-56 -32v-333h-68v294z" />
    <glyph glyph-name="Nacute" unicode="&#x143;" horiz-adv-x="436" 
d="M327 867l-100 -144h-46l79 144h67zM373 0h-72l-163 462v-462h-75v667h75l160 -453v453h75v-667z" />
    <glyph glyph-name="nacute" unicode="&#x144;" 
d="M298 700l-100 -144h-46l79 144h67zM322 0h-68v371q0 63 -46 63q-26 0 -49 -23t-35 -56v-355h-68v483h68v-68q16 34 46.5 57t61.5 23q90 0 90 -105v-390z" />
    <glyph glyph-name="Ncommaaccent" unicode="&#x145;" horiz-adv-x="436" 
d="M273 -138q0 -39 -20 -74.5t-50 -57.5l-31 25q23 16 39.5 40.5t17.5 46.5h-4q-4 -1 -6 -1q-17 0 -28.5 12t-11.5 30t12.5 31t30.5 13q21 0 36 -17.5t15 -47.5zM373 0h-72l-163 462v-462h-75v667h75l160 -453v453h75v-667z" />
    <glyph glyph-name="ncommaaccent" unicode="&#x146;" 
d="M244 -138q0 -39 -20 -74.5t-50 -57.5l-31 25q23 16 39.5 40.5t17.5 46.5h-4q-4 -1 -6 -1q-17 0 -28.5 12t-11.5 30t12.5 31t30.5 13q21 0 36 -17.5t15 -47.5zM322 0h-68v371q0 63 -46 63q-26 0 -49 -23t-35 -56v-355h-68v483h68v-68q16 34 46.5 57t61.5 23q90 0 90 -105
v-390z" />
    <glyph glyph-name="Ncaron" unicode="&#x147;" horiz-adv-x="436" 
d="M253 723h-66l-69 144h42l60 -105l57 105h41zM373 0h-72l-163 462v-462h-75v667h75l160 -453v453h75v-667z" />
    <glyph glyph-name="ncaron" unicode="&#x148;" 
d="M223 556h-66l-69 144h42l60 -105l57 105h41zM322 0h-68v371q0 63 -46 63q-26 0 -49 -23t-35 -56v-355h-68v483h68v-68q16 34 46.5 57t61.5 23q90 0 90 -105v-390z" />
    <glyph glyph-name="napostrophe" unicode="&#x149;" 
d="M141 676q0 -39 -20 -74.5t-50 -57.5l-31 25q23 16 39.5 40.5t17.5 46.5h-4q-4 -1 -6 -1q-17 0 -28.5 12t-11.5 30t12.5 31t30.5 13q21 0 36 -17.5t15 -47.5zM322 0h-68v371q0 63 -46 63q-26 0 -49 -23t-35 -56v-355h-68v483h68v-68q16 34 46.5 57t61.5 23q90 0 90 -105
v-390z" />
    <glyph glyph-name="Eng" unicode="&#x14a;" horiz-adv-x="436" 
d="M227 -196q-63 0 -106 46l29 59q27 -38 70 -38q78 0 78 89v49l-160 477v-486h-75v667h75l160 -477v477h75v-709q0 -78 -38.5 -116t-107.5 -38z" />
    <glyph glyph-name="eng" unicode="&#x14b;" 
d="M322 390v-461q0 -67 -24 -96t-74 -29q-40 0 -58 31l27 49q8 -19 27 -19q34 0 34 64v442q0 63 -46 63q-26 0 -49 -23t-35 -56v-355h-68v483h68v-68q16 34 46.5 57t61.5 23q90 0 90 -105z" />
    <glyph glyph-name="Omacron" unicode="&#x14c;" horiz-adv-x="434" 
d="M340 740h-248v45h248v-45zM217 -12q-61 0 -101 48t-56.5 122.5t-16.5 174.5t16.5 174.5t56.5 122.5t101 48q89 0 131.5 -95.5t42.5 -249.5t-42.5 -249.5t-131.5 -95.5zM217 56q50 0 73 77t23 200q0 124 -23 200.5t-73 76.5q-96 0 -96 -277t96 -277z" />
    <glyph glyph-name="omacron" unicode="&#x14d;" horiz-adv-x="382" 
d="M315 573h-248v45h248v-45zM191 -12q-78 0 -116 72t-38 182q0 109 38 181t116 72t115.5 -71.5t37.5 -181.5t-37.5 -182t-115.5 -72zM191 49q82 0 82 193q0 192 -82 192t-82 -192q0 -193 82 -193z" />
    <glyph glyph-name="Obreve" unicode="&#x14e;" horiz-adv-x="434" 
d="M217 -12q-61 0 -101 48t-56.5 122.5t-16.5 174.5t16.5 174.5t56.5 122.5t101 48q89 0 131.5 -95.5t42.5 -249.5t-42.5 -249.5t-131.5 -95.5zM217 56q50 0 73 77t23 200q0 124 -23 200.5t-73 76.5q-96 0 -96 -277t96 -277zM336 780q-45 -61 -119 -61t-119 61l36 28
q13 -20 36 -32t47 -12q55 0 83 44z" />
    <glyph glyph-name="obreve" unicode="&#x14f;" horiz-adv-x="382" 
d="M191 -12q-78 0 -116 72t-38 182q0 109 38 181t116 72t115.5 -71.5t37.5 -181.5t-37.5 -182t-115.5 -72zM191 49q82 0 82 193q0 192 -82 192t-82 -192q0 -193 82 -193zM310 613q-45 -61 -119 -61t-119 61l36 28q13 -20 36 -32t47 -12q55 0 83 44z" />
    <glyph glyph-name="Ohungarumlaut" unicode="&#x150;" horiz-adv-x="434" 
d="M246 867l-77 -144h-38l56 144h59zM363 867l-78 -144h-38l56 144h60zM217 -12q-61 0 -101 48t-56.5 122.5t-16.5 174.5t16.5 174.5t56.5 122.5t101 48q89 0 131.5 -95.5t42.5 -249.5t-42.5 -249.5t-131.5 -95.5zM217 56q50 0 73 77t23 200q0 124 -23 200.5t-73 76.5
q-96 0 -96 -277t96 -277z" />
    <glyph glyph-name="ohungarumlaut" unicode="&#x151;" horiz-adv-x="382" 
d="M220 700l-77 -144h-38l56 144h59zM337 700l-78 -144h-38l56 144h60zM191 -12q-78 0 -116 72t-38 182q0 109 38 181t116 72t115.5 -71.5t37.5 -181.5t-37.5 -182t-115.5 -72zM191 49q82 0 82 193q0 192 -82 192t-82 -192q0 -193 82 -193z" />
    <glyph glyph-name="OE" unicode="&#x152;" horiz-adv-x="594" 
d="M551 0h-248v66q-32 -78 -98 -78q-58 0 -95 48t-52 122.5t-15 174.5t15 174t52 122t95 48q66 0 98 -76v66h248v-67h-172v-225h165v-67h-165v-241h172v-67zM303 178v311q-11 57 -33 88.5t-53 31.5q-96 0 -96 -276q0 -277 96 -277q30 0 52.5 32t33.5 90z" />
    <glyph glyph-name="oe" unicode="&#x153;" horiz-adv-x="608" 
d="M575 219h-234q1 -80 27.5 -127t76.5 -47q47 0 80 58l40 -36q-49 -79 -125 -79q-93 0 -130 110q-36 -110 -119 -110q-78 0 -116 72t-38 182q0 109 38 181t116 72q83 0 118 -107q34 107 117 107q77 0 113 -70t36 -183v-23zM341 270h166q0 69 -19 118.5t-64 49.5
q-44 0 -63.5 -51.5t-19.5 -116.5zM273 242q0 192 -82 192t-82 -192q0 -194 82 -194t82 194z" />
    <glyph glyph-name="Racute" unicode="&#x154;" horiz-adv-x="409" 
d="M321 867l-100 -144h-46l79 144h67zM365 0h-81l-87 269h-59v-269h-75v667h140q69 0 112.5 -53.5t43.5 -143.5q0 -80 -27.5 -125t-64.5 -59zM193 336q43 0 65.5 36t22.5 96t-22.5 96t-65.5 36h-55v-264h55z" />
    <glyph glyph-name="racute" unicode="&#x155;" horiz-adv-x="252" 
d="M255 700l-100 -144h-46l79 144h67zM124 0h-68v483h68v-77q39 87 112 87v-71q-9 3 -18 3q-29 0 -53.5 -23t-40.5 -58v-344z" />
    <glyph glyph-name="Rcommaaccent" unicode="&#x156;" horiz-adv-x="409" 
d="M257 -138q0 -39 -20 -74.5t-50 -57.5l-31 25q23 16 39.5 40.5t17.5 46.5h-4q-4 -1 -6 -1q-17 0 -28.5 12t-11.5 30t12.5 31t30.5 13q21 0 36 -17.5t15 -47.5zM365 0h-81l-87 269h-59v-269h-75v667h140q69 0 112.5 -53.5t43.5 -143.5q0 -80 -27.5 -125t-64.5 -59zM193 336
q43 0 65.5 36t22.5 96t-22.5 96t-65.5 36h-55v-264h55z" />
    <glyph glyph-name="rcommaaccent" unicode="&#x157;" horiz-adv-x="252" 
d="M180 -138q0 -39 -20 -74.5t-50 -57.5l-31 25q23 16 39.5 40.5t17.5 46.5h-4q-4 -1 -6 -1q-17 0 -28.5 12t-11.5 30t12.5 31t30.5 13q21 0 36 -17.5t15 -47.5zM124 0h-68v483h68v-77q39 87 112 87v-71q-9 3 -18 3q-29 0 -53.5 -23t-40.5 -58v-344z" />
    <glyph glyph-name="Rcaron" unicode="&#x158;" horiz-adv-x="409" 
d="M238 723h-66l-69 144h42l60 -105l57 105h41zM365 0h-81l-87 269h-59v-269h-75v667h140q69 0 112.5 -53.5t43.5 -143.5q0 -80 -27.5 -125t-64.5 -59zM193 336q43 0 65.5 36t22.5 96t-22.5 96t-65.5 36h-55v-264h55z" />
    <glyph glyph-name="rcaron" unicode="&#x159;" horiz-adv-x="252" 
d="M178 556h-66l-69 144h42l60 -105l57 105h41zM124 0h-68v483h68v-77q39 87 112 87v-71q-9 3 -18 3q-29 0 -53.5 -23t-40.5 -58v-344z" />
    <glyph glyph-name="Sacute" unicode="&#x15a;" horiz-adv-x="354" 
d="M292 867l-100 -144h-46l79 144h67zM163 -12q-87 0 -143 61l38 60q18 -24 45.5 -38.5t55.5 -14.5q37 0 62 28.5t25 74.5q0 42 -21.5 76t-52 60t-61 53.5t-52 69.5t-21.5 95q0 72 43.5 118.5t110.5 46.5q72 0 119 -47l-33 -58q-34 37 -85 37q-33 0 -55.5 -26t-22.5 -68
q0 -35 21.5 -66.5t51.5 -58t60.5 -56t52 -73.5t21.5 -99q0 -77 -44 -126t-115 -49z" />
    <glyph glyph-name="sacute" unicode="&#x15b;" horiz-adv-x="309" 
d="M268 700l-100 -144h-46l79 144h67zM152 -12q-86 0 -131 61l33 47q40 -52 93 -52q30 0 50.5 19.5t20.5 52.5q0 25 -13.5 46t-33.5 34.5t-44 31t-44 35t-33.5 46.5t-13.5 66q0 52 35.5 86t92.5 34q70 0 115 -54l-32 -46q-31 44 -82 44q-29 0 -46.5 -18t-17.5 -44
q0 -28 18.5 -50.5t45.5 -40t54 -37.5t45.5 -53.5t18.5 -77.5q0 -58 -37.5 -94t-93.5 -36z" />
    <glyph glyph-name="Scircumflex" unicode="&#x15c;" horiz-adv-x="354" 
d="M291 723h-41l-60 105l-57 -105h-42l66 144h66zM163 -12q-87 0 -143 61l38 60q18 -24 45.5 -38.5t55.5 -14.5q37 0 62 28.5t25 74.5q0 42 -21.5 76t-52 60t-61 53.5t-52 69.5t-21.5 95q0 72 43.5 118.5t110.5 46.5q72 0 119 -47l-33 -58q-34 37 -85 37q-33 0 -55.5 -26
t-22.5 -68q0 -35 21.5 -66.5t51.5 -58t60.5 -56t52 -73.5t21.5 -99q0 -77 -44 -126t-115 -49z" />
    <glyph glyph-name="scircumflex" unicode="&#x15d;" horiz-adv-x="309" 
d="M259 556h-41l-60 105l-57 -105h-42l66 144h66zM152 -12q-86 0 -131 61l33 47q40 -52 93 -52q30 0 50.5 19.5t20.5 52.5q0 25 -13.5 46t-33.5 34.5t-44 31t-44 35t-33.5 46.5t-13.5 66q0 52 35.5 86t92.5 34q70 0 115 -54l-32 -46q-31 44 -82 44q-29 0 -46.5 -18
t-17.5 -44q0 -28 18.5 -50.5t45.5 -40t54 -37.5t45.5 -53.5t18.5 -77.5q0 -58 -37.5 -94t-93.5 -36z" />
    <glyph glyph-name="Scedilla" unicode="&#x15e;" horiz-adv-x="354" 
d="M158 -191q-40 0 -77 30l17 35q30 -27 59 -27q19 0 33 12t14 31q0 15 -8 24.5t-21 9.5q-14 0 -28 -14l-31 17l23 63q-72 8 -119 59l38 60q18 -24 45.5 -38.5t55.5 -14.5q37 0 62 28.5t25 74.5q0 42 -21.5 76t-52 60t-61 53.5t-52 69.5t-21.5 95q0 72 43.5 118.5
t110.5 46.5q72 0 119 -47l-33 -58q-34 37 -85 37q-33 0 -55.5 -26t-22.5 -68q0 -35 21.5 -66.5t51.5 -58t60.5 -56t52 -73.5t21.5 -99q0 -71 -38.5 -119t-102.5 -55l-18 -45q13 10 29 10q23 0 38.5 -18t15.5 -47q0 -35 -25 -57.5t-63 -22.5z" />
    <glyph glyph-name="scedilla" unicode="&#x15f;" horiz-adv-x="309" 
d="M145 -191q-39 0 -77 30l17 35q30 -27 59 -27q19 0 33 12t14 31q0 15 -8 24.5t-21 9.5q-14 0 -28 -14l-31 17l23 63q-68 8 -105 59l33 47q40 -52 93 -52q30 0 50.5 19.5t20.5 52.5q0 25 -13.5 46t-33.5 34.5t-44 31t-44 35t-33.5 46.5t-13.5 66q0 52 35.5 86t92.5 34
q70 0 115 -54l-32 -46q-31 44 -82 44q-29 0 -46.5 -18t-17.5 -44q0 -28 18.5 -50.5t45.5 -40t54 -37.5t45.5 -53.5t18.5 -77.5q0 -53 -32.5 -88.5t-82.5 -40.5l-18 -45q13 10 29 10q23 0 38.5 -18t15.5 -47q0 -35 -25 -57.5t-63 -22.5z" />
    <glyph glyph-name="Scaron" unicode="&#x160;" horiz-adv-x="354" 
d="M226 723h-66l-69 144h42l60 -105l57 105h41zM163 -12q-87 0 -143 61l38 60q18 -24 45.5 -38.5t55.5 -14.5q37 0 62 28.5t25 74.5q0 42 -21.5 76t-52 60t-61 53.5t-52 69.5t-21.5 95q0 72 43.5 118.5t110.5 46.5q72 0 119 -47l-33 -58q-34 37 -85 37q-33 0 -55.5 -26
t-22.5 -68q0 -35 21.5 -66.5t51.5 -58t60.5 -56t52 -73.5t21.5 -99q0 -77 -44 -126t-115 -49z" />
    <glyph glyph-name="scaron" unicode="&#x161;" horiz-adv-x="309" 
d="M194 556h-66l-69 144h42l60 -105l57 105h41zM152 -12q-86 0 -131 61l33 47q40 -52 93 -52q30 0 50.5 19.5t20.5 52.5q0 25 -13.5 46t-33.5 34.5t-44 31t-44 35t-33.5 46.5t-13.5 66q0 52 35.5 86t92.5 34q70 0 115 -54l-32 -46q-31 44 -82 44q-29 0 -46.5 -18t-17.5 -44
q0 -28 18.5 -50.5t45.5 -40t54 -37.5t45.5 -53.5t18.5 -77.5q0 -58 -37.5 -94t-93.5 -36z" />
    <glyph glyph-name="Tcommaaccent" unicode="&#x162;" horiz-adv-x="322" 
d="M216 -138q0 -39 -20 -74.5t-50 -57.5l-31 25q23 16 39.5 40.5t17.5 46.5h-4q-4 -1 -6 -1q-17 0 -28.5 12t-11.5 30t12.5 31t30.5 13q21 0 36 -17.5t15 -47.5zM199 0h-76v600h-105v67h286v-67h-105v-600z" />
    <glyph glyph-name="tcommaaccent" unicode="&#x163;" horiz-adv-x="233" 
d="M171 -138q0 -39 -20 -74.5t-50 -57.5l-31 25q23 16 39.5 40.5t17.5 46.5h-4q-4 -1 -6 -1q-17 0 -28.5 12t-11.5 30t12.5 31t30.5 13q21 0 36 -17.5t15 -47.5zM156 -12q-45 0 -65.5 25t-20.5 79v331h-49v60h49v132h69v-132h65v-60h-65v-321q0 -28 6.5 -40.5t23.5 -12.5
q21 0 32 17l22 -50q-26 -28 -67 -28z" />
    <glyph glyph-name="Tcaron" unicode="&#x164;" horiz-adv-x="322" 
d="M196 723h-66l-69 144h42l60 -105l57 105h41zM199 0h-76v600h-105v67h286v-67h-105v-600z" />
    <glyph glyph-name="tcaron" unicode="&#x165;" horiz-adv-x="233" 
d="M285 676q0 -39 -20 -74.5t-50 -57.5l-31 25q23 16 39.5 40.5t17.5 46.5h-4q-4 -1 -6 -1q-17 0 -28.5 12t-11.5 30t12.5 31t30.5 13q21 0 36 -17.5t15 -47.5zM156 -12q-45 0 -65.5 25t-20.5 79v331h-49v60h49v132h69v-132h65v-60h-65v-321q0 -28 6.5 -40.5t23.5 -12.5
q21 0 32 17l22 -50q-26 -28 -67 -28z" />
    <glyph glyph-name="Tbar" unicode="&#x166;" horiz-adv-x="322" 
d="M199 0h-76v298h-75v45h75v257h-105v67h286v-67h-105v-257h73v-45h-73v-298z" />
    <glyph glyph-name="tbar" unicode="&#x167;" horiz-adv-x="233" 
d="M156 -12q-45 0 -65.5 25t-20.5 79v137h-49v45h49v149h-49v60h49v132h69v-132h65v-60h-65v-149h33v-45h-33v-127q0 -28 6.5 -40.5t23.5 -12.5q21 0 32 17l22 -50q-26 -28 -67 -28z" />
    <glyph glyph-name="Utilde" unicode="&#x168;" horiz-adv-x="437" 
d="M218 -12q-70 0 -112.5 46t-42.5 138v495h75v-498q0 -114 80 -114q81 0 81 114v498h75v-495q0 -92 -43 -138t-113 -46zM259 721q-24 0 -38 23.5t-23.5 47.5t-21.5 24q-31 0 -31 -89h-39q0 59 18.5 96.5t54.5 37.5q24 0 38 -23.5t24 -47.5t22 -24q30 0 30 89h39
q0 -59 -18.5 -96.5t-54.5 -37.5z" />
    <glyph glyph-name="utilde" unicode="&#x169;" 
d="M322 0h-68v66q-17 -34 -45.5 -56t-62.5 -22q-48 0 -69 25t-21 80v390h68v-372q0 -62 46 -62q26 0 49 22.5t35 54.5v357h68v-483zM228 554q-24 0 -38 24t-23.5 47.5t-21.5 23.5q-31 0 -31 -89h-39q0 59 18.5 96.5t54.5 37.5q19 0 32 -15t19 -32.5t14.5 -32.5t18.5 -15
q30 0 30 89h39q0 -59 -18.5 -96.5t-54.5 -37.5z" />
    <glyph glyph-name="Umacron" unicode="&#x16a;" horiz-adv-x="437" 
d="M218 -12q-70 0 -112.5 46t-42.5 138v495h75v-498q0 -114 80 -114q81 0 81 114v498h75v-495q0 -92 -43 -138t-113 -46zM342 740h-248v45h248v-45z" />
    <glyph glyph-name="umacron" unicode="&#x16b;" 
d="M322 0h-68v66q-17 -34 -45.5 -56t-62.5 -22q-48 0 -69 25t-21 80v390h68v-372q0 -62 46 -62q26 0 49 22.5t35 54.5v357h68v-483zM313 573h-248v45h248v-45z" />
    <glyph glyph-name="Ubreve" unicode="&#x16c;" horiz-adv-x="437" 
d="M218 -12q-70 0 -112.5 46t-42.5 138v495h75v-498q0 -114 80 -114q81 0 81 114v498h75v-495q0 -92 -43 -138t-113 -46zM338 780q-45 -61 -119 -61t-119 61l36 28q13 -20 36 -32t47 -12q55 0 83 44z" />
    <glyph glyph-name="ubreve" unicode="&#x16d;" 
d="M322 0h-68v66q-17 -34 -45.5 -56t-62.5 -22q-48 0 -69 25t-21 80v390h68v-372q0 -62 46 -62q26 0 49 22.5t35 54.5v357h68v-483zM308 613q-45 -61 -119 -61t-119 61l36 28q13 -20 36 -32t47 -12q55 0 83 44z" />
    <glyph glyph-name="Uring" unicode="&#x16e;" horiz-adv-x="437" 
d="M219 704q-34 0 -58.5 24.5t-24.5 59.5q0 34 24.5 58t58.5 24t58 -24t24 -58q0 -35 -24 -59.5t-58 -24.5zM219 740q20 0 33.5 14t13.5 34q0 19 -14 32.5t-33 13.5t-33 -13.5t-14 -32.5q0 -20 13.5 -34t33.5 -14zM218 -12q-70 0 -112.5 46t-42.5 138v495h75v-498
q0 -114 80 -114q81 0 81 114v498h75v-495q0 -92 -43 -138t-113 -46z" />
    <glyph glyph-name="uring" unicode="&#x16f;" 
d="M189 545q-34 0 -58.5 24.5t-24.5 59.5q0 34 24.5 58t58.5 24t58 -24t24 -58q0 -35 -24 -59.5t-58 -24.5zM189 581q20 0 33.5 14t13.5 34q0 19 -14 32.5t-33 13.5t-33 -13.5t-14 -32.5q0 -20 13.5 -34t33.5 -14zM322 0h-68v66q-17 -34 -45.5 -56t-62.5 -22q-48 0 -69 25
t-21 80v390h68v-372q0 -62 46 -62q26 0 49 22.5t35 54.5v357h68v-483z" />
    <glyph glyph-name="Uhungarumlaut" unicode="&#x170;" horiz-adv-x="437" 
d="M218 -12q-70 0 -112.5 46t-42.5 138v495h75v-498q0 -114 80 -114q81 0 81 114v498h75v-495q0 -92 -43 -138t-113 -46zM247 867l-77 -144h-38l56 144h59zM364 867l-78 -144h-38l56 144h60z" />
    <glyph glyph-name="uhungarumlaut" unicode="&#x171;" 
d="M322 0h-68v66q-17 -34 -45.5 -56t-62.5 -22q-48 0 -69 25t-21 80v390h68v-372q0 -62 46 -62q26 0 49 22.5t35 54.5v357h68v-483zM218 700l-77 -144h-38l56 144h59zM335 700l-78 -144h-38l56 144h60z" />
    <glyph glyph-name="Uogonek" unicode="&#x172;" horiz-adv-x="437" 
d="M278 -115l35 -18q-16 -53 -68 -53q-32 0 -51 19.5t-19 56.5q0 54 39 98q-68 2 -109.5 47.5t-41.5 136.5v495h75v-498q0 -114 80 -114q81 0 81 114v498h75v-495q0 -135 -91 -172q-66 -44 -66 -108q0 -41 29 -41q26 0 32 34z" />
    <glyph glyph-name="uogonek" unicode="&#x173;" 
d="M322 0q-66 -44 -66 -108q0 -41 29 -41q26 0 32 34l35 -18q-16 -53 -68 -53q-32 0 -51 19.5t-19 56.5q0 58 50 110h-10v66q-17 -34 -45.5 -56t-62.5 -22q-48 0 -69 25t-21 80v390h68v-372q0 -62 46 -62q26 0 49 22.5t35 54.5v357h68v-483z" />
    <glyph glyph-name="Wcircumflex" unicode="&#x174;" horiz-adv-x="548" 
d="M374 723h-41l-60 105l-57 -105h-42l66 144h66zM424 0h-80l-70 514l-70 -514h-79l-107 667h78l71 -531l75 531h64l76 -531l70 531h78z" />
    <glyph glyph-name="wcircumflex" unicode="&#x175;" horiz-adv-x="541" 
d="M371 556h-41l-60 105l-57 -105h-42l66 144h66zM423 0h-71l-81 389l-82 -389h-71l-105 483h72l72 -387l77 387h70l79 -387l73 387h72z" />
    <glyph glyph-name="Ycircumflex" unicode="&#x176;" horiz-adv-x="372" 
d="M286 723h-41l-60 105l-57 -105h-42l66 144h66zM224 0h-75v283l-150 384h82l105 -307l107 307h80l-149 -384v-283z" />
    <glyph glyph-name="ycircumflex" unicode="&#x177;" horiz-adv-x="326" 
d="M33 -189l11 60q10 -6 24 -6q17 0 26 10t16 35l19 75l-120 498h74l79 -396l82 396h72l-143 -589q-14 -51 -36.5 -70.5t-61.5 -19.5q-26 0 -42 7zM266 556h-41l-60 105l-57 -105h-42l66 144h66z" />
    <glyph glyph-name="Ydieresis" unicode="&#x178;" horiz-adv-x="372" 
d="M303 770q0 -18 -13 -30.5t-31 -12.5q-17 0 -30 12.5t-13 30.5t13 30.5t30 12.5q18 0 31 -12.5t13 -30.5zM162 770q0 -18 -13 -30.5t-31 -12.5q-17 0 -30 12.5t-13 30.5t13 30.5t30 12.5q18 0 31 -12.5t13 -30.5zM224 0h-75v283l-150 384h82l105 -307l107 307h80
l-149 -384v-283z" />
    <glyph glyph-name="Zacute" unicode="&#x179;" horiz-adv-x="340" 
d="M279 867l-100 -144h-46l79 144h67zM307 0h-274v66l184 534h-184v67h267v-63l-186 -537h193v-67z" />
    <glyph glyph-name="zacute" unicode="&#x17a;" horiz-adv-x="303" 
d="M260 700l-100 -144h-46l79 144h67zM268 0h-234v54l151 369h-151v60h230v-52l-150 -371h154v-60z" />
    <glyph glyph-name="Zdotaccent" unicode="&#x17b;" horiz-adv-x="340" 
d="M307 0h-274v66l184 534h-184v67h267v-63l-186 -537h193v-67zM169 724q-18 0 -31 13t-13 31t13 31t31 13t31 -13t13 -31t-13 -31t-31 -13z" />
    <glyph glyph-name="zdotaccent" unicode="&#x17c;" horiz-adv-x="303" 
d="M268 0h-234v54l151 369h-151v60h230v-52l-150 -371h154v-60zM150 557q-18 0 -31 13t-13 31t13 31t31 13t31 -13t13 -31t-13 -31t-31 -13z" />
    <glyph glyph-name="Zcaron" unicode="&#x17d;" horiz-adv-x="340" 
d="M205 723h-66l-69 144h42l60 -105l57 105h41zM307 0h-274v66l184 534h-184v67h267v-63l-186 -537h193v-67z" />
    <glyph glyph-name="zcaron" unicode="&#x17e;" horiz-adv-x="303" 
d="M184 556h-66l-69 144h42l60 -105l57 105h41zM268 0h-234v54l151 369h-151v60h230v-52l-150 -371h154v-60z" />
    <glyph glyph-name="longs" unicode="&#x17f;" horiz-adv-x="224" 
d="M139 0h-69v423h-47v60h47v81q0 53 27 83t76 30q43 0 69 -27l-24 -54q-16 20 -35 20q-44 0 -44 -52v-564z" />
    <glyph glyph-name="florin" unicode="&#x192;" horiz-adv-x="364" 
d="M99 -161h-77l92 417h-47v62h61l56 252q10 48 45 77.5t80 29.5q43 0 65 -25l-30 -56q-10 14 -30 14q-44 0 -57 -56l-52 -236h90v-62h-104z" />
    <glyph glyph-name="Ohorn" unicode="&#x1a0;" horiz-adv-x="434" 
d="M217 -12q-61 0 -101 48t-56.5 122.5t-16.5 174.5t16.5 174.5t56.5 122.5t101 48q90 0 134 -102q32 32 37 69l-4 -1h-6q-16 0 -27 11.5t-11 28.5t11.5 29.5t29.5 12.5q20 0 34 -17t14 -45q0 -74 -64 -125q26 -82 26 -206q0 -154 -42.5 -249.5t-131.5 -95.5zM217 56
q50 0 73 77t23 200q0 124 -23 200.5t-73 76.5q-96 0 -96 -277t96 -277z" />
    <glyph glyph-name="ohorn" unicode="&#x1a1;" horiz-adv-x="382" 
d="M368 530q0 -67 -56 -118q32 -67 32 -170q0 -110 -37.5 -182t-115.5 -72t-116 72t-38 182q0 109 38 181t116 72q62 0 101 -51q30 32 35 67l-4 -1h-6q-16 0 -27 11.5t-11 28.5t11.5 29.5t29.5 12.5q20 0 34 -17t14 -45zM191 49q82 0 82 193q0 192 -82 192t-82 -192
q0 -193 82 -193z" />
    <glyph glyph-name="Uhorn" unicode="&#x1af;" horiz-adv-x="437" 
d="M467 729q0 -41 -24 -80.5t-69 -65.5v-411q0 -92 -43 -138t-113 -46t-112.5 46t-42.5 138v495h75v-498q0 -114 80 -114q81 0 81 114v498h75v-41q21 15 35.5 39.5t16.5 44.5q-2 -2 -10 -2q-16 0 -27 12t-11 29t11.5 29t29.5 12q20 0 34 -16.5t14 -44.5z" />
    <glyph glyph-name="uhorn" unicode="&#x1b0;" 
d="M322 0h-68v66q-17 -34 -45.5 -56t-62.5 -22q-48 0 -69 25t-21 80v390h68v-372q0 -62 46 -62q26 0 49 22.5t35 54.5v357h68v-33q31 34 34 66h-4q-4 -1 -6 -1q-16 0 -27 11.5t-11 28.5t11.5 29t29.5 12q20 0 34 -16t14 -44q0 -80 -75 -134v-402z" />
    <glyph glyph-name="AEacute" unicode="&#x1fc;" horiz-adv-x="554" 
d="M411 867l-100 -144h-46l79 144h67zM511 0h-248v153h-125l-47 -153h-77l217 667h280v-67h-172v-225h165v-67h-165v-241h172v-67zM263 220v357l-107 -357h107z" />
    <glyph glyph-name="aeacute" unicode="&#x1fd;" horiz-adv-x="584" 
d="M394 700l-100 -144h-46l79 144h67zM551 219h-228q1 -80 26.5 -127t74.5 -47q46 0 77 58l40 -36q-49 -79 -125 -79q-48 0 -75.5 23t-48.5 67q-39 -90 -125 -90q-64 0 -99 43t-35 116t34.5 117t92.5 44q64 0 97 -57v80q0 105 -78 105q-53 0 -98 -51l-29 49q55 61 131 61
q46 0 74.5 -23.5t36.5 -62.5q34 86 110 86q75 0 111 -70.5t36 -182.5v-23zM323 270h160q0 69 -18 118.5t-61 49.5q-30 0 -49.5 -29t-25.5 -64t-6 -75zM257 168v25q-26 65 -79 65q-34 0 -54.5 -29t-20.5 -79q0 -51 20 -79t55 -28t57 34.5t22 90.5z" />
    <glyph glyph-name="Oslashacute" unicode="&#x1fe;" horiz-adv-x="434" 
d="M326 867l-100 -144h-46l79 144h67zM217 -12q-58 0 -99 44l-13 -32h-52l33 80q-43 90 -43 253q0 100 16.5 174.5t56.5 122.5t101 48q57 0 99 -45l14 34h51l-34 -82q44 -89 44 -252q0 -154 -42.5 -249.5t-131.5 -95.5zM121 333q0 -85 10 -145l151 365q-24 57 -65 57
q-96 0 -96 -277zM217 56q50 0 73 77t23 200q0 85 -10 145l-152 -366q24 -56 66 -56z" />
    <glyph glyph-name="oslashacute" unicode="&#x1ff;" horiz-adv-x="382" 
d="M300 700l-100 -144h-46l79 144h67zM91 0h-45l29 58q-38 68 -38 184q0 109 38 181t116 72q51 0 88 -35l12 23h45l-30 -59q38 -69 38 -182q0 -110 -37.5 -182t-115.5 -72q-53 0 -88 35zM109 242q0 -61 8 -102l130 256q-21 38 -56 38q-82 0 -82 -192zM191 49q82 0 82 193
q0 55 -9 100l-129 -255q19 -38 56 -38z" />
    <glyph glyph-name="Scommaaccent" unicode="&#x218;" horiz-adv-x="354" 
d="M225 -138q0 -39 -20 -74.5t-50 -57.5l-31 25q23 16 39.5 40.5t17.5 46.5h-4q-4 -1 -6 -1q-17 0 -28.5 12t-11.5 30t12.5 31t30.5 13q21 0 36 -17.5t15 -47.5zM163 -12q-87 0 -143 61l38 60q18 -24 45.5 -38.5t55.5 -14.5q37 0 62 28.5t25 74.5q0 42 -21.5 76t-52 60
t-61 53.5t-52 69.5t-21.5 95q0 72 43.5 118.5t110.5 46.5q72 0 119 -47l-33 -58q-34 37 -85 37q-33 0 -55.5 -26t-22.5 -68q0 -35 21.5 -66.5t51.5 -58t60.5 -56t52 -73.5t21.5 -99q0 -77 -44 -126t-115 -49z" />
    <glyph glyph-name="scommaaccent" unicode="&#x219;" horiz-adv-x="310" 
d="M209 -138q0 -39 -20 -74.5t-50 -57.5l-31 25q23 16 39.5 40.5t17.5 46.5h-4q-4 -1 -6 -1q-17 0 -28.5 12t-11.5 30t12.5 31t30.5 13q21 0 36 -17.5t15 -47.5zM152 -12q-86 0 -131 61l33 47q40 -52 93 -52q30 0 50.5 19.5t20.5 52.5q0 25 -13.5 46t-33.5 34.5t-44 31
t-44 35t-33.5 46.5t-13.5 66q0 52 35.5 86t92.5 34q70 0 115 -54l-32 -46q-31 44 -82 44q-29 0 -46.5 -18t-17.5 -44q0 -28 18.5 -50.5t45.5 -40t54 -37.5t45.5 -53.5t18.5 -77.5q0 -58 -37.5 -94t-93.5 -36z" />
    <glyph glyph-name="uni021A" unicode="&#x21a;" horiz-adv-x="322" 
d="M216 -138q0 -39 -20 -74.5t-50 -57.5l-31 25q23 16 39.5 40.5t17.5 46.5h-4q-4 -1 -6 -1q-17 0 -28.5 12t-11.5 30t12.5 31t30.5 13q21 0 36 -17.5t15 -47.5zM199 0h-76v600h-105v67h286v-67h-105v-600z" />
    <glyph glyph-name="uni021B" unicode="&#x21b;" horiz-adv-x="233" 
d="M171 -138q0 -39 -20 -74.5t-50 -57.5l-31 25q23 16 39.5 40.5t17.5 46.5h-4q-4 -1 -6 -1q-17 0 -28.5 12t-11.5 30t12.5 31t30.5 13q21 0 36 -17.5t15 -47.5zM156 -12q-45 0 -65.5 25t-20.5 79v331h-49v60h49v132h69v-132h65v-60h-65v-321q0 -28 6.5 -40.5t23.5 -12.5
q21 0 32 17l22 -50q-26 -28 -67 -28z" />
    <glyph glyph-name="uni0237" unicode="&#x237;" horiz-adv-x="180" 
d="M27 -196q-40 0 -58 31l26 49q8 -19 28 -19q33 0 33 64v554h68v-554q0 -67 -24 -96t-73 -29z" />
    <glyph glyph-name="hsuperior" unicode="&#x2b0;" horiz-adv-x="287" 
d="M242 326h-53v233q0 44 -34 44q-35 0 -57 -50v-227h-53v434h53v-163q11 21 33 36t44 15q67 0 67 -74v-248z" />
    <glyph glyph-name="uni02BC" unicode="&#x2bc;" horiz-adv-x="228" 
d="M170 604q0 -43 -22 -82.5t-56 -62.5l-35 28q24 16 42 42.5t21 50.5q-4 -2 -12 -2q-20 0 -33.5 14t-13.5 34q0 21 14.5 36t36.5 15q24 0 41 -19.5t17 -53.5z" />
    <glyph glyph-name="circumflex" unicode="&#x2c6;" horiz-adv-x="200" 
d="M200 556h-41l-60 105l-57 -105h-42l66 144h66z" />
    <glyph glyph-name="caron" unicode="&#x2c7;" horiz-adv-x="200" 
d="M135 556h-66l-69 144h42l60 -105l57 105h41z" />
    <glyph glyph-name="uni02C9" unicode="&#x2c9;" horiz-adv-x="248" 
d="M248 591h-248v45h248v-45z" />
    <glyph glyph-name="uni02CB" unicode="&#x2cb;" horiz-adv-x="146" 
d="M146 556h-46l-100 144h67z" />
    <glyph glyph-name="breve" unicode="&#x2d8;" horiz-adv-x="238" 
d="M238 613q-45 -61 -119 -61t-119 61l36 28q13 -20 36 -32t47 -12q55 0 83 44z" />
    <glyph glyph-name="dotaccent" unicode="&#x2d9;" horiz-adv-x="104" 
d="M52 557q-18 0 -31 13t-13 31t13 31t31 13t31 -13t13 -31t-13 -31t-31 -13z" />
    <glyph glyph-name="ring" unicode="&#x2da;" horiz-adv-x="165" 
d="M83 545q-34 0 -58.5 24.5t-24.5 59.5q0 34 24.5 58t58.5 24t58 -24t24 -58q0 -35 -24 -59.5t-58 -24.5zM83 581q20 0 33.5 14t13.5 34q0 19 -14 32.5t-33 13.5t-33 -13.5t-14 -32.5q0 -20 13.5 -34t33.5 -14z" />
    <glyph glyph-name="ogonek" unicode="&#x2db;" horiz-adv-x="138" 
d="M103 -115l35 -18q-16 -53 -68 -53q-32 0 -51 19.5t-19 56.5q0 75 76 132l32 -22q-66 -44 -66 -108q0 -41 29 -41q26 0 32 34z" />
    <glyph glyph-name="tilde" unicode="&#x2dc;" horiz-adv-x="226" 
d="M153 554q-24 0 -38 24t-23.5 47.5t-21.5 23.5q-31 0 -31 -89h-39q0 59 18.5 96.5t54.5 37.5q19 0 32 -15t19 -32.5t14.5 -32.5t18.5 -15q30 0 30 89h39q0 -59 -18.5 -96.5t-54.5 -37.5z" />
    <glyph glyph-name="hungarumlaut" unicode="&#x2dd;" horiz-adv-x="232" 
d="M115 700l-77 -144h-38l56 144h59zM232 700l-78 -144h-38l56 144h60z" />
    <glyph glyph-name="hookabovecomb" unicode="&#x309;" horiz-adv-x="138" 
d="M44 736l-31 7q11 47 57 47q25 0 40 -15.5t15 -45.5q0 -32 -20 -62h-34q22 29 22 61t-23 32q-20 0 -26 -24z" />
    <glyph glyph-name="uni037E" unicode="&#x37e;" horiz-adv-x="227" 
d="M114 387q-22 0 -37.5 15.5t-15.5 35.5q0 22 15.5 37t37.5 15q21 0 36 -15t15 -37q0 -20 -15 -35.5t-36 -15.5zM170 22q0 -43 -22 -82.5t-56 -63.5l-35 29q24 16 42 42.5t21 49.5q-1 0 -5.5 -0.5t-6.5 -0.5q-20 0 -33.5 13.5t-13.5 34.5t14.5 36t36.5 15q24 0 41 -20
t17 -53z" />
    <glyph glyph-name="tonos" unicode="&#x384;" horiz-adv-x="195" 
d="M136 567h-35l18 198h73z" />
    <glyph glyph-name="dieresistonos" unicode="&#x385;" 
d="M197 567h-35l18 198h73zM348 603q0 -18 -13 -30.5t-31 -12.5t-30.5 12.5t-12.5 30.5t12.5 30.5t30.5 12.5t31 -12.5t13 -30.5zM117 603q0 -18 -12.5 -30.5t-30.5 -12.5t-31 12.5t-13 30.5t13 30.5t31 12.5t30.5 -12.5t12.5 -30.5z" />
    <glyph glyph-name="Alphatonos" unicode="&#x386;" horiz-adv-x="364" 
d="M69 567h-35l18 198h73zM357 0h-77l-27 153h-142l-27 -153h-77l131 667h87zM244 220l-62 357l-62 -357h124z" />
    <glyph glyph-name="Epsilontonos" unicode="&#x388;" horiz-adv-x="376" 
d="M27 567h-35l18 198h73zM334 0h-248v667h248v-67h-173v-225h166v-67h-166v-241h173v-67z" />
    <glyph glyph-name="Etatonos" unicode="&#x389;" horiz-adv-x="460" 
d="M27 567h-35l18 198h73zM396 0h-75v309h-160v-309h-75v667h75v-290h160v290h75v-667z" />
    <glyph glyph-name="Iotatonos" unicode="&#x38a;" horiz-adv-x="225" 
d="M27 567h-35l18 198h73zM161 0h-75v667h75v-667z" />
    <glyph glyph-name="Omicrontonos" unicode="&#x38c;" horiz-adv-x="445" 
d="M47 567h-35l18 198h73zM228 -12q-61 0 -101 48t-56.5 122.5t-16.5 174.5t16.5 174.5t56.5 122.5t101 48q89 0 131.5 -95.5t42.5 -249.5t-42.5 -249.5t-131.5 -95.5zM228 56q50 0 73 77t23 200q0 124 -23 200.5t-73 76.5q-96 0 -96 -277t96 -277z" />
    <glyph glyph-name="Upsilontonos" unicode="&#x38e;" horiz-adv-x="436" 
d="M20 567h-35l18 198h73zM288 0h-75v283l-150 384h82l105 -307l107 307h80l-149 -384v-283z" />
    <glyph glyph-name="Omegatonos" unicode="&#x38f;" horiz-adv-x="432" 
d="M47 567h-35l18 198h73zM58 67h73q-83 90 -83 279q0 156 44 244t131 88t130.5 -88t43.5 -244q0 -188 -84 -279h74v-67h-132v67q24 24 43.5 92t19.5 174q0 276 -95 276q-97 0 -97 -276q0 -106 19.5 -174t44.5 -92v-67h-132v67z" />
    <glyph glyph-name="iotadieresistonos" unicode="&#x390;" horiz-adv-x="190" 
d="M103 567h-35l18 198h73zM254 603q0 -18 -13 -30.5t-31 -12.5t-30.5 12.5t-12.5 30.5t12.5 30.5t30.5 12.5t31 -12.5t13 -30.5zM23 603q0 -18 -12.5 -30.5t-30.5 -12.5t-31 12.5t-13 30.5t13 30.5t31 12.5t30.5 -12.5t12.5 -30.5zM141 -12q-45 0 -65 25t-20 79v391h68
v-384q0 -50 31 -50q8 0 14 1l5 -58q-14 -4 -33 -4z" />
    <glyph glyph-name="Alpha" unicode="&#x391;" horiz-adv-x="364" 
d="M357 0h-77l-27 153h-142l-27 -153h-77l131 667h87zM244 220l-62 357l-62 -357h124z" />
    <glyph glyph-name="Beta" unicode="&#x392;" horiz-adv-x="403" 
d="M213 0h-150v667h144q69 0 106.5 -46t37.5 -124q0 -122 -87 -153q42 -7 69 -55t27 -109q0 -85 -36.5 -132.5t-110.5 -47.5zM192 375q81 0 81 112q0 113 -81 113h-54v-225h54zM196 67q86 0 86 120q0 52 -21.5 86.5t-64.5 34.5h-58v-241h58z" />
    <glyph glyph-name="Gamma" unicode="&#x393;" horiz-adv-x="351" 
d="M138 0h-75v667h248v-67h-173v-600z" />
    <glyph glyph-name="uni0394" unicode="&#x394;" horiz-adv-x="393" 
d="M387 0h-380l146 667h88zM299 67l-103 510l-101 -510h204z" />
    <glyph glyph-name="Epsilon" unicode="&#x395;" horiz-adv-x="352" 
d="M311 0h-248v667h248v-67h-173v-225h166v-67h-166v-241h173v-67z" />
    <glyph glyph-name="Zeta" unicode="&#x396;" horiz-adv-x="340" 
d="M307 0h-274v66l184 534h-184v67h267v-63l-186 -537h193v-67z" />
    <glyph glyph-name="Eta" unicode="&#x397;" horiz-adv-x="436" 
d="M373 0h-75v309h-160v-309h-75v667h75v-290h160v290h75v-667z" />
    <glyph glyph-name="Theta" unicode="&#x398;" horiz-adv-x="434" 
d="M286 308h-139v67h139v-67zM217 -12q-61 0 -101 48t-56.5 122.5t-16.5 174.5t16.5 174.5t56.5 122.5t101 48q89 0 131.5 -95.5t42.5 -249.5t-42.5 -249.5t-131.5 -95.5zM217 56q50 0 73 77t23 200q0 124 -23 200.5t-73 76.5q-96 0 -96 -277t96 -277z" />
    <glyph glyph-name="Iota" unicode="&#x399;" horiz-adv-x="201" 
d="M138 0h-75v667h75v-667z" />
    <glyph glyph-name="Kappa" unicode="&#x39a;" horiz-adv-x="418" 
d="M407 0h-87l-137 289l-45 -86v-203h-75v667h75v-347l171 347h85l-169 -317z" />
    <glyph glyph-name="Lambda" unicode="&#x39b;" horiz-adv-x="364" 
d="M357 0h-77l-98 577l-98 -577h-77l131 667h87z" />
    <glyph glyph-name="Mu" unicode="&#x39c;" horiz-adv-x="558" 
d="M495 0h-74v499l-127 -499h-30l-126 499v-499h-75v667h102l114 -447l116 447h100v-667z" />
    <glyph glyph-name="Nu" unicode="&#x39d;" horiz-adv-x="436" 
d="M373 0h-72l-163 462v-462h-75v667h75l160 -453v453h75v-667z" />
    <glyph glyph-name="Xi" unicode="&#x39e;" horiz-adv-x="371" 
d="M329 600h-287v67h287v-67zM329 0h-287v67h287v-67zM322 308h-273v67h273v-67z" />
    <glyph glyph-name="Omicron" unicode="&#x39f;" horiz-adv-x="434" 
d="M217 -12q-61 0 -101 48t-56.5 122.5t-16.5 174.5t16.5 174.5t56.5 122.5t101 48q89 0 131.5 -95.5t42.5 -249.5t-42.5 -249.5t-131.5 -95.5zM217 56q50 0 73 77t23 200q0 124 -23 200.5t-73 76.5q-96 0 -96 -277t96 -277z" />
    <glyph glyph-name="Pi" unicode="&#x3a0;" horiz-adv-x="436" 
d="M373 0h-75v600h-160v-600h-75v667h310v-667z" />
    <glyph glyph-name="Rho" unicode="&#x3a1;" horiz-adv-x="387" 
d="M138 0h-75v667h137q78 0 118.5 -56.5t40.5 -142.5t-40.5 -142.5t-118.5 -56.5h-62v-269zM193 336q43 0 65.5 36t22.5 96t-22.5 96t-65.5 36h-55v-264h55z" />
    <glyph glyph-name="Sigma" unicode="&#x3a3;" horiz-adv-x="326" 
d="M120 600l115 -256l-117 -277h175v-67h-251v70l116 274l-116 256v67h251v-67h-173z" />
    <glyph glyph-name="Tau" unicode="&#x3a4;" horiz-adv-x="322" 
d="M199 0h-76v600h-105v67h286v-67h-105v-600z" />
    <glyph glyph-name="Upsilon" unicode="&#x3a5;" horiz-adv-x="372" 
d="M224 0h-75v283l-150 384h82l105 -307l107 307h80l-149 -384v-283z" />
    <glyph glyph-name="Phi" unicode="&#x3a6;" horiz-adv-x="585" 
d="M330 0h-76v66q-108 12 -159.5 85.5t-51.5 181.5t51.5 181.5t159.5 85.5v67h76v-67q108 -11 160 -85t52 -182t-52 -182t-160 -85v-66zM464 333q0 79 -32.5 132.5t-101.5 65.5v-396q69 11 101.5 65t32.5 133zM121 333q0 -175 133 -198v396q-133 -23 -133 -198z" />
    <glyph glyph-name="Chi" unicode="&#x3a7;" horiz-adv-x="368" 
d="M365 0h-84l-97 268l-97 -268h-83l137 339l-130 328h84l89 -257l89 257h84l-130 -327z" />
    <glyph glyph-name="Psi" unicode="&#x3a8;" horiz-adv-x="592" 
d="M334 0h-75v126q-90 9 -143 63t-53 154v324h76v-323q0 -135 120 -151v474h75v-474q120 16 120 151v323h75v-323q0 -100 -53 -154.5t-142 -63.5v-126z" />
    <glyph glyph-name="uni03A9" unicode="&#x3a9;" horiz-adv-x="419" 
d="M45 67h73q-83 90 -83 279q0 156 44 244t131 88t130.5 -88t43.5 -244q0 -188 -84 -279h74v-67h-132v67q24 24 43.5 92t19.5 174q0 276 -95 276q-97 0 -97 -276q0 -106 19.5 -174t44.5 -92v-67h-132v67z" />
    <glyph glyph-name="Iotadieresis" unicode="&#x3aa;" horiz-adv-x="201" 
d="M138 0h-75v667h75v-667zM215 787q0 -18 -13 -30.5t-31 -12.5q-17 0 -30 12.5t-13 30.5t13 30.5t30 12.5q18 0 31 -12.5t13 -30.5zM74 787q0 -18 -13 -30.5t-31 -12.5q-17 0 -30 12.5t-13 30.5t13 30.5t30 12.5q18 0 31 -12.5t13 -30.5z" />
    <glyph glyph-name="Upsilondieresis" unicode="&#x3ab;" horiz-adv-x="372" 
d="M224 0h-75v283l-150 384h82l105 -307l107 307h80l-149 -384v-283zM300 787q0 -18 -13 -30.5t-31 -12.5q-17 0 -30 12.5t-13 30.5t13 30.5t30 12.5q18 0 31 -12.5t13 -30.5zM159 787q0 -18 -13 -30.5t-31 -12.5q-17 0 -30 12.5t-13 30.5t13 30.5t30 12.5q18 0 31 -12.5
t13 -30.5z" />
    <glyph glyph-name="alphatonos" unicode="&#x3ac;" horiz-adv-x="393" 
d="M207 567h-35l18 198h73zM372 50l6 -58q-14 -4 -33 -4q-41 0 -60 20.5t-23 60.5q-14 -36 -40 -58.5t-53 -22.5q-66 0 -99 68.5t-33 184.5q0 115 33 184.5t99 69.5q26 0 51.5 -20.5t39.5 -58.5v67h68v-384q0 -50 30 -50q9 0 14 1zM186 49q23 0 44.5 24t29.5 56v223
q-8 33 -29.5 57.5t-44.5 24.5q-77 0 -77 -193q0 -192 77 -192z" />
    <glyph glyph-name="epsilontonos" unicode="&#x3ad;" horiz-adv-x="350" 
d="M186 567h-35l18 198h73zM186 -12q-70 0 -109.5 40.5t-39.5 100.5q0 46 27 78t67 39q-40 9 -64 44t-24 75q0 59 42 94.5t110 35.5q85 0 131 -77l-41 -39q-30 60 -90 60q-38 0 -61 -21.5t-23 -59.5q0 -40 22 -62.5t58 -22.5h70v-57h-72q-84 0 -84 -81q0 -41 22.5 -66
t60.5 -25q68 0 102 61l41 -38q-49 -79 -145 -79z" />
    <glyph glyph-name="etatonos" unicode="&#x3ae;" 
d="M199 567h-35l18 198h73zM322 -184h-68v555q0 63 -46 63q-26 0 -49 -23t-35 -56v-355h-68v483h68v-68q16 34 46.5 57t61.5 23q90 0 90 -105v-574z" />
    <glyph glyph-name="iotatonos" unicode="&#x3af;" horiz-adv-x="190" 
d="M106 567h-35l18 198h73zM141 -12q-45 0 -65 25t-20 79v391h68v-384q0 -50 31 -50q8 0 14 1l5 -58q-14 -4 -33 -4z" />
    <glyph glyph-name="upsilondieresistonos" unicode="&#x3b0;" horiz-adv-x="380" 
d="M198 567h-35l18 198h73zM349 603q0 -18 -13 -30.5t-31 -12.5t-30.5 12.5t-12.5 30.5t12.5 30.5t30.5 12.5t31 -12.5t13 -30.5zM118 603q0 -18 -12.5 -30.5t-30.5 -12.5t-31 12.5t-13 30.5t13 30.5t31 12.5t30.5 -12.5t12.5 -30.5zM189 -12q-66 0 -99.5 44.5t-33.5 121.5
v329h68v-329q0 -105 65 -105q82 0 82 200q0 116 -53 221l64 25q61 -117 61 -246q0 -115 -37.5 -188t-116.5 -73z" />
    <glyph glyph-name="alpha" unicode="&#x3b1;" horiz-adv-x="393" 
d="M372 50l6 -58q-14 -4 -33 -4q-41 0 -60 20.5t-23 60.5q-14 -36 -40 -58.5t-53 -22.5q-66 0 -99 68.5t-33 184.5q0 115 33 184.5t99 69.5q26 0 51.5 -20.5t39.5 -58.5v67h68v-384q0 -50 30 -50q9 0 14 1zM186 49q23 0 44.5 24t29.5 56v223q-8 33 -29.5 57.5t-44.5 24.5
q-77 0 -77 -193q0 -192 77 -192z" />
    <glyph glyph-name="beta" unicode="&#x3b2;" horiz-adv-x="384" 
d="M124 460v-331q9 -33 31 -56.5t47 -23.5q35 0 53.5 37.5t18.5 89.5q0 67 -24 101.5t-58 34.5h-17v60h15q34 0 53.5 31.5t19.5 89.5q0 123 -62 123q-77 0 -77 -156zM124 65v-249h-68v644q0 116 40.5 166.5t105.5 50.5q62 0 97 -44t35 -133q0 -56 -20.5 -98.5t-62.5 -56.5
q42 -11 69 -59t27 -119q0 -79 -34.5 -129t-93.5 -50q-28 0 -53.5 20.5t-41.5 56.5z" />
    <glyph glyph-name="gamma" unicode="&#x3b3;" horiz-adv-x="326" 
d="M197 -184h-69v147q0 295 -129 520h76q91 -189 99 -380q28 75 45 178t17 202h68q0 -118 -29 -244t-78 -233v-190z" />
    <glyph glyph-name="delta" unicode="&#x3b4;" horiz-adv-x="382" 
d="M193 -12q-79 0 -117.5 61.5t-38.5 151.5q0 133 98 227q-66 59 -66 131q0 52 35.5 86t92.5 34q69 0 115 -54l-32 -46q-30 44 -82 44q-29 0 -46.5 -18t-17.5 -44q0 -29 21.5 -55.5t52.5 -51.5t62 -56t52.5 -82.5t21.5 -117.5q0 -88 -36.5 -149t-114.5 -61zM280 197
q0 66 -25.5 108t-72.5 82q-73 -71 -73 -185q0 -63 19.5 -108t64.5 -45q46 0 66.5 44t20.5 104z" />
    <glyph glyph-name="epsilon" unicode="&#x3b5;" horiz-adv-x="350" 
d="M186 -12q-70 0 -109.5 40.5t-39.5 100.5q0 46 27 78t67 39q-40 9 -64 44t-24 75q0 59 42 94.5t110 35.5q85 0 131 -77l-41 -39q-30 60 -90 60q-38 0 -61 -21.5t-23 -59.5q0 -40 22 -62.5t58 -22.5h70v-57h-72q-84 0 -84 -81q0 -41 22.5 -66t60.5 -25q68 0 102 61l41 -38
q-49 -79 -145 -79z" />
    <glyph glyph-name="zeta" unicode="&#x3b6;" horiz-adv-x="317" 
d="M225 -45q0 18 -7 25.5t-26 7.5q-71 0 -113 58.5t-42 136.5q0 242 181 424h-173v60h241v-52q-177 -194 -177 -422q0 -56 24 -100t75 -44q80 0 80 -79q0 -55 -42 -127h-65q44 71 44 112z" />
    <glyph glyph-name="eta" unicode="&#x3b7;" 
d="M322 -184h-68v555q0 63 -46 63q-26 0 -49 -23t-35 -56v-355h-68v483h68v-68q16 34 46.5 57t61.5 23q90 0 90 -105v-574z" />
    <glyph glyph-name="theta" unicode="&#x3b8;" horiz-adv-x="382" 
d="M191 -12q-154 0 -154 346q0 345 154 345q153 0 153 -345q0 -346 -153 -346zM191 49q44 0 62 63.5t20 192.5h-164q2 -130 20 -193t62 -63zM191 618q-44 0 -62 -63t-20 -190h164q-2 127 -20 190t-62 63z" />
    <glyph glyph-name="iota" unicode="&#x3b9;" horiz-adv-x="190" 
d="M141 -12q-45 0 -65 25t-20 79v391h68v-384q0 -50 31 -50q8 0 14 1l5 -58q-14 -4 -33 -4z" />
    <glyph glyph-name="kappa" unicode="&#x3ba;" horiz-adv-x="361" 
d="M345 0h-74l-91 219l-56 -96v-123h-68v483h68v-267l148 267h74l-122 -216z" />
    <glyph glyph-name="lambda" unicode="&#x3bb;" horiz-adv-x="326" 
d="M44 612l-11 60q16 7 42 7q39 0 61.5 -19.5t36.5 -70.5l143 -589h-72l-82 396l-79 -396h-74l120 498l-19 75q-7 25 -16 35t-26 10q-14 0 -24 -6z" />
    <glyph glyph-name="uni03BC" unicode="&#x3bc;" horiz-adv-x="387" 
d="M124 8v-192h-68v667h68v-372q0 -64 49 -64q26 0 47.5 23t33.5 56v357h68v-384q0 -26 6.5 -38t23.5 -12q9 0 14 1l6 -58q-14 -4 -33 -4q-39 0 -59 20.5t-25 63.5q-30 -84 -86 -84q-29 0 -45 20z" />
    <glyph glyph-name="nu" unicode="&#x3bd;" horiz-adv-x="326" 
d="M194 0h-69l-116 483h74l82 -405q71 183 71 405h68q0 -119 -30 -247.5t-80 -235.5z" />
    <glyph glyph-name="xi" unicode="&#x3be;" horiz-adv-x="317" 
d="M192 -12q-71 0 -113 54.5t-42 130.5q0 60 27 104t68 57q-43 13 -65 52.5t-22 89.5q0 83 71 131h-67v60h227v-60h-110q-52 -38 -52 -114q0 -57 24 -88.5t61 -31.5h70v-60h-70q-39 0 -64.5 -32.5t-25.5 -98.5q0 -50 24 -91.5t75 -41.5q80 0 80 -79q0 -55 -42 -127h-65
q44 71 44 112q0 18 -7 25.5t-26 7.5z" />
    <glyph glyph-name="omicron" unicode="&#x3bf;" horiz-adv-x="382" 
d="M191 -12q-78 0 -116 72t-38 182q0 109 38 181t116 72t115.5 -71.5t37.5 -181.5t-37.5 -182t-115.5 -72zM191 49q82 0 82 193q0 192 -82 192t-82 -192q0 -193 82 -193z" />
    <glyph glyph-name="pi" unicode="&#x3c0;" horiz-adv-x="406" 
d="M336 0h-68v423h-129v-423h-69v423h-49v60h364v-60h-49v-423z" />
    <glyph glyph-name="rho" unicode="&#x3c1;" horiz-adv-x="384" 
d="M215 -12q-26 0 -51.5 20.5t-39.5 58.5v-251h-68v426q0 109 35.5 181t108.5 72q74 0 110.5 -70.5t36.5 -182.5q0 -115 -33 -184.5t-99 -69.5zM198 49q77 0 77 193q0 192 -75 192q-76 0 -76 -192v-112q9 -33 30.5 -57t43.5 -24z" />
    <glyph glyph-name="sigma1" unicode="&#x3c2;" horiz-adv-x="310" 
d="M190 -12q-70 0 -111.5 72t-41.5 182q0 111 41.5 182t117.5 71q59 0 99 -44l-28 -52q-28 35 -62 35q-49 0 -72.5 -55t-23.5 -137t23.5 -137.5t72.5 -55.5q43 0 62 -19.5t19 -59.5q0 -53 -42 -127h-63q45 70 45 112q0 18 -8 25.5t-28 7.5z" />
    <glyph glyph-name="sigma" unicode="&#x3c3;" horiz-adv-x="382" 
d="M342 225q0 -99 -37 -168t-114 -69q-76 0 -115 72t-39 182q0 66 15 118t54.5 87.5t99.5 35.5h161v-61h-85q60 -75 60 -197zM273 230q0 136 -57 192h-10q-97 0 -97 -180q0 -193 82 -193q44 0 63 52.5t19 128.5z" />
    <glyph glyph-name="tau" unicode="&#x3c4;" horiz-adv-x="269" 
d="M185 -12q-45 0 -65 25t-20 79v331h-85v60h239v-60h-86v-321q0 -28 7 -40.5t24 -12.5q20 0 32 17l22 -50q-26 -28 -68 -28z" />
    <glyph glyph-name="upsilon" unicode="&#x3c5;" horiz-adv-x="380" 
d="M189 -12q-66 0 -99.5 44.5t-33.5 121.5v329h68v-329q0 -105 65 -105q82 0 82 200q0 116 -53 221l64 25q61 -117 61 -246q0 -115 -37.5 -188t-116.5 -73z" />
    <glyph glyph-name="phi" unicode="&#x3c6;" horiz-adv-x="531" 
d="M493 242q0 -101 -47.5 -171t-145.5 -81v-174h-69v174q-98 11 -146 81.5t-48 172.5q0 184 130 251l31 -53q-89 -50 -89 -198q0 -171 122 -192v443h34q60 0 105.5 -20.5t71.5 -56.5t38.5 -80t12.5 -96zM422 242q0 77 -29 130t-93 60v-380q122 22 122 190z" />
    <glyph glyph-name="chi" unicode="&#x3c7;" horiz-adv-x="326" 
d="M313 -184h-71l-79 267l-80 -267h-71l109 337l-103 330h70l75 -259l74 259h70l-103 -330z" />
    <glyph glyph-name="psi" unicode="&#x3c8;" horiz-adv-x="531" 
d="M300 -184h-69v174q-175 17 -175 227v266h68v-266q0 -84 26.5 -121.5t80.5 -44.5v616h69v-616q53 7 80 45t27 121v266h68v-266q0 -211 -175 -227v-174z" />
    <glyph glyph-name="omega" unicode="&#x3c9;" horiz-adv-x="576" 
d="M538 242q0 -111 -34 -182.5t-101 -71.5q-45 0 -74.5 30t-40.5 85q-11 -55 -41 -85t-74 -30q-46 0 -77.5 35.5t-45 91.5t-13.5 127q0 77 29 150.5t81 102.5l46 -41q-44 -27 -64 -88.5t-20 -124.5q0 -192 72 -192q73 0 73 193v123h68v-123q0 -193 73 -193q71 0 71 193
q0 63 -20 124t-64 88l47 41q52 -29 80.5 -102.5t28.5 -150.5z" />
    <glyph glyph-name="iotadieresis" unicode="&#x3ca;" horiz-adv-x="190" 
d="M209 603q0 -18 -13 -30.5t-31 -12.5q-17 0 -30 12.5t-13 30.5t13 30.5t30 12.5q18 0 31 -12.5t13 -30.5zM68 603q0 -18 -13 -30.5t-31 -12.5q-17 0 -30 12.5t-13 30.5t13 30.5t30 12.5q18 0 31 -12.5t13 -30.5zM141 -12q-45 0 -65 25t-20 79v391h68v-384q0 -50 31 -50
q8 0 14 1l5 -58q-14 -4 -33 -4z" />
    <glyph glyph-name="upsilondieresis" unicode="&#x3cb;" horiz-adv-x="380" 
d="M304 603q0 -18 -13 -30.5t-31 -12.5q-17 0 -30 12.5t-13 30.5t13 30.5t30 12.5q18 0 31 -12.5t13 -30.5zM163 603q0 -18 -13 -30.5t-31 -12.5q-17 0 -30 12.5t-13 30.5t13 30.5t30 12.5q18 0 31 -12.5t13 -30.5zM189 -12q-66 0 -99.5 44.5t-33.5 121.5v329h68v-329
q0 -105 65 -105q82 0 82 200q0 116 -53 221l64 25q61 -117 61 -246q0 -115 -37.5 -188t-116.5 -73z" />
    <glyph glyph-name="omicrontonos" unicode="&#x3cc;" horiz-adv-x="382" 
d="M201 567h-35l18 198h73zM191 -12q-78 0 -116 72t-38 182q0 109 38 181t116 72t115.5 -71.5t37.5 -181.5t-37.5 -182t-115.5 -72zM191 49q82 0 82 193q0 192 -82 192t-82 -192q0 -193 82 -193z" />
    <glyph glyph-name="upsilontonos" unicode="&#x3cd;" horiz-adv-x="380" 
d="M200 567h-35l18 198h73zM189 -12q-66 0 -99.5 44.5t-33.5 121.5v329h68v-329q0 -105 65 -105q82 0 82 200q0 116 -53 221l64 25q61 -117 61 -246q0 -115 -37.5 -188t-116.5 -73z" />
    <glyph glyph-name="omegatonos" unicode="&#x3ce;" horiz-adv-x="576" 
d="M298 567h-35l18 198h73zM538 242q0 -111 -34 -182.5t-101 -71.5q-45 0 -74.5 30t-40.5 85q-11 -55 -41 -85t-74 -30q-46 0 -77.5 35.5t-45 91.5t-13.5 127q0 77 29 150.5t81 102.5l46 -41q-44 -27 -64 -88.5t-20 -124.5q0 -192 72 -192q73 0 73 193v123h68v-123
q0 -193 73 -193q71 0 71 193q0 63 -20 124t-64 88l47 41q52 -29 80.5 -102.5t28.5 -150.5z" />
    <glyph glyph-name="afii10023" unicode="&#x401;" horiz-adv-x="352" 
d="M301 770q0 -18 -13 -30.5t-31 -12.5q-17 0 -30 12.5t-13 30.5t13 30.5t30 12.5q18 0 31 -12.5t13 -30.5zM160 770q0 -18 -13 -30.5t-31 -12.5q-17 0 -30 12.5t-13 30.5t13 30.5t30 12.5q18 0 31 -12.5t13 -30.5zM311 0h-248v667h248v-67h-173v-225h166v-67h-166v-241h173
v-67z" />
    <glyph glyph-name="afii10051" unicode="&#x402;" horiz-adv-x="476" 
d="M274 -12v68q85 0 85 117v53q0 59 -27.5 95.5t-75.5 36.5q-35 0 -57 -7v-351h-76v600h-105v67h286v-67h-105v-182q35 7 67 7q81 0 125 -57t44 -142v-53q0 -97 -44.5 -141t-116.5 -44z" />
    <glyph glyph-name="afii10052" unicode="&#x403;" horiz-adv-x="351" 
d="M297 867l-100 -144h-46l79 144h67zM138 0h-75v667h248v-67h-173v-600z" />
    <glyph glyph-name="afii10053" unicode="&#x404;" horiz-adv-x="390" 
d="M217 -12q-89 0 -131.5 94.5t-42.5 250.5t42.5 250.5t131.5 94.5q99 0 138 -128l-62 -24q-13 43 -29.5 63.5t-46.5 20.5q-88 0 -95 -235h182v-67h-183q3 -252 96 -252q33 0 50.5 26.5t27.5 74.5l63 -23q-34 -146 -141 -146z" />
    <glyph glyph-name="afii10054" unicode="&#x405;" horiz-adv-x="354" 
d="M163 -12q-87 0 -143 61l38 60q18 -24 45.5 -38.5t55.5 -14.5q37 0 62 28.5t25 74.5q0 42 -21.5 76t-52 60t-61 53.5t-52 69.5t-21.5 95q0 72 43.5 118.5t110.5 46.5q72 0 119 -47l-33 -58q-34 37 -85 37q-33 0 -55.5 -26t-22.5 -68q0 -35 21.5 -66.5t51.5 -58t60.5 -56
t52 -73.5t21.5 -99q0 -77 -44 -126t-115 -49z" />
    <glyph glyph-name="afii10055" unicode="&#x406;" horiz-adv-x="201" 
d="M138 0h-75v667h75v-667z" />
    <glyph glyph-name="afii10056" unicode="&#x407;" horiz-adv-x="201" 
d="M138 0h-75v667h75v-667zM215 770q0 -18 -13 -30.5t-31 -12.5q-17 0 -30 12.5t-13 30.5t13 30.5t30 12.5q18 0 31 -12.5t13 -30.5zM74 770q0 -18 -13 -30.5t-31 -12.5q-17 0 -30 12.5t-13 30.5t13 30.5t30 12.5q18 0 31 -12.5t13 -30.5z" />
    <glyph glyph-name="afii10057" unicode="&#x408;" horiz-adv-x="321" 
d="M113 -12q-63 0 -106 46l28 60q28 -38 71 -38q78 0 78 89v522h75v-525q0 -78 -39 -116t-107 -38z" />
    <glyph glyph-name="afii10058" unicode="&#x409;" horiz-adv-x="622" 
d="M19 -12v68q27 0 43 15.5t28.5 70.5t19.5 161l23 364h240v-269h62q79 0 119 -56.5t40 -142.5t-40 -142.5t-119 -56.5h-137v600h-94l-20 -302q-6 -99 -20 -163t-36.5 -95t-47 -41.5t-61.5 -10.5zM428 331h-55v-264h55q43 0 65.5 36t22.5 96t-22.5 96t-65.5 36z" />
    <glyph glyph-name="afii10059" unicode="&#x40a;" horiz-adv-x="622" 
d="M63 0v667h75v-290h160v290h75v-290h62q79 0 119 -53.5t40 -135.5t-40 -135t-119 -53h-137v309h-160v-309h-75zM373 67h55q44 0 66 33t22 89q0 55 -22.5 87.5t-65.5 32.5h-55v-242z" />
    <glyph glyph-name="afii10060" unicode="&#x40b;" horiz-adv-x="476" 
d="M352 0v226q0 60 -24 96t-72 36q-35 0 -57 -7v-351h-76v600h-105v67h286v-67h-105v-182q35 7 67 7q80 0 120.5 -56t40.5 -143v-226h-75z" />
    <glyph glyph-name="afii10061" unicode="&#x40c;" horiz-adv-x="418" 
d="M318 867l-100 -144h-46l79 144h67zM407 0h-87l-137 289l-45 -86v-203h-75v667h75v-347l171 347h85l-169 -317z" />
    <glyph glyph-name="afii10062" unicode="&#x40e;" horiz-adv-x="372" 
d="M79 -12q-44 0 -82 23l21 64q21 -18 53 -18q38 0 52 46l23 78l-147 486h80l107 -367l108 367h79l-179 -587q-29 -92 -115 -92zM304 780q-45 -61 -119 -61t-119 61l36 28q13 -20 36 -32t47 -12q55 0 83 44z" />
    <glyph glyph-name="afii10145" unicode="&#x40f;" horiz-adv-x="436" 
d="M63 0v667h75v-600h160v600h75v-667h-117v-129h-76v129h-117z" />
    <glyph glyph-name="afii10017" unicode="&#x410;" horiz-adv-x="364" 
d="M357 0h-77l-27 153h-142l-27 -153h-77l131 667h87zM244 220l-62 357l-62 -357h124z" />
    <glyph glyph-name="afii10018" unicode="&#x411;" horiz-adv-x="387" 
d="M63 667h262v-67h-187v-202h62q78 0 118.5 -56.5t40.5 -142.5t-40.5 -142.5t-118.5 -56.5h-137v667zM193 331h-55v-264h55q43 0 65.5 36t22.5 96t-22.5 96t-65.5 36z" />
    <glyph glyph-name="afii10019" unicode="&#x412;" horiz-adv-x="403" 
d="M213 0h-150v667h144q69 0 106.5 -46t37.5 -124q0 -122 -87 -153q42 -7 69 -55t27 -109q0 -85 -36.5 -132.5t-110.5 -47.5zM192 375q81 0 81 112q0 113 -81 113h-54v-225h54zM196 67q86 0 86 120q0 52 -21.5 86.5t-64.5 34.5h-58v-241h58z" />
    <glyph glyph-name="afii10020" unicode="&#x413;" horiz-adv-x="351" 
d="M138 0h-75v667h248v-67h-173v-600z" />
    <glyph glyph-name="afii10021" unicode="&#x414;" horiz-adv-x="455" 
d="M17 -123v183q29 5 44 18.5t29 70t21 167.5l22 351h240v-600h60v-190h-76v123h-265v-123h-75zM185 309q-12 -181 -64 -242h177v533h-94z" />
    <glyph glyph-name="afii10022" unicode="&#x415;" horiz-adv-x="352" 
d="M311 0h-248v667h248v-67h-173v-225h166v-67h-166v-241h173v-67z" />
    <glyph glyph-name="afii10024" unicode="&#x416;" horiz-adv-x="574" 
d="M94 0h-87l181 350l-168 317h84l145 -294v294h76v-294l145 294h84l-168 -317l181 -350h-87l-137 289l-18 -35v-254h-76v254l-18 35z" />
    <glyph glyph-name="afii10025" unicode="&#x417;" horiz-adv-x="390" 
d="M187 -12q-54 0 -95 31.5t-63 80.5l56 41q37 -85 99 -85q85 0 85 129q0 63 -26.5 93t-64.5 30h-74v68h69q40 0 64 29t24 84q0 120 -80 120q-57 0 -90 -78l-55 38q23 52 63.5 80t88.5 28q70 0 111 -44t41 -133q0 -55 -27 -98.5t-77 -57.5q51 -9 81 -54.5t30 -109.5
q0 -87 -41 -139.5t-119 -52.5z" />
    <glyph glyph-name="afii10026" unicode="&#x418;" horiz-adv-x="436" 
d="M135 0h-72v667h76v-471l159 471h75v-667h-75v480z" />
    <glyph glyph-name="afii10027" unicode="&#x419;" horiz-adv-x="436" 
d="M135 0h-72v667h76v-471l159 471h75v-667h-75v480zM336 780q-45 -61 -119 -61t-119 61l36 28q13 -20 36 -32t47 -12q55 0 83 44z" />
    <glyph glyph-name="afii10028" unicode="&#x41a;" horiz-adv-x="418" 
d="M407 0h-87l-137 289l-45 -86v-203h-75v667h75v-347l171 347h85l-169 -317z" />
    <glyph glyph-name="afii10029" unicode="&#x41b;" horiz-adv-x="436" 
d="M19 -12v68q27 0 43 15.5t28.5 70.5t19.5 162l23 363h240v-667h-75v600h-94l-20 -302q-6 -99 -20 -163t-36.5 -95t-47 -41.5t-61.5 -10.5z" />
    <glyph glyph-name="afii10030" unicode="&#x41c;" horiz-adv-x="558" 
d="M495 0h-74v499l-127 -499h-30l-126 499v-499h-75v667h102l114 -447l116 447h100v-667z" />
    <glyph glyph-name="afii10031" unicode="&#x41d;" horiz-adv-x="436" 
d="M373 0h-75v309h-160v-309h-75v667h75v-290h160v290h75v-667z" />
    <glyph glyph-name="afii10032" unicode="&#x41e;" horiz-adv-x="434" 
d="M217 -12q-61 0 -101 48t-56.5 122.5t-16.5 174.5t16.5 174.5t56.5 122.5t101 48q89 0 131.5 -95.5t42.5 -249.5t-42.5 -249.5t-131.5 -95.5zM217 56q50 0 73 77t23 200q0 124 -23 200.5t-73 76.5q-96 0 -96 -277t96 -277z" />
    <glyph glyph-name="afii10033" unicode="&#x41f;" horiz-adv-x="436" 
d="M373 0h-75v600h-160v-600h-75v667h310v-667z" />
    <glyph glyph-name="afii10034" unicode="&#x420;" horiz-adv-x="387" 
d="M138 0h-75v667h137q78 0 118.5 -56.5t40.5 -142.5t-40.5 -142.5t-118.5 -56.5h-62v-269zM193 336q43 0 65.5 36t22.5 96t-22.5 96t-65.5 36h-55v-264h55z" />
    <glyph glyph-name="afii10035" unicode="&#x421;" horiz-adv-x="390" 
d="M217 -12q-89 0 -131.5 94.5t-42.5 250.5t42.5 250.5t131.5 94.5q99 0 138 -128l-62 -24q-13 43 -29.5 63.5t-46.5 20.5q-96 0 -96 -277t96 -277q33 0 50.5 26.5t27.5 74.5l63 -23q-34 -146 -141 -146z" />
    <glyph glyph-name="afii10036" unicode="&#x422;" horiz-adv-x="322" 
d="M199 0h-76v600h-105v67h286v-67h-105v-600z" />
    <glyph glyph-name="afii10037" unicode="&#x423;" horiz-adv-x="372" 
d="M79 -12q-44 0 -82 23l21 64q21 -18 53 -18q38 0 52 46l23 78l-147 486h80l107 -367l108 367h79l-179 -587q-29 -92 -115 -92z" />
    <glyph glyph-name="afii10038" unicode="&#x424;" horiz-adv-x="585" 
d="M330 0h-76v66q-108 12 -159.5 85.5t-51.5 181.5t51.5 181.5t159.5 85.5v67h76v-67q108 -11 160 -85t52 -182t-52 -182t-160 -85v-66zM464 333q0 79 -32.5 132.5t-101.5 65.5v-396q69 11 101.5 65t32.5 133zM121 333q0 -175 133 -198v396q-133 -23 -133 -198z" />
    <glyph glyph-name="afii10039" unicode="&#x425;" horiz-adv-x="368" 
d="M365 0h-84l-97 268l-97 -268h-83l137 339l-130 328h84l89 -257l89 257h84l-130 -327z" />
    <glyph glyph-name="afii10040" unicode="&#x426;" horiz-adv-x="455" 
d="M357 -123v123h-294v667h75v-600h160v600h75v-600h60v-190h-76z" />
    <glyph glyph-name="afii10041" unicode="&#x427;" horiz-adv-x="415" 
d="M124 667v-199q0 -61 24 -96.5t72 -35.5q33 0 57 7v324h75v-667h-75v276q-29 -7 -67 -7q-80 0 -121 56.5t-41 142.5v199h76z" />
    <glyph glyph-name="afii10042" unicode="&#x428;" horiz-adv-x="629" 
d="M491 667h75v-667h-502v667h75v-600h138v600h76v-600h138v600z" />
    <glyph glyph-name="afii10043" unicode="&#x429;" horiz-adv-x="648" 
d="M491 667h75v-600h60v-190h-76v123h-486v667h75v-600h138v600h76v-600h138v600z" />
    <glyph glyph-name="afii10044" unicode="&#x42a;" horiz-adv-x="448" 
d="M260 0h-137v600h-105v67h181v-269h61q79 0 119.5 -56.5t40.5 -142.5t-40.5 -142.5t-119.5 -56.5zM254 331h-55v-264h55q43 0 65 36t22 96t-22 96t-65 36z" />
    <glyph glyph-name="afii10045" unicode="&#x42b;" horiz-adv-x="563" 
d="M63 667h75v-269h62q78 0 118.5 -56.5t40.5 -142.5t-40.5 -142.5t-118.5 -56.5h-137v667zM193 331h-55v-264h55q43 0 65.5 36t22.5 96t-22.5 96t-65.5 36zM500 0h-75v667h75v-667z" />
    <glyph glyph-name="afii10046" unicode="&#x42c;" horiz-adv-x="387" 
d="M63 667h75v-269h62q78 0 118.5 -56.5t40.5 -142.5t-40.5 -142.5t-118.5 -56.5h-137v667zM193 331h-55v-264h55q43 0 65.5 36t22.5 96t-22.5 96t-65.5 36z" />
    <glyph glyph-name="afii10047" unicode="&#x42d;" horiz-adv-x="390" 
d="M173 -12q-107 0 -141 146l63 23q10 -48 27.5 -74.5t50.5 -26.5q91 0 96 252h-183v67h182q-9 235 -95 235q-30 0 -46.5 -20.5t-29.5 -63.5l-62 24q39 128 138 128q89 0 131.5 -94.5t42.5 -250.5t-42.5 -250.5t-131.5 -94.5z" />
    <glyph glyph-name="afii10048" unicode="&#x42e;" horiz-adv-x="613" 
d="M396 -12q-86 0 -128.5 88t-45.5 233h-84v-309h-75v667h75v-290h85q6 137 48 219t125 82q61 0 101 -48t56.5 -122.5t16.5 -174.5t-16.5 -174.5t-56.5 -122.5t-101 -48zM396 56q96 0 96 277t-96 277q-50 0 -73 -76.5t-23 -200.5q0 -123 23 -200t73 -77z" />
    <glyph glyph-name="afii10049" unicode="&#x42f;" horiz-adv-x="409" 
d="M126 0h-82l99 286q-37 14 -65 59t-28 125q0 90 44 143.5t113 53.5h139v-667h-75v269h-58zM216 336h55v264h-55q-43 0 -65.5 -36t-22.5 -96t22.5 -96t65.5 -36z" />
    <glyph glyph-name="afii10065" unicode="&#x430;" horiz-adv-x="376" 
d="M320 0h-69v48q-16 -30 -41.5 -45t-52.5 -15q-56 0 -90 44.5t-34 116.5q0 71 34 115t90 44q27 0 52.5 -14.5t41.5 -42.5v80q0 53 -17 79t-58 26q-51 0 -95 -51l-29 49q55 61 135 61q133 0 133 -151v-344zM176 38q51 0 75 63v92q-24 65 -75 65q-36 0 -54.5 -31.5
t-18.5 -78.5t18.5 -78.5t54.5 -31.5z" />
    <glyph glyph-name="afii10066" unicode="&#x431;" horiz-adv-x="382" 
d="M190 49q82 0 82 194q0 191 -82 191q-81 0 -81 -191q0 -194 81 -194zM190 -12q-78 0 -115.5 74.5t-37.5 201.5q0 193 29 261t132 93q36 9 50.5 20.5t14.5 28.5h68q0 -48 -31 -72t-86 -38q-62 -15 -89 -47t-31 -96q12 33 39 57t67 24q72 0 108 -71.5t36 -180.5t-38.5 -182
t-115.5 -73z" />
    <glyph glyph-name="afii10067" unicode="&#x432;" horiz-adv-x="373" 
d="M195 0h-139v483h134q65 0 99 -33t34 -90q0 -86 -74 -109q37 -10 60 -44t23 -76q0 -61 -34 -96t-103 -35zM183 55q78 0 78 82q0 35 -19.5 59t-58.5 24h-59v-165h59zM179 276q72 0 72 76t-72 76h-55v-152h55z" />
    <glyph glyph-name="afii10068" unicode="&#x433;" horiz-adv-x="291" 
d="M269 483v-60h-145v-423h-68v483h213z" />
    <glyph glyph-name="afii10069" unicode="&#x434;" horiz-adv-x="397" 
d="M19 -123v176q22 3 34 12.5t23 46.5t16 108l17 263h213v-423h54v-183h-68v123h-221v-123h-68zM174 423l-14 -208q-7 -115 -47 -155h141v363h-80z" />
    <glyph glyph-name="afii10070" unicode="&#x435;" horiz-adv-x="373" 
d="M205 -12q-83 0 -125.5 70t-42.5 184q0 112 39 182.5t115 70.5q77 0 113 -69.5t36 -182.5v-24h-234q0 -80 27 -127t77 -47q47 0 80 58l41 -36q-51 -79 -126 -79zM272 270q0 69 -19 118.5t-64 49.5q-31 0 -51 -29.5t-26 -64t-6 -74.5h166z" />
    <glyph glyph-name="afii10072" unicode="&#x436;" horiz-adv-x="473" 
d="M90 0h-74l121 267l-122 216h74l113 -206v206h69v-206l113 206h74l-122 -216l121 -267h-74l-91 219l-21 -37v-182h-69v182l-21 37z" />
    <glyph glyph-name="afii10073" unicode="&#x437;" horiz-adv-x="350" 
d="M165 -12q-98 0 -145 79l40 38q36 -61 102 -61q39 0 61 25t22 66q0 81 -84 81h-72v57h70q37 0 59 22.5t22 62.5q0 38 -23 59.5t-61 21.5q-60 0 -91 -60l-41 39q46 77 132 77q67 0 109 -35.5t42 -94.5q0 -40 -24 -75t-64 -44q40 -7 67 -39t27 -78q0 -61 -39 -101t-109 -40z
" />
    <glyph glyph-name="afii10074" unicode="&#x438;" 
d="M127 0h-71v483h68v-334l124 334h74v-483h-68v342z" />
    <glyph glyph-name="afii10075" unicode="&#x439;" 
d="M127 0h-71v483h68v-334l124 334h74v-483h-68v342zM308 613q-45 -61 -119 -61t-119 61l36 28q13 -20 36 -32t47 -12q55 0 83 44z" />
    <glyph glyph-name="afii10076" unicode="&#x43a;" horiz-adv-x="361" 
d="M345 0h-74l-91 219l-56 -96v-123h-68v483h68v-267l148 267h74l-122 -216z" />
    <glyph glyph-name="afii10077" unicode="&#x43b;" 
d="M19 -12v61q32 0 49 34t24 137l17 263h213v-483h-68v423h-80l-14 -208q-8 -131 -42.5 -179t-98.5 -48z" />
    <glyph glyph-name="afii10078" unicode="&#x43c;" horiz-adv-x="479" 
d="M423 0h-67v349l-101 -349h-31l-100 349v-349h-68v483h90l94 -323l95 323h88v-483z" />
    <glyph glyph-name="afii10079" unicode="&#x43d;" 
d="M124 0h-68v483h68v-201h130v201h68v-483h-68v222h-130v-222z" />
    <glyph glyph-name="afii10080" unicode="&#x43e;" horiz-adv-x="382" 
d="M191 -12q-78 0 -116 72t-38 182q0 109 38 181t116 72t115.5 -71.5t37.5 -181.5t-37.5 -182t-115.5 -72zM191 49q82 0 82 193q0 192 -82 192t-82 -192q0 -193 82 -193z" />
    <glyph glyph-name="afii10081" unicode="&#x43f;" 
d="M322 0h-68v423h-130v-423h-68v483h266v-483z" />
    <glyph glyph-name="afii10082" unicode="&#x440;" horiz-adv-x="384" 
d="M215 -12q-26 0 -51.5 20.5t-39.5 58.5v-251h-68v667h68v-65q15 36 40.5 56.5t50.5 20.5q66 0 99 -68.5t33 -184.5q0 -115 -33 -184.5t-99 -69.5zM198 49q77 0 77 193q0 192 -77 192q-23 0 -44 -23.5t-30 -56.5v-224q9 -33 30.5 -57t43.5 -24z" />
    <glyph glyph-name="afii10083" unicode="&#x441;" horiz-adv-x="317" 
d="M196 -12q-75 0 -117 71t-42 183q0 111 41.5 182t117.5 71q59 0 99 -44l-28 -52q-28 35 -62 35q-49 0 -72.5 -55t-23.5 -137t23.5 -137.5t72.5 -55.5q34 0 62 35l28 -52q-36 -44 -99 -44z" />
    <glyph glyph-name="afii10084" unicode="&#x442;" horiz-adv-x="277" 
d="M173 0h-69v423h-82v60h233v-60h-82v-423z" />
    <glyph glyph-name="afii10085" unicode="&#x443;" horiz-adv-x="326" 
d="M33 -189l11 60q10 -6 24 -6q17 0 26 10t16 35l19 75l-120 498h74l79 -396l82 396h72l-143 -589q-14 -51 -36.5 -70.5t-61.5 -19.5q-26 0 -42 7z" />
    <glyph glyph-name="afii10086" unicode="&#x444;" horiz-adv-x="560" 
d="M162 495q25 0 47.5 -19.5t36.5 -56.5v248h68v-247q14 35 37 55t46 20q60 0 90 -68.5t30 -184.5q0 -115 -30 -184.5t-90 -69.5q-24 0 -47 19.5t-36 57.5v-249h-68v248q-14 -37 -37 -56.5t-47 -19.5q-59 0 -89 69t-30 185q0 115 30 184t89 69zM181 434q-67 0 -67 -192
q0 -193 69 -193q20 0 37.5 23.5t25.5 56.5v224q-8 33 -26.5 57t-38.5 24zM376 49q36 0 53 54t17 139q0 192 -68 192q-20 0 -38 -23.5t-26 -56.5v-224q8 -33 25.5 -57t36.5 -24z" />
    <glyph glyph-name="afii10087" unicode="&#x445;" horiz-adv-x="326" 
d="M313 0h-73l-77 191l-78 -191h-73l109 244l-103 239h73l72 -184l72 184h72l-103 -239z" />
    <glyph glyph-name="afii10088" unicode="&#x446;" horiz-adv-x="397" 
d="M308 -123v123h-252v483h68v-423h130v423h68v-423h54v-183h-68z" />
    <glyph glyph-name="afii10089" unicode="&#x447;" horiz-adv-x="367" 
d="M45 483h69v-170q0 -33 13.5 -48t44.5 -15q42 0 71 23v210h68v-483h-68v220q-38 -31 -90 -31q-59 0 -83.5 25.5t-24.5 79.5v189z" />
    <glyph glyph-name="afii10090" unicode="&#x448;" horiz-adv-x="548" 
d="M424 483h68v-483h-436v483h68v-423h116v423h68v-423h116v423z" />
    <glyph glyph-name="afii10091" unicode="&#x449;" horiz-adv-x="567" 
d="M424 483h68v-423h54v-183h-68v123h-422v483h68v-423h116v423h68v-423h116v423z" />
    <glyph glyph-name="afii10092" unicode="&#x44a;" horiz-adv-x="407" 
d="M228 0h-124v423h-82v60h151v-190h55q71 0 108 -41.5t37 -105.5q0 -63 -37 -104.5t-108 -41.5zM221 237h-48v-181h48q39 0 59.5 24.5t20.5 65.5t-20 66t-60 25z" />
    <glyph glyph-name="afii10093" unicode="&#x44b;" horiz-adv-x="512" 
d="M56 483h68v-190h56q71 0 107.5 -42t36.5 -105t-37 -104.5t-107 -41.5h-124v483zM173 237h-49v-181h49q39 0 59.5 24.5t20.5 65.5t-20.5 66t-59.5 25zM456 0h-69v483h69v-483z" />
    <glyph glyph-name="afii10094" unicode="&#x44c;" horiz-adv-x="358" 
d="M56 483h68v-190h56q71 0 107.5 -42t36.5 -105t-37 -104.5t-107 -41.5h-124v483zM173 237h-49v-181h49q39 0 59.5 24.5t20.5 65.5t-20.5 66t-59.5 25z" />
    <glyph glyph-name="afii10095" unicode="&#x44d;" horiz-adv-x="317" 
d="M121 -12q-63 0 -99 44l28 48q29 -35 63 -35q44 0 67.5 48t27.5 122h-147v60h147q-5 72 -28 117.5t-67 45.5q-34 0 -63 -35l-28 48q40 44 99 44q76 0 117.5 -71t41.5 -182q0 -112 -42 -183t-117 -71z" />
    <glyph glyph-name="afii10096" unicode="&#x44e;" horiz-adv-x="543" 
d="M352 -12q-75 0 -113 66t-41 168h-74v-222h-68v483h68v-201h75q7 94 44.5 153.5t108.5 59.5q78 0 115.5 -71.5t37.5 -181.5t-37.5 -182t-115.5 -72zM352 49q81 0 81 193q0 192 -81 192q-82 0 -82 -192q0 -193 82 -193z" />
    <glyph glyph-name="afii10097" unicode="&#x44f;" 
d="M118 0h-78l87 204q-34 11 -57.5 45t-23.5 88q0 64 38 105t106 41h132v-483h-68v190h-61zM198 246h56v181h-56q-40 0 -60.5 -24.5t-20.5 -65.5t20.5 -66t60.5 -25z" />
    <glyph glyph-name="afii10071" unicode="&#x451;" horiz-adv-x="373" 
d="M305 603q0 -18 -13 -30.5t-31 -12.5q-17 0 -30 12.5t-13 30.5t13 30.5t30 12.5q18 0 31 -12.5t13 -30.5zM164 603q0 -18 -13 -30.5t-31 -12.5q-17 0 -30 12.5t-13 30.5t13 30.5t30 12.5q18 0 31 -12.5t13 -30.5zM205 -12q-83 0 -125.5 70t-42.5 184q0 112 39 182.5
t115 70.5q77 0 113 -69.5t36 -182.5v-24h-234q0 -80 27 -127t77 -47q47 0 80 58l41 -36q-51 -79 -126 -79zM272 270q0 69 -19 118.5t-64 49.5q-31 0 -51 -29.5t-26 -64t-6 -74.5h166z" />
    <glyph glyph-name="afii10099" unicode="&#x452;" horiz-adv-x="392" 
d="M255 536h-116v-121q16 33 46 56.5t61 23.5q90 0 90 -105v-461q0 -67 -24 -96t-73 -29q-40 0 -59 31l27 49q8 -19 27 -19q34 0 34 64v442q0 63 -46 63q-25 0 -48 -23t-35 -56v-355h-69v536h-49v45h49v86h69v-86h116v-45z" />
    <glyph glyph-name="afii10100" unicode="&#x453;" horiz-adv-x="291" 
d="M272 700l-100 -144h-46l79 144h67zM269 483v-60h-145v-423h-68v483h213z" />
    <glyph glyph-name="afii10101" unicode="&#x454;" horiz-adv-x="317" 
d="M196 -12q-75 0 -117 71t-42 183q0 111 41.5 182t117.5 71q59 0 99 -44l-28 -48q-28 35 -62 35q-44 0 -67.5 -45.5t-27.5 -117.5h146v-60h-146q3 -74 26.5 -122t68.5 -48q34 0 62 35l28 -48q-36 -44 -99 -44z" />
    <glyph glyph-name="afii10102" unicode="&#x455;" horiz-adv-x="309" 
d="M152 -12q-86 0 -131 61l33 47q40 -52 93 -52q30 0 50.5 19.5t20.5 52.5q0 25 -13.5 46t-33.5 34.5t-44 31t-44 35t-33.5 46.5t-13.5 66q0 52 35.5 86t92.5 34q70 0 115 -54l-32 -46q-31 44 -82 44q-29 0 -46.5 -18t-17.5 -44q0 -28 18.5 -50.5t45.5 -40t54 -37.5
t45.5 -53.5t18.5 -77.5q0 -58 -37.5 -94t-93.5 -36z" />
    <glyph glyph-name="afii10103" unicode="&#x456;" horiz-adv-x="180" 
d="M90 554q-19 0 -33 14t-14 33t14 33.5t33 14.5q20 0 34 -14.5t14 -33.5t-14 -33t-34 -14zM124 0h-68v483h68v-483z" />
    <glyph glyph-name="afii10104" unicode="&#x457;" horiz-adv-x="180" 
d="M204 603q0 -18 -13 -30.5t-31 -12.5q-17 0 -30 12.5t-13 30.5t13 30.5t30 12.5q18 0 31 -12.5t13 -30.5zM63 603q0 -18 -13 -30.5t-31 -12.5q-17 0 -30 12.5t-13 30.5t13 30.5t30 12.5q18 0 31 -12.5t13 -30.5zM124 0h-68v483h68v-483z" />
    <glyph glyph-name="afii10105" unicode="&#x458;" horiz-adv-x="180" 
d="M90 554q-19 0 -33 14t-14 33t14 33.5t33 14.5q20 0 34 -14.5t14 -33.5t-14 -33t-34 -14zM27 -196q-40 0 -58 31l26 49q8 -19 28 -19q33 0 33 64v554h68v-554q0 -67 -24 -96t-73 -29z" />
    <glyph glyph-name="afii10106" unicode="&#x459;" horiz-adv-x="557" 
d="M19 -12v61q32 0 49 34t24 137l17 263h213v-190h55q71 0 108 -41.5t37 -105.5q0 -63 -37 -104.5t-108 -41.5h-123v423h-80l-14 -208q-8 -131 -42.5 -179t-98.5 -48zM370 237h-48v-181h48q40 0 60.5 24.5t20.5 65.5t-20.5 66t-60.5 25z" />
    <glyph glyph-name="afii10107" unicode="&#x45a;" horiz-adv-x="557" 
d="M124 0h-68v483h68v-201h130v201h68v-201h55q72 0 108.5 -39.5t36.5 -102.5q0 -61 -37 -100.5t-108 -39.5h-123v222h-130v-222zM370 226h-48v-170h48q40 0 60.5 22.5t20.5 62.5q0 39 -20.5 62t-60.5 23z" />
    <glyph glyph-name="afii10108" unicode="&#x45b;" horiz-adv-x="392" 
d="M254 536h-116v-121q16 34 46.5 57t61.5 23q48 0 69 -25t21 -80v-390h-68v372q0 62 -46 62q-26 0 -49 -23t-35 -56v-355h-68v536h-49v45h49v86h68v-86h116v-45z" />
    <glyph glyph-name="afii10109" unicode="&#x45c;" horiz-adv-x="361" 
d="M290 700l-100 -144h-46l79 144h67zM345 0h-74l-91 219l-56 -96v-123h-68v483h68v-267l148 267h74l-122 -216z" />
    <glyph glyph-name="afii10110" unicode="&#x45e;" horiz-adv-x="326" 
d="M33 -189l11 60q10 -6 24 -6q17 0 26 10t16 35l19 75l-120 498h74l79 -396l82 396h72l-143 -589q-14 -51 -36.5 -70.5t-61.5 -19.5q-26 0 -42 7zM281 613q-45 -61 -119 -61t-119 61l36 28q13 -20 36 -32t47 -12q55 0 83 44z" />
    <glyph glyph-name="afii10193" unicode="&#x45f;" 
d="M155 -124v124h-99v483h68v-423h130v423h68v-483h-99v-124h-68z" />
    <glyph glyph-name="afii10050" unicode="&#x490;" horiz-adv-x="351" 
d="M138 600v-600h-75v667h173v123h75v-190h-173z" />
    <glyph glyph-name="afii10098" unicode="&#x491;" horiz-adv-x="291" 
d="M124 423v-423h-68v483h144v124h69v-184h-145z" />
    <glyph glyph-name="uni1E02" unicode="&#x1e02;" horiz-adv-x="403" 
d="M213 0h-150v667h144q69 0 106.5 -46t37.5 -124q0 -122 -87 -153q42 -7 69 -55t27 -109q0 -85 -36.5 -132.5t-110.5 -47.5zM192 375q81 0 81 112q0 113 -81 113h-54v-225h54zM196 67q86 0 86 120q0 52 -21.5 86.5t-64.5 34.5h-58v-241h58zM201 724q-18 0 -31 13t-13 31
t13 31t31 13t31 -13t13 -31t-13 -31t-31 -13z" />
    <glyph glyph-name="uni1E03" unicode="&#x1e03;" horiz-adv-x="384" 
d="M124 129q9 -33 30 -56.5t44 -23.5q77 0 77 192q0 193 -77 193q-23 0 -44 -24.5t-30 -57.5v-223zM124 0h-68v667h68v-251q14 38 39.5 58.5t51.5 20.5q66 0 99 -69.5t33 -184.5q0 -116 -33 -184.5t-99 -68.5q-25 0 -50.5 20.5t-40.5 56.5v-65zM200 724q-18 0 -31 13t-13 31
t13 31t31 13t31 -13t13 -31t-13 -31t-31 -13z" />
    <glyph glyph-name="uni1E0A" unicode="&#x1e0a;" horiz-adv-x="427" 
d="M190 0h-127v667h127q99 0 147 -90.5t48 -243.5q0 -154 -47.5 -243.5t-147.5 -89.5zM190 67q116 0 116 266q0 267 -116 267h-52v-533h52zM214 724q-18 0 -31 13t-13 31t13 31t31 13t31 -13t13 -31t-13 -31t-31 -13z" />
    <glyph glyph-name="uni1E0B" unicode="&#x1e0b;" horiz-adv-x="384" 
d="M328 0h-68v65q-15 -36 -40.5 -56.5t-50.5 -20.5q-66 0 -99 68.5t-33 184.5q0 115 33 184.5t99 69.5q26 0 51.5 -20.5t39.5 -58.5v251h68v-667zM186 49q23 0 44.5 24t29.5 56v224q-9 32 -30 56.5t-44 24.5q-77 0 -77 -193q0 -192 77 -192zM186 724q-18 0 -31 13t-13 31
t13 31t31 13t31 -13t13 -31t-13 -31t-31 -13z" />
    <glyph glyph-name="uni1E1E" unicode="&#x1e1e;" horiz-adv-x="351" 
d="M190 724q-18 0 -31 13t-13 31t13 31t31 13t31 -13t13 -31t-13 -31t-31 -13zM138 0h-75v667h248v-67h-173v-225h166v-67h-166v-308z" />
    <glyph glyph-name="uni1E1F" unicode="&#x1e1f;" horiz-adv-x="224" 
d="M171 724q-18 0 -31 13t-13 31t13 31t31 13t31 -13t13 -31t-13 -31t-31 -13zM139 0h-69v423h-47v60h47v81q0 53 27 83t76 30q43 0 69 -27l-24 -54q-16 20 -35 20q-44 0 -44 -52v-81h65v-60h-65v-423z" />
    <glyph glyph-name="uni1E22" unicode="&#x1e22;" horiz-adv-x="436" 
d="M373 0h-75v309h-160v-309h-75v667h75v-290h160v290h75v-667zM218 724q-18 0 -31 13t-13 31t13 31t31 13t31 -13t13 -31t-13 -31t-31 -13z" />
    <glyph glyph-name="uni1E23" unicode="&#x1e23;" 
d="M322 0h-68v372q0 62 -46 62q-26 0 -49 -23t-35 -56v-355h-68v667h68v-252q16 34 46.5 57t61.5 23q48 0 69 -25t21 -80v-390zM189 724q-18 0 -31 13t-13 31t13 31t31 13t31 -13t13 -31t-13 -31t-31 -13z" />
    <glyph glyph-name="uni1E56" unicode="&#x1e56;" horiz-adv-x="387" 
d="M138 0h-75v667h137q78 0 118.5 -56.5t40.5 -142.5t-40.5 -142.5t-118.5 -56.5h-62v-269zM193 336q43 0 65.5 36t22.5 96t-22.5 96t-65.5 36h-55v-264h55zM194 724q-18 0 -31 13t-13 31t13 31t31 13t31 -13t13 -31t-13 -31t-31 -13z" />
    <glyph glyph-name="uni1E57" unicode="&#x1e57;" horiz-adv-x="384" 
d="M215 -12q-26 0 -51.5 20.5t-39.5 58.5v-251h-68v667h68v-65q15 36 40.5 56.5t50.5 20.5q66 0 99 -68.5t33 -184.5q0 -115 -33 -184.5t-99 -69.5zM198 49q77 0 77 193q0 192 -77 192q-23 0 -44 -23.5t-30 -56.5v-224q9 -33 30.5 -57t43.5 -24zM201 557q-18 0 -31 13
t-13 31t13 31t31 13t31 -13t13 -31t-13 -31t-31 -13z" />
    <glyph glyph-name="uni1E60" unicode="&#x1e60;" horiz-adv-x="354" 
d="M163 -12q-87 0 -143 61l38 60q18 -24 45.5 -38.5t55.5 -14.5q37 0 62 28.5t25 74.5q0 42 -21.5 76t-52 60t-61 53.5t-52 69.5t-21.5 95q0 72 43.5 118.5t110.5 46.5q72 0 119 -47l-33 -58q-34 37 -85 37q-33 0 -55.5 -26t-22.5 -68q0 -35 21.5 -66.5t51.5 -58t60.5 -56
t52 -73.5t21.5 -99q0 -77 -44 -126t-115 -49zM177 724q-18 0 -31 13t-13 31t13 31t31 13t31 -13t13 -31t-13 -31t-31 -13z" />
    <glyph glyph-name="uni1E61" unicode="&#x1e61;" horiz-adv-x="309" 
d="M152 -12q-86 0 -131 61l33 47q40 -52 93 -52q30 0 50.5 19.5t20.5 52.5q0 25 -13.5 46t-33.5 34.5t-44 31t-44 35t-33.5 46.5t-13.5 66q0 52 35.5 86t92.5 34q70 0 115 -54l-32 -46q-31 44 -82 44q-29 0 -46.5 -18t-17.5 -44q0 -28 18.5 -50.5t45.5 -40t54 -37.5
t45.5 -53.5t18.5 -77.5q0 -58 -37.5 -94t-93.5 -36zM155 557q-18 0 -31 13t-13 31t13 31t31 13t31 -13t13 -31t-13 -31t-31 -13z" />
    <glyph glyph-name="uni1E6A" unicode="&#x1e6a;" horiz-adv-x="322" 
d="M199 0h-76v600h-105v67h286v-67h-105v-600zM161 724q-18 0 -31 13t-13 31t13 31t31 13t31 -13t13 -31t-13 -31t-31 -13z" />
    <glyph glyph-name="uni1E6B" unicode="&#x1e6b;" horiz-adv-x="233" 
d="M156 -12q-45 0 -65.5 25t-20.5 79v331h-49v60h49v132h69v-132h65v-60h-65v-321q0 -28 6.5 -40.5t23.5 -12.5q21 0 32 17l22 -50q-26 -28 -67 -28zM106 724q-18 0 -31 13t-13 31t13 31t31 13t31 -13t13 -31t-13 -31t-31 -13z" />
    <glyph glyph-name="Wgrave" unicode="&#x1e80;" horiz-adv-x="548" 
d="M424 0h-80l-70 514l-70 -514h-79l-107 667h78l71 -531l75 531h64l76 -531l70 531h78zM310 723h-46l-100 144h67z" />
    <glyph glyph-name="wgrave" unicode="&#x1e81;" horiz-adv-x="541" 
d="M423 0h-71l-81 389l-82 -389h-71l-105 483h72l72 -387l77 387h70l79 -387l73 387h72zM307 556h-46l-100 144h67z" />
    <glyph glyph-name="Wacute" unicode="&#x1e82;" horiz-adv-x="548" 
d="M388 867l-100 -144h-46l79 144h67zM424 0h-80l-70 514l-70 -514h-79l-107 667h78l71 -531l75 531h64l76 -531l70 531h78z" />
    <glyph glyph-name="wacute" unicode="&#x1e83;" horiz-adv-x="541" 
d="M380 700l-100 -144h-46l79 144h67zM423 0h-71l-81 389l-82 -389h-71l-105 483h72l72 -387l77 387h70l79 -387l73 387h72z" />
    <glyph glyph-name="Wdieresis" unicode="&#x1e84;" horiz-adv-x="548" 
d="M388 770q0 -18 -13 -30.5t-31 -12.5q-17 0 -30 12.5t-13 30.5t13 30.5t30 12.5q18 0 31 -12.5t13 -30.5zM247 770q0 -18 -13 -30.5t-31 -12.5q-17 0 -30 12.5t-13 30.5t13 30.5t30 12.5q18 0 31 -12.5t13 -30.5zM424 0h-80l-70 514l-70 -514h-79l-107 667h78l71 -531
l75 531h64l76 -531l70 531h78z" />
    <glyph glyph-name="wdieresis" unicode="&#x1e85;" horiz-adv-x="541" 
d="M385 603q0 -18 -13 -30.5t-31 -12.5q-17 0 -30 12.5t-13 30.5t13 30.5t30 12.5q18 0 31 -12.5t13 -30.5zM244 603q0 -18 -13 -30.5t-31 -12.5q-17 0 -30 12.5t-13 30.5t13 30.5t30 12.5q18 0 31 -12.5t13 -30.5zM423 0h-71l-81 389l-82 -389h-71l-105 483h72l72 -387
l77 387h70l79 -387l73 387h72z" />
    <glyph glyph-name="uni1EA0" unicode="&#x1ea0;" horiz-adv-x="364" 
d="M357 0h-77l-27 153h-142l-27 -153h-77l131 667h87zM244 220l-62 357l-62 -357h124zM183 -182q-18 0 -31 13t-13 31t13 31t31 13t31 -13t13 -31t-13 -31t-31 -13z" />
    <glyph glyph-name="uni1EA1" unicode="&#x1ea1;" horiz-adv-x="376" 
d="M320 0h-69v48q-16 -30 -41.5 -45t-52.5 -15q-56 0 -90 44.5t-34 116.5q0 71 34 115t90 44q27 0 52.5 -14.5t41.5 -42.5v80q0 53 -17 79t-58 26q-51 0 -95 -51l-29 49q55 61 135 61q133 0 133 -151v-344zM176 38q51 0 75 63v92q-24 65 -75 65q-36 0 -54.5 -31.5
t-18.5 -78.5t18.5 -78.5t54.5 -31.5zM188 -182q-18 0 -31 13t-13 31t13 31t31 13t31 -13t13 -31t-13 -31t-31 -13z" />
    <glyph glyph-name="uni1EA2" unicode="&#x1ea2;" horiz-adv-x="364" 
d="M357 0h-77l-27 153h-142l-27 -153h-77l131 667h87zM244 220l-62 357l-62 -357h124zM156 766l-31 7q11 47 57 47q25 0 40 -15.5t15 -45.5q0 -32 -20 -62h-34q22 29 22 61t-23 32q-20 0 -26 -24z" />
    <glyph glyph-name="uni1EA3" unicode="&#x1ea3;" horiz-adv-x="376" 
d="M320 0h-69v48q-16 -30 -41.5 -45t-52.5 -15q-56 0 -90 44.5t-34 116.5q0 71 34 115t90 44q27 0 52.5 -14.5t41.5 -42.5v80q0 53 -17 79t-58 26q-51 0 -95 -51l-29 49q55 61 135 61q133 0 133 -151v-344zM176 38q51 0 75 63v92q-24 65 -75 65q-36 0 -54.5 -31.5
t-18.5 -78.5t18.5 -78.5t54.5 -31.5zM162 596l-31 7q11 47 57 47q25 0 40 -15.5t15 -45.5q0 -32 -20 -62h-34q22 29 22 61t-23 32q-20 0 -26 -24z" />
    <glyph glyph-name="uni1EA4" unicode="&#x1ea4;" horiz-adv-x="364" 
d="M282 682h-41l-60 79l-57 -79h-42l66 108h66zM357 0h-77l-27 153h-142l-27 -153h-77l131 667h87zM244 220l-62 357l-62 -357h124zM405 843l-100 -108h-46l79 108h67z" />
    <glyph glyph-name="uni1EA5" unicode="&#x1ea5;" horiz-adv-x="376" 
d="M320 0h-69v48q-16 -30 -41.5 -45t-52.5 -15q-56 0 -90 44.5t-34 116.5q0 71 34 115t90 44q27 0 52.5 -14.5t41.5 -42.5v80q0 53 -17 79t-58 26q-51 0 -95 -51l-29 49q55 61 135 61q133 0 133 -151v-344zM176 38q51 0 75 63v92q-24 65 -75 65q-36 0 -54.5 -31.5
t-18.5 -78.5t18.5 -78.5t54.5 -31.5zM290 556h-41l-60 105l-57 -105h-42l66 144h66zM410 771l-100 -144h-46l79 144h67z" />
    <glyph glyph-name="uni1EA6" unicode="&#x1ea6;" horiz-adv-x="364" 
d="M282 682h-41l-60 79l-57 -79h-42l66 108h66zM357 0h-77l-27 153h-142l-27 -153h-77l131 667h87zM244 220l-62 357l-62 -357h124zM105 735h-46l-100 108h67z" />
    <glyph glyph-name="uni1EA7" unicode="&#x1ea7;" horiz-adv-x="376" 
d="M320 0h-69v48q-16 -30 -41.5 -45t-52.5 -15q-56 0 -90 44.5t-34 116.5q0 71 34 115t90 44q27 0 52.5 -14.5t41.5 -42.5v80q0 53 -17 79t-58 26q-51 0 -95 -51l-29 49q55 61 135 61q133 0 133 -151v-344zM176 38q51 0 75 63v92q-24 65 -75 65q-36 0 -54.5 -31.5
t-18.5 -78.5t18.5 -78.5t54.5 -31.5zM290 556h-41l-60 105l-57 -105h-42l66 144h66zM113 627h-46l-100 144h67z" />
    <glyph glyph-name="uni1EA8" unicode="&#x1ea8;" horiz-adv-x="364" 
d="M282 682h-41l-60 79l-57 -79h-42l66 108h66zM357 0h-77l-27 153h-142l-27 -153h-77l131 667h87zM244 220l-62 357l-62 -357h124zM260 795l-31 5q11 35 57 35q55 0 55 -45q0 -24 -20 -47h-34q22 22 22 46t-23 24q-19 0 -26 -18z" />
    <glyph glyph-name="uni1EA9" unicode="&#x1ea9;" horiz-adv-x="376" 
d="M320 0h-69v48q-16 -30 -41.5 -45t-52.5 -15q-56 0 -90 44.5t-34 116.5q0 71 34 115t90 44q27 0 52.5 -14.5t41.5 -42.5v80q0 53 -17 79t-58 26q-51 0 -95 -51l-29 49q55 61 135 61q133 0 133 -151v-344zM176 38q51 0 75 63v92q-24 65 -75 65q-36 0 -54.5 -31.5
t-18.5 -78.5t18.5 -78.5t54.5 -31.5zM290 556h-41l-60 105l-57 -105h-42l66 144h66zM233 736l-31 7q11 47 57 47q25 0 40 -15.5t15 -45.5q0 -32 -20 -62h-34q22 29 22 61t-23 32q-20 0 -26 -24z" />
    <glyph glyph-name="uni1EAA" unicode="&#x1eaa;" horiz-adv-x="364" 
d="M282 678h-41l-60 52l-57 -52h-42l66 72h66zM357 0h-77l-27 153h-142l-27 -153h-77l131 667h87zM244 220l-62 357l-62 -357h124zM221 757q-19 0 -32 7.5t-18.5 16t-14 16t-18.5 7.5q-31 0 -31 -44h-39q0 29 18.5 48t54.5 19q31 0 51 -24t33 -24q30 0 30 45h39
q0 -30 -18.5 -48.5t-54.5 -18.5z" />
    <glyph glyph-name="uni1EAB" unicode="&#x1eab;" horiz-adv-x="376" 
d="M320 0h-69v48q-16 -30 -41.5 -45t-52.5 -15q-56 0 -90 44.5t-34 116.5q0 71 34 115t90 44q27 0 52.5 -14.5t41.5 -42.5v80q0 53 -17 79t-58 26q-51 0 -95 -51l-29 49q55 61 135 61q133 0 133 -151v-344zM176 38q51 0 75 63v92q-24 65 -75 65q-36 0 -54.5 -31.5
t-18.5 -78.5t18.5 -78.5t54.5 -31.5zM290 523h-41l-60 105l-57 -105h-42l66 144h66zM227 682q-24 0 -38 24t-23.5 47.5t-21.5 23.5q-31 0 -31 -89h-39q0 59 18.5 96.5t54.5 37.5q19 0 32 -15t19 -32.5t14.5 -32.5t18.5 -15q30 0 30 89h39q0 -59 -18.5 -96.5t-54.5 -37.5z
" />
    <glyph glyph-name="uni1EAC" unicode="&#x1eac;" horiz-adv-x="364" 
d="M357 0h-77l-27 153h-142l-27 -153h-77l131 667h87zM244 220l-62 357l-62 -357h124zM282 723h-41l-60 105l-57 -105h-42l66 144h66zM183 -182q-18 0 -31 13t-13 31t13 31t31 13t31 -13t13 -31t-13 -31t-31 -13z" />
    <glyph glyph-name="uni1EAD" unicode="&#x1ead;" horiz-adv-x="376" 
d="M320 0h-69v48q-16 -30 -41.5 -45t-52.5 -15q-56 0 -90 44.5t-34 116.5q0 71 34 115t90 44q27 0 52.5 -14.5t41.5 -42.5v80q0 53 -17 79t-58 26q-51 0 -95 -51l-29 49q55 61 135 61q133 0 133 -151v-344zM176 38q51 0 75 63v92q-24 65 -75 65q-36 0 -54.5 -31.5
t-18.5 -78.5t18.5 -78.5t54.5 -31.5zM287 556h-41l-60 105l-57 -105h-42l66 144h66zM188 -182q-18 0 -31 13t-13 31t13 31t31 13t31 -13t13 -31t-13 -31t-31 -13z" />
    <glyph glyph-name="uni1EAE" unicode="&#x1eae;" horiz-adv-x="364" 
d="M357 0h-77l-27 153h-142l-27 -153h-77l131 667h87zM244 220l-62 357l-62 -357h124zM290 838l-100 -98h-46l79 98h67zM301 738q-45 -53 -119 -53t-119 53l36 24q30 -38 83 -38q55 0 83 38z" />
    <glyph glyph-name="uni1EAF" unicode="&#x1eaf;" horiz-adv-x="376" 
d="M320 0h-69v48q-16 -30 -41.5 -45t-52.5 -15q-56 0 -90 44.5t-34 116.5q0 71 34 115t90 44q27 0 52.5 -14.5t41.5 -42.5v80q0 53 -17 79t-58 26q-51 0 -95 -51l-29 49q55 61 135 61q133 0 133 -151v-344zM176 38q51 0 75 63v92q-24 65 -75 65q-36 0 -54.5 -31.5
t-18.5 -78.5t18.5 -78.5t54.5 -31.5zM296 765l-100 -144h-46l79 144h67zM307 586q-45 -61 -119 -61t-119 61l36 28q13 -20 36 -32t47 -12q55 0 83 44z" />
    <glyph glyph-name="uni1EB0" unicode="&#x1eb0;" horiz-adv-x="364" 
d="M357 0h-77l-27 153h-142l-27 -153h-77l131 667h87zM244 220l-62 357l-62 -357h124zM222 740h-46l-100 98h67zM301 738q-45 -53 -119 -53t-119 53l36 24q30 -38 83 -38q55 0 83 38z" />
    <glyph glyph-name="uni1EB1" unicode="&#x1eb1;" horiz-adv-x="376" 
d="M320 0h-69v48q-16 -30 -41.5 -45t-52.5 -15q-56 0 -90 44.5t-34 116.5q0 71 34 115t90 44q27 0 52.5 -14.5t41.5 -42.5v80q0 53 -17 79t-58 26q-51 0 -95 -51l-29 49q55 61 135 61q133 0 133 -151v-344zM176 38q51 0 75 63v92q-24 65 -75 65q-36 0 -54.5 -31.5
t-18.5 -78.5t18.5 -78.5t54.5 -31.5zM224 621h-46l-100 144h67zM307 586q-45 -61 -119 -61t-119 61l36 28q13 -20 36 -32t47 -12q55 0 83 44z" />
    <glyph glyph-name="uni1EB2" unicode="&#x1eb2;" horiz-adv-x="364" 
d="M357 0h-77l-27 153h-142l-27 -153h-77l131 667h87zM244 220l-62 357l-62 -357h124zM157 791l-31 5q11 32 57 32q55 0 55 -42q0 -22 -20 -42h-34q22 19 22 42q0 22 -23 22q-19 0 -26 -17zM301 738q-45 -53 -119 -53t-119 53l36 24q30 -38 83 -38q55 0 83 38z" />
    <glyph glyph-name="uni1EB3" unicode="&#x1eb3;" horiz-adv-x="376" 
d="M320 0h-69v48q-16 -30 -41.5 -45t-52.5 -15q-56 0 -90 44.5t-34 116.5q0 71 34 115t90 44q27 0 52.5 -14.5t41.5 -42.5v80q0 53 -17 79t-58 26q-51 0 -95 -51l-29 49q55 61 135 61q133 0 133 -151v-344zM176 38q51 0 75 63v92q-24 65 -75 65q-36 0 -54.5 -31.5
t-18.5 -78.5t18.5 -78.5t54.5 -31.5zM165 686l-31 7q11 47 57 47q25 0 40 -15.5t15 -45.5q0 -32 -20 -62h-34q22 29 22 61t-23 32q-20 0 -26 -24zM307 586q-45 -61 -119 -61t-119 61l36 28q13 -20 36 -32t47 -12q55 0 83 44z" />
    <glyph glyph-name="uni1EB4" unicode="&#x1eb4;" horiz-adv-x="364" 
d="M357 0h-77l-27 153h-142l-27 -153h-77l131 667h87zM244 220l-62 357l-62 -357h124zM300 728q-44 -42 -119 -42t-119 42l36 19q28 -30 83 -30q56 0 83 30zM221 757q-19 0 -32 7.5t-18.5 16t-14 16t-18.5 7.5q-31 0 -31 -44h-39q0 29 18.5 48t54.5 19q31 0 51 -24t33 -24
q30 0 30 45h39q0 -30 -18.5 -48.5t-54.5 -18.5z" />
    <glyph glyph-name="uni1EB5" unicode="&#x1eb5;" horiz-adv-x="376" 
d="M320 0h-69v48q-16 -30 -41.5 -45t-52.5 -15q-56 0 -90 44.5t-34 116.5q0 71 34 115t90 44q27 0 52.5 -14.5t41.5 -42.5v80q0 53 -17 79t-58 26q-51 0 -95 -51l-29 49q55 61 135 61q133 0 133 -151v-344zM176 38q51 0 75 63v92q-24 65 -75 65q-36 0 -54.5 -31.5
t-18.5 -78.5t18.5 -78.5t54.5 -31.5zM307 586q-45 -61 -119 -61t-119 61l36 28q13 -20 36 -32t47 -12q55 0 83 44zM225 643q-24 0 -38 23.5t-23.5 47.5t-21.5 24q-31 0 -31 -89h-39q0 59 18.5 96.5t54.5 37.5q24 0 38 -23.5t24 -47.5t22 -24q30 0 30 89h39
q0 -59 -18.5 -96.5t-54.5 -37.5z" />
    <glyph glyph-name="uni1EB6" unicode="&#x1eb6;" horiz-adv-x="364" 
d="M357 0h-77l-27 153h-142l-27 -153h-77l131 667h87zM244 220l-62 357l-62 -357h124zM183 -182q-18 0 -31 13t-13 31t13 31t31 13t31 -13t13 -31t-13 -31t-31 -13zM301 780q-45 -61 -119 -61t-119 61l36 28q13 -20 36 -32t47 -12q55 0 83 44z" />
    <glyph glyph-name="uni1EB7" unicode="&#x1eb7;" horiz-adv-x="376" 
d="M320 0h-69v48q-16 -30 -41.5 -45t-52.5 -15q-56 0 -90 44.5t-34 116.5q0 71 34 115t90 44q27 0 52.5 -14.5t41.5 -42.5v80q0 53 -17 79t-58 26q-51 0 -95 -51l-29 49q55 61 135 61q133 0 133 -151v-344zM176 38q51 0 75 63v92q-24 65 -75 65q-36 0 -54.5 -31.5
t-18.5 -78.5t18.5 -78.5t54.5 -31.5zM188 -182q-18 0 -31 13t-13 31t13 31t31 13t31 -13t13 -31t-13 -31t-31 -13zM307 613q-45 -61 -119 -61t-119 61l36 28q13 -20 36 -32t47 -12q55 0 83 44z" />
    <glyph glyph-name="uni1EB8" unicode="&#x1eb8;" horiz-adv-x="352" 
d="M311 0h-248v667h248v-67h-173v-225h166v-67h-166v-241h173v-67zM194 -182q-18 0 -31 13t-13 31t13 31t31 13t31 -13t13 -31t-13 -31t-31 -13z" />
    <glyph glyph-name="uni1EB9" unicode="&#x1eb9;" horiz-adv-x="373" 
d="M205 -12q-83 0 -125.5 70t-42.5 184q0 112 39 182.5t115 70.5q77 0 113 -69.5t36 -182.5v-24h-234q0 -80 27 -127t77 -47q47 0 80 58l41 -36q-51 -79 -126 -79zM272 270q0 69 -19 118.5t-64 49.5q-31 0 -51 -29.5t-26 -64t-6 -74.5h166zM191 -182q-18 0 -31 13t-13 31
t13 31t31 13t31 -13t13 -31t-13 -31t-31 -13z" />
    <glyph glyph-name="uni1EBA" unicode="&#x1eba;" horiz-adv-x="352" 
d="M311 0h-248v667h248v-67h-173v-225h166v-67h-166v-241h173v-67zM151 766l-31 7q11 47 57 47q25 0 40 -15.5t15 -45.5q0 -32 -20 -62h-34q22 29 22 61t-23 32q-20 0 -26 -24z" />
    <glyph glyph-name="uni1EBB" unicode="&#x1ebb;" horiz-adv-x="373" 
d="M205 -12q-83 0 -125.5 70t-42.5 184q0 112 39 182.5t115 70.5q77 0 113 -69.5t36 -182.5v-24h-234q0 -80 27 -127t77 -47q47 0 80 58l41 -36q-51 -79 -126 -79zM272 270q0 69 -19 118.5t-64 49.5q-31 0 -51 -29.5t-26 -64t-6 -74.5h166zM165 596l-31 7q11 47 57 47
q25 0 40 -15.5t15 -45.5q0 -32 -20 -62h-34q22 29 22 61t-23 32q-20 0 -26 -24z" />
    <glyph glyph-name="uni1EBC" unicode="&#x1ebc;" horiz-adv-x="352" 
d="M311 0h-248v667h248v-67h-173v-225h166v-67h-166v-241h173v-67zM225 721q-24 0 -38 23.5t-23.5 47.5t-21.5 24q-31 0 -31 -89h-39q0 59 18.5 96.5t54.5 37.5q24 0 38 -23.5t24 -47.5t22 -24q30 0 30 89h39q0 -59 -18.5 -96.5t-54.5 -37.5z" />
    <glyph glyph-name="uni1EBD" unicode="&#x1ebd;" horiz-adv-x="373" 
d="M205 -12q-83 0 -125.5 70t-42.5 184q0 112 39 182.5t115 70.5q77 0 113 -69.5t36 -182.5v-24h-234q0 -80 27 -127t77 -47q47 0 80 58l41 -36q-51 -79 -126 -79zM272 270q0 69 -19 118.5t-64 49.5q-31 0 -51 -29.5t-26 -64t-6 -74.5h166zM232 554q-24 0 -38 24t-23.5 47.5
t-21.5 23.5q-31 0 -31 -89h-39q0 59 18.5 96.5t54.5 37.5q19 0 32 -15t19 -32.5t14.5 -32.5t18.5 -15q30 0 30 89h39q0 -59 -18.5 -96.5t-54.5 -37.5z" />
    <glyph glyph-name="uni1EBE" unicode="&#x1ebe;" horiz-adv-x="352" 
d="M288 682h-41l-60 79l-57 -79h-42l66 108h66zM411 843l-100 -108h-46l79 108h67zM311 0h-248v667h248v-67h-173v-225h166v-67h-166v-241h173v-67z" />
    <glyph glyph-name="uni1EBF" unicode="&#x1ebf;" horiz-adv-x="373" 
d="M290 556h-41l-60 105l-57 -105h-42l66 144h66zM411 771l-100 -144h-46l79 144h67zM205 -12q-83 0 -125.5 70t-42.5 184q0 112 39 182.5t115 70.5q77 0 113 -69.5t36 -182.5v-24h-234q0 -80 27 -127t77 -47q47 0 80 58l41 -36q-51 -79 -126 -79zM272 270q0 69 -19 118.5
t-64 49.5q-31 0 -51 -29.5t-26 -64t-6 -74.5h166z" />
    <glyph glyph-name="uni1EC0" unicode="&#x1ec0;" horiz-adv-x="352" 
d="M287 682h-41l-60 79l-57 -79h-42l66 108h66zM311 0h-248v667h248v-67h-173v-225h166v-67h-166v-241h173v-67zM110 735h-46l-100 108h67z" />
    <glyph glyph-name="uni1EC1" unicode="&#x1ec1;" horiz-adv-x="373" 
d="M290 556h-41l-60 105l-57 -105h-42l66 144h66zM205 -12q-83 0 -125.5 70t-42.5 184q0 112 39 182.5t115 70.5q77 0 113 -69.5t36 -182.5v-24h-234q0 -80 27 -127t77 -47q47 0 80 58l41 -36q-51 -79 -126 -79zM272 270q0 69 -19 118.5t-64 49.5q-31 0 -51 -29.5t-26 -64
t-6 -74.5h166zM113 627h-46l-100 144h67z" />
    <glyph glyph-name="uni1EC2" unicode="&#x1ec2;" horiz-adv-x="352" 
d="M287 682h-41l-60 79l-57 -79h-42l66 108h66zM311 0h-248v667h248v-67h-173v-225h166v-67h-166v-241h173v-67zM264 795l-31 5q11 35 57 35q55 0 55 -45q0 -24 -20 -47h-34q22 22 22 46t-23 24q-19 0 -26 -18z" />
    <glyph glyph-name="uni1EC3" unicode="&#x1ec3;" horiz-adv-x="373" 
d="M290 556h-41l-60 105l-57 -105h-42l66 144h66zM205 -12q-83 0 -125.5 70t-42.5 184q0 112 39 182.5t115 70.5q77 0 113 -69.5t36 -182.5v-24h-234q0 -80 27 -127t77 -47q47 0 80 58l41 -36q-51 -79 -126 -79zM272 270q0 69 -19 118.5t-64 49.5q-31 0 -51 -29.5t-26 -64
t-6 -74.5h166zM233 736l-31 7q11 47 57 47q25 0 40 -15.5t15 -45.5q0 -32 -20 -62h-34q22 29 22 61t-23 32q-20 0 -26 -24z" />
    <glyph glyph-name="uni1EC4" unicode="&#x1ec4;" horiz-adv-x="352" 
d="M286 678h-41l-60 52l-57 -52h-42l66 72h66zM311 0h-248v667h248v-67h-173v-225h166v-67h-166v-241h173v-67zM225 757q-19 0 -32 7.5t-18.5 16t-14 16t-18.5 7.5q-31 0 -31 -44h-39q0 29 18.5 48t54.5 19q31 0 51 -24t33 -24q30 0 30 45h39q0 -30 -18.5 -48.5t-54.5 -18.5
z" />
    <glyph glyph-name="uni1EC5" unicode="&#x1ec5;" horiz-adv-x="373" 
d="M290 523h-41l-60 105l-57 -105h-42l66 144h66zM205 -12q-83 0 -125.5 70t-42.5 184q0 112 39 182.5t115 70.5q77 0 113 -69.5t36 -182.5v-24h-234q0 -80 27 -127t77 -47q47 0 80 58l41 -36q-51 -79 -126 -79zM272 270q0 69 -19 118.5t-64 49.5q-31 0 -51 -29.5t-26 -64
t-6 -74.5h166zM229 682q-24 0 -38 24t-23.5 47.5t-21.5 23.5q-31 0 -31 -89h-39q0 59 18.5 96.5t54.5 37.5q19 0 32 -15t19 -32.5t14.5 -32.5t18.5 -15q30 0 30 89h39q0 -59 -18.5 -96.5t-54.5 -37.5z" />
    <glyph glyph-name="uni1EC6" unicode="&#x1ec6;" horiz-adv-x="352" 
d="M289 723h-41l-60 105l-57 -105h-42l66 144h66zM311 0h-248v667h248v-67h-173v-225h166v-67h-166v-241h173v-67zM194 -182q-18 0 -31 13t-13 31t13 31t31 13t31 -13t13 -31t-13 -31t-31 -13z" />
    <glyph glyph-name="uni1EC7" unicode="&#x1ec7;" horiz-adv-x="373" 
d="M292 556h-41l-60 105l-57 -105h-42l66 144h66zM205 -12q-83 0 -125.5 70t-42.5 184q0 112 39 182.5t115 70.5q77 0 113 -69.5t36 -182.5v-24h-234q0 -80 27 -127t77 -47q47 0 80 58l41 -36q-51 -79 -126 -79zM272 270q0 69 -19 118.5t-64 49.5q-31 0 -51 -29.5t-26 -64
t-6 -74.5h166zM191 -182q-18 0 -31 13t-13 31t13 31t31 13t31 -13t13 -31t-13 -31t-31 -13z" />
    <glyph glyph-name="uni1EC8" unicode="&#x1ec8;" horiz-adv-x="201" 
d="M138 0h-75v667h75v-667zM75 766l-31 7q11 47 57 47q25 0 40 -15.5t15 -45.5q0 -32 -20 -62h-34q22 29 22 61t-23 32q-20 0 -26 -24z" />
    <glyph glyph-name="uni1EC9" unicode="&#x1ec9;" horiz-adv-x="180" 
d="M124 0h-68v483h68v-483zM65 596l-31 7q11 47 57 47q25 0 40 -15.5t15 -45.5q0 -32 -20 -62h-34q22 29 22 61t-23 32q-20 0 -26 -24z" />
    <glyph glyph-name="uni1ECA" unicode="&#x1eca;" horiz-adv-x="201" 
d="M138 0h-75v667h75v-667zM100 -182q-18 0 -31 13t-13 31t13 31t31 13t31 -13t13 -31t-13 -31t-31 -13z" />
    <glyph glyph-name="uni1ECB" unicode="&#x1ecb;" horiz-adv-x="180" 
d="M90 554q-19 0 -33 14t-14 33t14 33.5t33 14.5q20 0 34 -14.5t14 -33.5t-14 -33t-34 -14zM124 0h-68v483h68v-483zM91 -182q-18 0 -31 13t-13 31t13 31t31 13t31 -13t13 -31t-13 -31t-31 -13z" />
    <glyph glyph-name="uni1ECC" unicode="&#x1ecc;" horiz-adv-x="434" 
d="M217 -12q-61 0 -101 48t-56.5 122.5t-16.5 174.5t16.5 174.5t56.5 122.5t101 48q89 0 131.5 -95.5t42.5 -249.5t-42.5 -249.5t-131.5 -95.5zM217 56q50 0 73 77t23 200q0 124 -23 200.5t-73 76.5q-96 0 -96 -277t96 -277zM219 -182q-18 0 -31 13t-13 31t13 31t31 13
t31 -13t13 -31t-13 -31t-31 -13z" />
    <glyph glyph-name="uni1ECD" unicode="&#x1ecd;" horiz-adv-x="382" 
d="M191 -12q-78 0 -116 72t-38 182q0 109 38 181t116 72t115.5 -71.5t37.5 -181.5t-37.5 -182t-115.5 -72zM191 49q82 0 82 193q0 192 -82 192t-82 -192q0 -193 82 -193zM192 -182q-18 0 -31 13t-13 31t13 31t31 13t31 -13t13 -31t-13 -31t-31 -13z" />
    <glyph glyph-name="uni1ECE" unicode="&#x1ece;" horiz-adv-x="434" 
d="M217 -12q-61 0 -101 48t-56.5 122.5t-16.5 174.5t16.5 174.5t56.5 122.5t101 48q89 0 131.5 -95.5t42.5 -249.5t-42.5 -249.5t-131.5 -95.5zM217 56q50 0 73 77t23 200q0 124 -23 200.5t-73 76.5q-96 0 -96 -277t96 -277zM193 766l-31 7q11 47 57 47q25 0 40 -15.5
t15 -45.5q0 -32 -20 -62h-34q22 29 22 61t-23 32q-20 0 -26 -24z" />
    <glyph glyph-name="uni1ECF" unicode="&#x1ecf;" horiz-adv-x="382" 
d="M191 -12q-78 0 -116 72t-38 182q0 109 38 181t116 72t115.5 -71.5t37.5 -181.5t-37.5 -182t-115.5 -72zM191 49q82 0 82 193q0 192 -82 192t-82 -192q0 -193 82 -193zM166 596l-31 7q11 47 57 47q25 0 40 -15.5t15 -45.5q0 -32 -20 -62h-34q22 29 22 61t-23 32
q-20 0 -26 -24z" />
    <glyph glyph-name="uni1ED0" unicode="&#x1ed0;" horiz-adv-x="434" 
d="M315 682h-41l-60 79l-57 -79h-42l66 108h66zM437 843l-100 -108h-46l79 108h67zM217 -12q-61 0 -101 48t-56.5 122.5t-16.5 174.5t16.5 174.5t56.5 122.5t101 48q89 0 131.5 -95.5t42.5 -249.5t-42.5 -249.5t-131.5 -95.5zM217 56q50 0 73 77t23 200q0 124 -23 200.5
t-73 76.5q-96 0 -96 -277t96 -277z" />
    <glyph glyph-name="uni1ED1" unicode="&#x1ed1;" horiz-adv-x="382" 
d="M290 556h-41l-60 105l-57 -105h-42l66 144h66zM410 771l-100 -144h-46l79 144h67zM191 -12q-78 0 -116 72t-38 182q0 109 38 181t116 72t115.5 -71.5t37.5 -181.5t-37.5 -182t-115.5 -72zM191 49q82 0 82 193q0 192 -82 192t-82 -192q0 -193 82 -193z" />
    <glyph glyph-name="uni1ED2" unicode="&#x1ed2;" horiz-adv-x="434" 
d="M313 682h-41l-60 79l-57 -79h-42l66 108h66zM217 -12q-61 0 -101 48t-56.5 122.5t-16.5 174.5t16.5 174.5t56.5 122.5t101 48q89 0 131.5 -95.5t42.5 -249.5t-42.5 -249.5t-131.5 -95.5zM217 56q50 0 73 77t23 200q0 124 -23 200.5t-73 76.5q-96 0 -96 -277t96 -277z
M136 735h-46l-100 108h67z" />
    <glyph glyph-name="uni1ED3" unicode="&#x1ed3;" horiz-adv-x="382" 
d="M290 556h-41l-60 105l-57 -105h-42l66 144h66zM191 -12q-78 0 -116 72t-38 182q0 109 38 181t116 72t115.5 -71.5t37.5 -181.5t-37.5 -182t-115.5 -72zM191 49q82 0 82 193q0 192 -82 192t-82 -192q0 -193 82 -193zM113 627h-46l-100 144h67z" />
    <glyph glyph-name="uni1ED4" unicode="&#x1ed4;" horiz-adv-x="434" 
d="M313 682h-41l-60 79l-57 -79h-42l66 108h66zM217 -12q-61 0 -101 48t-56.5 122.5t-16.5 174.5t16.5 174.5t56.5 122.5t101 48q89 0 131.5 -95.5t42.5 -249.5t-42.5 -249.5t-131.5 -95.5zM217 56q50 0 73 77t23 200q0 124 -23 200.5t-73 76.5q-96 0 -96 -277t96 -277z
M291 795l-31 5q10 35 57 35q55 0 55 -45q0 -24 -20 -47h-34q22 22 22 46t-23 24q-19 0 -26 -18z" />
    <glyph glyph-name="uni1ED5" unicode="&#x1ed5;" horiz-adv-x="382" 
d="M290 556h-41l-60 105l-57 -105h-42l66 144h66zM191 -12q-78 0 -116 72t-38 182q0 109 38 181t116 72t115.5 -71.5t37.5 -181.5t-37.5 -182t-115.5 -72zM191 49q82 0 82 193q0 192 -82 192t-82 -192q0 -193 82 -193zM233 736l-31 7q11 47 57 47q25 0 40 -15.5t15 -45.5
q0 -32 -20 -62h-34q22 29 22 61t-23 32q-20 0 -26 -24z" />
    <glyph glyph-name="uni1ED6" unicode="&#x1ed6;" horiz-adv-x="434" 
d="M317 678h-41l-60 52l-57 -52h-42l66 72h66zM217 -12q-61 0 -101 48t-56.5 122.5t-16.5 174.5t16.5 174.5t56.5 122.5t101 48q89 0 131.5 -95.5t42.5 -249.5t-42.5 -249.5t-131.5 -95.5zM217 56q50 0 73 77t23 200q0 124 -23 200.5t-73 76.5q-96 0 -96 -277t96 -277z
M256 757q-31 0 -50.5 23.5t-32.5 23.5q-31 0 -31 -44h-39q0 29 18.5 48t54.5 19q24 0 38 -12t24 -24t22 -12q30 0 30 45h39q0 -30 -18.5 -48.5t-54.5 -18.5z" />
    <glyph glyph-name="uni1ED7" unicode="&#x1ed7;" horiz-adv-x="382" 
d="M292 523h-41l-60 105l-57 -105h-42l66 144h66zM191 -12q-78 0 -116 72t-38 182q0 109 38 181t116 72t115.5 -71.5t37.5 -181.5t-37.5 -182t-115.5 -72zM191 49q82 0 82 193q0 192 -82 192t-82 -192q0 -193 82 -193zM231 682q-24 0 -38 24t-23.5 47.5t-21.5 23.5
q-31 0 -31 -89h-39q0 59 18.5 96.5t54.5 37.5q19 0 32 -15t19 -32.5t14.5 -32.5t18.5 -15q30 0 30 89h39q0 -59 -18.5 -96.5t-54.5 -37.5z" />
    <glyph glyph-name="uni1ED8" unicode="&#x1ed8;" horiz-adv-x="434" 
d="M318 723h-41l-60 105l-57 -105h-42l66 144h66zM217 -12q-61 0 -101 48t-56.5 122.5t-16.5 174.5t16.5 174.5t56.5 122.5t101 48q89 0 131.5 -95.5t42.5 -249.5t-42.5 -249.5t-131.5 -95.5zM217 56q50 0 73 77t23 200q0 124 -23 200.5t-73 76.5q-96 0 -96 -277t96 -277z
M219 -182q-18 0 -31 13t-13 31t13 31t31 13t31 -13t13 -31t-13 -31t-31 -13z" />
    <glyph glyph-name="uni1ED9" unicode="&#x1ed9;" horiz-adv-x="382" 
d="M291 556h-41l-60 105l-57 -105h-42l66 144h66zM191 -12q-78 0 -116 72t-38 182q0 109 38 181t116 72t115.5 -71.5t37.5 -181.5t-37.5 -182t-115.5 -72zM191 49q82 0 82 193q0 192 -82 192t-82 -192q0 -193 82 -193zM191 -182q-18 0 -31 13t-13 31t13 31t31 13t31 -13
t13 -31t-13 -31t-31 -13z" />
    <glyph glyph-name="uni1EDA" unicode="&#x1eda;" horiz-adv-x="434" 
d="M326 867l-100 -144h-46l79 144h67zM217 -12q-61 0 -101 48t-56.5 122.5t-16.5 174.5t16.5 174.5t56.5 122.5t101 48q90 0 134 -102q32 32 37 69l-4 -1h-6q-16 0 -27 11.5t-11 28.5t11.5 29.5t29.5 12.5q20 0 34 -17t14 -45q0 -74 -64 -125q26 -82 26 -206
q0 -154 -42.5 -249.5t-131.5 -95.5zM217 56q50 0 73 77t23 200q0 124 -23 200.5t-73 76.5q-96 0 -96 -277t96 -277z" />
    <glyph glyph-name="uni1EDB" unicode="&#x1edb;" horiz-adv-x="382" 
d="M300 700l-100 -144h-46l79 144h67zM368 530q0 -67 -56 -118q32 -67 32 -170q0 -110 -37.5 -182t-115.5 -72t-116 72t-38 182q0 109 38 181t116 72q62 0 101 -51q30 32 35 67l-4 -1h-6q-16 0 -27 11.5t-11 28.5t11.5 29.5t29.5 12.5q20 0 34 -17t14 -45zM191 49
q82 0 82 193q0 192 -82 192t-82 -192q0 -193 82 -193z" />
    <glyph glyph-name="uni1EDC" unicode="&#x1edc;" horiz-adv-x="434" 
d="M217 -12q-61 0 -101 48t-56.5 122.5t-16.5 174.5t16.5 174.5t56.5 122.5t101 48q90 0 134 -102q32 32 37 69l-4 -1h-6q-16 0 -27 11.5t-11 28.5t11.5 29.5t29.5 12.5q20 0 34 -17t14 -45q0 -74 -64 -125q26 -82 26 -206q0 -154 -42.5 -249.5t-131.5 -95.5zM217 56
q50 0 73 77t23 200q0 124 -23 200.5t-73 76.5q-96 0 -96 -277t96 -277zM253 723h-46l-100 144h67z" />
    <glyph glyph-name="uni1EDD" unicode="&#x1edd;" horiz-adv-x="382" 
d="M368 530q0 -67 -56 -118q32 -67 32 -170q0 -110 -37.5 -182t-115.5 -72t-116 72t-38 182q0 109 38 181t116 72q62 0 101 -51q30 32 35 67l-4 -1h-6q-16 0 -27 11.5t-11 28.5t11.5 29.5t29.5 12.5q20 0 34 -17t14 -45zM191 49q82 0 82 193q0 192 -82 192t-82 -192
q0 -193 82 -193zM228 556h-46l-100 144h67z" />
    <glyph glyph-name="uni1EDE" unicode="&#x1ede;" horiz-adv-x="434" 
d="M217 -12q-61 0 -101 48t-56.5 122.5t-16.5 174.5t16.5 174.5t56.5 122.5t101 48q90 0 134 -102q32 32 37 69l-4 -1h-6q-16 0 -27 11.5t-11 28.5t11.5 29.5t29.5 12.5q20 0 34 -17t14 -45q0 -74 -64 -125q26 -82 26 -206q0 -154 -42.5 -249.5t-131.5 -95.5zM217 56
q50 0 73 77t23 200q0 124 -23 200.5t-73 76.5q-96 0 -96 -277t96 -277zM192 766l-31 7q11 47 57 47q25 0 40 -15.5t15 -45.5q0 -32 -20 -62h-34q22 29 22 61t-23 32q-20 0 -26 -24z" />
    <glyph glyph-name="uni1EDF" unicode="&#x1edf;" horiz-adv-x="382" 
d="M368 530q0 -67 -56 -118q32 -67 32 -170q0 -110 -37.5 -182t-115.5 -72t-116 72t-38 182q0 109 38 181t116 72q62 0 101 -51q30 32 35 67l-4 -1h-6q-16 0 -27 11.5t-11 28.5t11.5 29.5t29.5 12.5q20 0 34 -17t14 -45zM191 49q82 0 82 193q0 192 -82 192t-82 -192
q0 -193 82 -193zM166 596l-31 7q11 47 57 47q25 0 40 -15.5t15 -45.5q0 -32 -20 -62h-34q22 29 22 61t-23 32q-20 0 -26 -24z" />
    <glyph glyph-name="uni1EE0" unicode="&#x1ee0;" horiz-adv-x="434" 
d="M217 -12q-61 0 -101 48t-56.5 122.5t-16.5 174.5t16.5 174.5t56.5 122.5t101 48q90 0 134 -102q32 32 37 69l-4 -1h-6q-16 0 -27 11.5t-11 28.5t11.5 29.5t29.5 12.5q20 0 34 -17t14 -45q0 -74 -64 -125q26 -82 26 -206q0 -154 -42.5 -249.5t-131.5 -95.5zM217 56
q50 0 73 77t23 200q0 124 -23 200.5t-73 76.5q-96 0 -96 -277t96 -277zM258 721q-24 0 -38 23.5t-23.5 47.5t-21.5 24q-31 0 -31 -89h-39q0 59 18.5 96.5t54.5 37.5q24 0 38 -23.5t24 -47.5t22 -24q30 0 30 89h39q0 -59 -18.5 -96.5t-54.5 -37.5z" />
    <glyph glyph-name="uni1EE1" unicode="&#x1ee1;" horiz-adv-x="382" 
d="M368 530q0 -67 -56 -118q32 -67 32 -170q0 -110 -37.5 -182t-115.5 -72t-116 72t-38 182q0 109 38 181t116 72q62 0 101 -51q30 32 35 67l-4 -1h-6q-16 0 -27 11.5t-11 28.5t11.5 29.5t29.5 12.5q20 0 34 -17t14 -45zM191 49q82 0 82 193q0 192 -82 192t-82 -192
q0 -193 82 -193zM221 554q-24 0 -38 24t-23.5 47.5t-21.5 23.5q-31 0 -31 -89h-39q0 59 18.5 96.5t54.5 37.5q19 0 32 -15t19 -32.5t14.5 -32.5t18.5 -15q30 0 30 89h39q0 -59 -18.5 -96.5t-54.5 -37.5z" />
    <glyph glyph-name="uni1EE2" unicode="&#x1ee2;" horiz-adv-x="434" 
d="M217 -12q-61 0 -101 48t-56.5 122.5t-16.5 174.5t16.5 174.5t56.5 122.5t101 48q90 0 134 -102q32 32 37 69l-4 -1h-6q-16 0 -27 11.5t-11 28.5t11.5 29.5t29.5 12.5q20 0 34 -17t14 -45q0 -74 -64 -125q26 -82 26 -206q0 -154 -42.5 -249.5t-131.5 -95.5zM217 56
q50 0 73 77t23 200q0 124 -23 200.5t-73 76.5q-96 0 -96 -277t96 -277zM219 -182q-18 0 -31 13t-13 31t13 31t31 13t31 -13t13 -31t-13 -31t-31 -13z" />
    <glyph glyph-name="uni1EE3" unicode="&#x1ee3;" horiz-adv-x="382" 
d="M368 530q0 -67 -56 -118q32 -67 32 -170q0 -110 -37.5 -182t-115.5 -72t-116 72t-38 182q0 109 38 181t116 72q62 0 101 -51q30 32 35 67l-4 -1h-6q-16 0 -27 11.5t-11 28.5t11.5 29.5t29.5 12.5q20 0 34 -17t14 -45zM191 49q82 0 82 193q0 192 -82 192t-82 -192
q0 -193 82 -193zM193 -182q-18 0 -31 13t-13 31t13 31t31 13t31 -13t13 -31t-13 -31t-31 -13z" />
    <glyph glyph-name="uni1EE4" unicode="&#x1ee4;" horiz-adv-x="437" 
d="M218 -12q-70 0 -112.5 46t-42.5 138v495h75v-498q0 -114 80 -114q81 0 81 114v498h75v-495q0 -92 -43 -138t-113 -46zM221 -182q-18 0 -31 13t-13 31t13 31t31 13t31 -13t13 -31t-13 -31t-31 -13z" />
    <glyph glyph-name="uni1EE5" unicode="&#x1ee5;" 
d="M322 0h-68v66q-17 -34 -45.5 -56t-62.5 -22q-48 0 -69 25t-21 80v390h68v-372q0 -62 46 -62q26 0 49 22.5t35 54.5v357h68v-483zM190 -182q-18 0 -31 13t-13 31t13 31t31 13t31 -13t13 -31t-13 -31t-31 -13z" />
    <glyph glyph-name="uni1EE6" unicode="&#x1ee6;" horiz-adv-x="437" 
d="M218 -12q-70 0 -112.5 46t-42.5 138v495h75v-498q0 -114 80 -114q81 0 81 114v498h75v-495q0 -92 -43 -138t-113 -46zM193 766l-31 7q11 47 57 47q25 0 40 -15.5t15 -45.5q0 -32 -20 -62h-34q22 29 22 61t-23 32q-20 0 -26 -24z" />
    <glyph glyph-name="uni1EE7" unicode="&#x1ee7;" 
d="M322 0h-68v66q-17 -34 -45.5 -56t-62.5 -22q-48 0 -69 25t-21 80v390h68v-372q0 -62 46 -62q26 0 49 22.5t35 54.5v357h68v-483zM164 596l-31 7q11 47 57 47q25 0 40 -15.5t15 -45.5q0 -32 -20 -62h-34q22 29 22 61t-23 32q-20 0 -26 -24z" />
    <glyph glyph-name="uni1EE8" unicode="&#x1ee8;" horiz-adv-x="437" 
d="M328 867l-100 -144h-46l79 144h67zM467 729q0 -41 -24 -80.5t-69 -65.5v-411q0 -92 -43 -138t-113 -46t-112.5 46t-42.5 138v495h75v-498q0 -114 80 -114q81 0 81 114v498h75v-41q21 15 35.5 39.5t16.5 44.5q-2 -2 -10 -2q-16 0 -27 12t-11 29t11.5 29t29.5 12
q20 0 34 -16.5t14 -44.5z" />
    <glyph glyph-name="uni1EE9" unicode="&#x1ee9;" 
d="M298 700l-100 -144h-46l79 144h67zM322 0h-68v66q-17 -34 -45.5 -56t-62.5 -22q-48 0 -69 25t-21 80v390h68v-372q0 -62 46 -62q26 0 49 22.5t35 54.5v357h68v-33q31 34 34 66h-4q-4 -1 -6 -1q-16 0 -27 11.5t-11 28.5t11.5 29t29.5 12q20 0 34 -16t14 -44
q0 -80 -75 -134v-402z" />
    <glyph glyph-name="uni1EEA" unicode="&#x1eea;" horiz-adv-x="437" 
d="M255 723h-46l-100 144h67zM467 729q0 -41 -24 -80.5t-69 -65.5v-411q0 -92 -43 -138t-113 -46t-112.5 46t-42.5 138v495h75v-498q0 -114 80 -114q81 0 81 114v498h75v-41q21 15 35.5 39.5t16.5 44.5q-2 -2 -10 -2q-16 0 -27 12t-11 29t11.5 29t29.5 12q20 0 34 -16.5
t14 -44.5z" />
    <glyph glyph-name="uni1EEB" unicode="&#x1eeb;" 
d="M226 556h-46l-100 144h67zM322 0h-68v66q-17 -34 -45.5 -56t-62.5 -22q-48 0 -69 25t-21 80v390h68v-372q0 -62 46 -62q26 0 49 22.5t35 54.5v357h68v-33q31 34 34 66h-4q-4 -1 -6 -1q-16 0 -27 11.5t-11 28.5t11.5 29t29.5 12q20 0 34 -16t14 -44q0 -80 -75 -134v-402z
" />
    <glyph glyph-name="uni1EEC" unicode="&#x1eec;" horiz-adv-x="437" 
d="M193 766l-31 7q11 47 57 47q25 0 40 -15.5t15 -45.5q0 -32 -20 -62h-34q22 29 22 61t-23 32q-20 0 -26 -24zM467 729q0 -41 -24 -80.5t-69 -65.5v-411q0 -92 -43 -138t-113 -46t-112.5 46t-42.5 138v495h75v-498q0 -114 80 -114q81 0 81 114v498h75v-41q21 15 35.5 39.5
t16.5 44.5q-2 -2 -10 -2q-16 0 -27 12t-11 29t11.5 29t29.5 12q20 0 34 -16.5t14 -44.5z" />
    <glyph glyph-name="uni1EED" unicode="&#x1eed;" 
d="M164 596l-31 7q11 47 57 47q25 0 40 -15.5t15 -45.5q0 -32 -20 -62h-34q22 29 22 61t-23 32q-20 0 -26 -24zM322 0h-68v66q-17 -34 -45.5 -56t-62.5 -22q-48 0 -69 25t-21 80v390h68v-372q0 -62 46 -62q26 0 49 22.5t35 54.5v357h68v-33q31 34 34 66h-4q-4 -1 -6 -1
q-16 0 -27 11.5t-11 28.5t11.5 29t29.5 12q20 0 34 -16t14 -44q0 -80 -75 -134v-402z" />
    <glyph glyph-name="uni1EEE" unicode="&#x1eee;" horiz-adv-x="437" 
d="M467 729q0 -41 -24 -80.5t-69 -65.5v-411q0 -92 -43 -138t-113 -46t-112.5 46t-42.5 138v495h75v-498q0 -114 80 -114q81 0 81 114v498h75v-41q21 15 35.5 39.5t16.5 44.5q-2 -2 -10 -2q-16 0 -27 12t-11 29t11.5 29t29.5 12q20 0 34 -16.5t14 -44.5zM258 721
q-24 0 -38 23.5t-23.5 47.5t-21.5 24q-31 0 -31 -89h-39q0 59 18.5 96.5t54.5 37.5q24 0 38 -23.5t24 -47.5t22 -24q30 0 30 89h39q0 -59 -18.5 -96.5t-54.5 -37.5z" />
    <glyph glyph-name="uni1EEF" unicode="&#x1eef;" 
d="M322 0h-68v66q-17 -34 -45.5 -56t-62.5 -22q-48 0 -69 25t-21 80v390h68v-372q0 -62 46 -62q26 0 49 22.5t35 54.5v357h68v-33q31 34 34 66h-4q-4 -1 -6 -1q-16 0 -27 11.5t-11 28.5t11.5 29t29.5 12q20 0 34 -16t14 -44q0 -80 -75 -134v-402zM229 554q-24 0 -38 24
t-23.5 47.5t-21.5 23.5q-31 0 -31 -89h-39q0 59 18.5 96.5t54.5 37.5q19 0 32 -15t19 -32.5t14.5 -32.5t18.5 -15q30 0 30 89h39q0 -59 -18.5 -96.5t-54.5 -37.5z" />
    <glyph glyph-name="uni1EF0" unicode="&#x1ef0;" horiz-adv-x="437" 
d="M221 -182q-18 0 -31 13t-13 31t13 31t31 13t31 -13t13 -31t-13 -31t-31 -13zM467 729q0 -41 -24 -80.5t-69 -65.5v-411q0 -92 -43 -138t-113 -46t-112.5 46t-42.5 138v495h75v-498q0 -114 80 -114q81 0 81 114v498h75v-41q21 15 35.5 39.5t16.5 44.5q-2 -2 -10 -2
q-16 0 -27 12t-11 29t11.5 29t29.5 12q20 0 34 -16.5t14 -44.5z" />
    <glyph glyph-name="uni1EF1" unicode="&#x1ef1;" 
d="M190 -182q-18 0 -31 13t-13 31t13 31t31 13t31 -13t13 -31t-13 -31t-31 -13zM322 0h-68v66q-17 -34 -45.5 -56t-62.5 -22q-48 0 -69 25t-21 80v390h68v-372q0 -62 46 -62q26 0 49 22.5t35 54.5v357h68v-33q31 34 34 66h-4q-4 -1 -6 -1q-16 0 -27 11.5t-11 28.5t11.5 29
t29.5 12q20 0 34 -16t14 -44q0 -80 -75 -134v-402z" />
    <glyph glyph-name="Ygrave" unicode="&#x1ef2;" horiz-adv-x="372" 
d="M224 0h-75v283l-150 384h82l105 -307l107 307h80l-149 -384v-283zM223 723h-46l-100 144h67z" />
    <glyph glyph-name="ygrave" unicode="&#x1ef3;" horiz-adv-x="326" 
d="M33 -189l11 60q10 -6 24 -6q17 0 26 10t16 35l19 75l-120 498h74l79 -396l82 396h72l-143 -589q-14 -51 -36.5 -70.5t-61.5 -19.5q-26 0 -42 7zM199 556h-46l-100 144h67z" />
    <glyph glyph-name="thinspace" unicode="&#x2009;" horiz-adv-x="34" 
 />
    <glyph glyph-name="endash" unicode="&#x2013;" horiz-adv-x="460" 
d="M430 211h-400v61h400v-61z" />
    <glyph glyph-name="emdash" unicode="&#x2014;" horiz-adv-x="640" 
d="M610 211h-580v61h580v-61z" />
    <glyph glyph-name="afii00208" unicode="&#x2015;" horiz-adv-x="460" 
d="M430 211h-400v61h400v-61z" />
    <glyph glyph-name="quoteleft" unicode="&#x2018;" horiz-adv-x="228" 
d="M58 531q0 43 22 82.5t56 63.5l36 -28q-24 -17 -42.5 -43t-21.5 -50q1 0 5.5 1t7.5 1q20 0 33 -14t13 -35t-14.5 -35.5t-36.5 -14.5q-24 0 -41 19.5t-17 52.5z" />
    <glyph glyph-name="quoteright" unicode="&#x2019;" horiz-adv-x="228" 
d="M170 604q0 -43 -22 -82.5t-56 -62.5l-35 28q24 16 42 42.5t21 50.5q-4 -2 -12 -2q-20 0 -33.5 14t-13.5 34q0 21 14.5 36t36.5 15q24 0 41 -19.5t17 -53.5z" />
    <glyph glyph-name="quotesinglbase" unicode="&#x201a;" horiz-adv-x="227" 
d="M170 20q0 -43 -22 -82t-56 -63l-35 28q24 17 42 43t21 50q-1 0 -5.5 -0.5t-6.5 -0.5q-20 0 -33.5 13.5t-13.5 34.5t14.5 35.5t36.5 14.5q24 0 41 -19.5t17 -53.5z" />
    <glyph glyph-name="quotereversed" unicode="&#x201b;" horiz-adv-x="228" 
d="M58 604q0 34 17 53.5t41 19.5q21 0 35.5 -15t14.5 -36q0 -20 -13.5 -34t-32.5 -14q-10 0 -12 2q3 -24 21 -50.5t42 -42.5l-35 -28q-34 23 -56 62.5t-22 82.5z" />
    <glyph glyph-name="quotedblleft" unicode="&#x201c;" horiz-adv-x="382" 
d="M58 531q0 43 22 82.5t56 63.5l35 -28q-24 -17 -42 -43t-21 -50l5 1q5 1 7 1q20 0 33 -14t13 -35q0 -20 -14.5 -35t-35.5 -15q-24 0 -41 19.5t-17 52.5zM212 531q0 43 22 82.5t56 63.5l36 -28q-25 -17 -43 -43t-20 -50l5 1q4 1 7 1q20 0 33 -14t13 -35q0 -20 -14.5 -35
t-35.5 -15q-25 0 -42 19.5t-17 52.5z" />
    <glyph glyph-name="quotedblright" unicode="&#x201d;" horiz-adv-x="382" 
d="M325 604q0 -43 -22.5 -82.5t-56.5 -62.5l-35 28q24 16 42.5 42.5t20.5 50.5q-2 -2 -12 -2q-19 0 -32.5 14t-13.5 34q0 21 14.5 36t36.5 15q24 0 41 -19.5t17 -53.5zM170 604q0 -43 -22 -82.5t-56 -62.5l-35 28q24 16 42 42.5t21 50.5q-4 -2 -12 -2q-20 0 -33.5 14
t-13.5 34q0 21 14.5 36t36.5 15q24 0 41 -19.5t17 -53.5z" />
    <glyph glyph-name="quotedblbase" unicode="&#x201e;" horiz-adv-x="381" 
d="M170 20q0 -43 -22 -82t-56 -63l-35 28q24 17 42 43t21 50q-1 0 -5.5 -0.5t-6.5 -0.5q-20 0 -33.5 13.5t-13.5 34.5t14.5 35.5t36.5 14.5q24 0 41 -19.5t17 -53.5zM325 20q0 -43 -22 -82t-57 -63l-35 28q25 17 43 43t20 50h-5q-5 -1 -7 -1q-20 0 -33 13.5t-13 34.5
t15 35.5t36 14.5q24 0 41 -19.5t17 -53.5z" />
    <glyph glyph-name="dagger" unicode="&#x2020;" horiz-adv-x="261" 
d="M238 532l-89 4l4 -209h-45l4 209l-89 -4v41l89 -3l-4 107h45l-4 -107l89 3v-41z" />
    <glyph glyph-name="daggerdbl" unicode="&#x2021;" horiz-adv-x="261" 
d="M238 573v-41l-89 4v-215l89 4v-41l-89 3l4 -107h-45l4 107l-89 -3v41l89 -4v215l-89 -4v41l89 -3l-4 107h45l-4 -107z" />
    <glyph glyph-name="bullet" unicode="&#x2022;" horiz-adv-x="358" 
d="M286 242q0 -44 -31 -74.5t-75 -30.5t-75 30.5t-31 74.5t31 75t75 31t75 -31t31 -75z" />
    <glyph glyph-name="ellipsis" unicode="&#x2026;" horiz-adv-x="680" 
d="M165 42q0 -21 -15 -36.5t-37 -15.5q-21 0 -36.5 15.5t-15.5 36.5t15.5 36t36.5 15q22 0 37 -15t15 -36zM392 42q0 -21 -15.5 -36.5t-36.5 -15.5q-22 0 -37 15.5t-15 36.5t15 36t37 15q21 0 36.5 -15t15.5 -36zM618 42q0 -21 -15 -36.5t-37 -15.5q-21 0 -36 15.5t-15 36.5
t15 36t36 15q22 0 37 -15t15 -36z" />
    <glyph glyph-name="perthousand" unicode="&#x2030;" horiz-adv-x="840" 
d="M270 512q0 -71 -32.5 -117t-87.5 -46t-88 46t-33 117q0 72 33 118.5t88 46.5t87.5 -46.5t32.5 -118.5zM443 667l-274 -667h-41l273 667h42zM541 151q0 -71 -33 -117t-88 -46q-54 0 -87 46t-33 117q0 72 33 118.5t87 46.5q55 0 88 -46.5t33 -118.5zM218 512q0 52 -18.5 85
t-49.5 33q-32 0 -50 -33t-18 -85q0 -51 18 -84t50 -33q31 0 49.5 33.5t18.5 83.5zM488 151q0 52 -18 85t-50 33q-31 0 -49.5 -33t-18.5 -85q0 -50 18.5 -83t49.5 -33q32 0 50 32.5t18 83.5zM811 151q0 -71 -33 -117t-88 -46t-87.5 46t-32.5 117q0 72 32.5 118.5t87.5 46.5
t88 -46.5t33 -118.5zM758 151q0 52 -18 85t-50 33q-31 0 -49.5 -33t-18.5 -85q0 -50 18.5 -83t49.5 -33q32 0 50 32.5t18 83.5z" />
    <glyph glyph-name="guilsinglleft" unicode="&#x2039;" horiz-adv-x="208" 
d="M178 63h-58l-90 180l90 177h58l-90 -177z" />
    <glyph glyph-name="guilsinglright" unicode="&#x203a;" horiz-adv-x="208" 
d="M178 243l-90 -180h-58l90 180l-90 177h58z" />
    <glyph glyph-name="uni203E" unicode="&#x203e;" horiz-adv-x="248" 
d="M248 573h-248v45h248v-45z" />
    <glyph glyph-name="fraction" unicode="&#x2044;" horiz-adv-x="115" 
d="M215 667l-274 -667h-41l273 667h42z" />
    <glyph glyph-name="zerosuperior" unicode="&#x2070;" horiz-adv-x="265" 
d="M248 621q0 -53 -10.5 -97.5t-37.5 -77t-67 -32.5q-59 0 -87.5 61t-28.5 146q0 84 28.5 145t87.5 61q40 0 67 -32t37.5 -76.5t10.5 -97.5zM190 621q0 160 -57 160q-58 0 -58 -160q0 -161 58 -161q57 0 57 161z" />
    <glyph glyph-name="foursuperior" unicode="&#x2074;" horiz-adv-x="265" 
d="M249 523h-36v-102h-55v102h-141v46l128 252h68v-253h36v-45zM158 568v189l-93 -189h93z" />
    <glyph glyph-name="fivesuperior" unicode="&#x2075;" horiz-adv-x="265" 
d="M241 546q0 -57 -30.5 -94.5t-81.5 -37.5q-73 0 -108 66l37 32q25 -52 69 -52q26 0 42 25t16 61q0 41 -14.5 63t-39.5 22q-33 0 -58 -40l-41 15v215h191v-46h-137v-136q22 34 64 34q39 0 65 -33t26 -94z" />
    <glyph glyph-name="sixsuperior" unicode="&#x2076;" horiz-adv-x="265" 
d="M243 545q0 -55 -28 -93t-78 -38q-42 0 -69 30.5t-37 74.5t-10 102q0 90 31.5 148t94.5 58q57 0 86 -49l-30 -36q-20 39 -55 39q-25 0 -41.5 -23.5t-22.5 -56t-6 -71.5v-12q23 57 74 57q39 0 65 -34t26 -96zM187 544q0 86 -52 86q-35 0 -58 -58q5 -112 57 -112
q26 0 39.5 25t13.5 59z" />
    <glyph glyph-name="sevensuperior" unicode="&#x2077;" horiz-adv-x="238" 
d="M222 783l-109 -362h-54l109 354h-151v46h205v-38z" />
    <glyph glyph-name="eightsuperior" unicode="&#x2078;" horiz-adv-x="265" 
d="M241 520q0 -50 -29 -78t-80 -28q-52 0 -81 28t-29 78q0 36 21.5 66t49.5 41q-27 11 -46.5 37.5t-19.5 61.5q0 49 30.5 75t74.5 26t74.5 -26t30.5 -75q0 -35 -20 -61.5t-46 -37.5q27 -11 48.5 -41t21.5 -66zM182 719q0 30 -13.5 46.5t-36.5 16.5q-50 0 -50 -63
q0 -22 11.5 -39.5t21.5 -24.5t17 -9q7 2 17 9t21.5 24.5t11.5 39.5zM186 525q0 34 -20 57t-34 25q-14 -3 -34 -26t-20 -57q0 -32 15 -49t39 -17q23 0 38.5 17.5t15.5 49.5z" />
    <glyph glyph-name="ninesuperior" unicode="&#x2079;" horiz-adv-x="265" 
d="M23 696q0 55 28.5 93t77.5 38q42 0 69 -30.5t37 -74.5t10 -102q0 -90 -31 -148t-95 -58q-57 0 -86 49l30 36q19 -39 55 -39q35 0 52.5 45t17.5 107v11q-23 -57 -75 -57q-39 0 -64.5 34t-25.5 96zM79 697q0 -86 52 -86q19 0 34 17t23 42q-3 111 -57 111q-26 0 -39 -25
t-13 -59z" />
    <glyph glyph-name="parenleftsuperior" unicode="&#x207d;" horiz-adv-x="133" 
d="M121 368l-28 -12q-65 121 -65 265t65 265l28 -12q-48 -121 -48 -253t48 -253z" />
    <glyph glyph-name="parenrightsuperior" unicode="&#x207e;" horiz-adv-x="133" 
d="M105 621q0 -141 -65 -265l-29 12q49 119 49 253t-49 253l29 12q65 -124 65 -265z" />
    <glyph glyph-name="nsuperior" unicode="&#x207f;" horiz-adv-x="287" 
d="M242 326h-53v233q0 44 -34 44q-17 0 -32.5 -14.5t-23.5 -34.5v-228h-54v314h54v-43q11 21 32.5 36t43.5 15q39 0 53 -19.5t14 -57.5v-245z" />
    <glyph glyph-name="zeroinferior" unicode="&#x2080;" horiz-adv-x="265" 
d="M248 54q0 -53 -10.5 -97.5t-37.5 -77t-67 -32.5q-59 0 -87.5 61t-28.5 146q0 84 28.5 145t87.5 61q40 0 67 -32t37.5 -76.5t10.5 -97.5zM190 54q0 160 -57 160q-58 0 -58 -160q0 -161 58 -161q57 0 57 161z" />
    <glyph glyph-name="oneinferior" unicode="&#x2081;" horiz-adv-x="215" 
d="M162 -146h-55v328l-60 -63l-32 33l99 102h48v-400z" />
    <glyph glyph-name="twoinferior" unicode="&#x2082;" horiz-adv-x="265" 
d="M241 -146h-210v42q99 130 126 174.5t27 83.5q0 27 -15 43.5t-39 16.5q-45 0 -70 -51l-36 32q40 65 109 65q48 0 77 -28t29 -77q0 -42 -27 -90t-112 -165h141v-46z" />
    <glyph glyph-name="threeinferior" unicode="&#x2083;" horiz-adv-x="265" 
d="M243 -37q0 -52 -29.5 -84t-82.5 -32q-75 0 -111 66l39 32q25 -52 70 -52q58 0 58 73q0 38 -18 54.5t-43 16.5q-22 0 -27 -1v46q5 -1 24 -1q27 0 43.5 17t16.5 49q0 67 -54 67q-42 0 -68 -48l-37 30q36 64 107 64q48 0 77 -27t29 -80q0 -33 -18 -59t-46 -33q28 -6 49 -33
t21 -65z" />
    <glyph glyph-name="fourinferior" unicode="&#x2084;" horiz-adv-x="265" 
d="M249 -44h-36v-102h-55v102h-141v46l128 252h68v-253h36v-45zM158 1v189l-93 -189h93z" />
    <glyph glyph-name="fiveinferior" unicode="&#x2085;" horiz-adv-x="265" 
d="M241 -21q0 -57 -30.5 -94.5t-81.5 -37.5q-73 0 -108 66l37 32q25 -52 69 -52q26 0 42 25t16 61q0 41 -14.5 63t-39.5 22q-33 0 -58 -40l-41 15v215h191v-46h-137v-136q22 34 64 34q39 0 65 -33t26 -94z" />
    <glyph glyph-name="sixinferior" unicode="&#x2086;" horiz-adv-x="265" 
d="M243 -22q0 -55 -28 -93t-78 -38q-42 0 -69 30.5t-37 74.5t-10 102q0 90 31.5 148t94.5 58q57 0 86 -49l-30 -36q-20 39 -55 39q-25 0 -41.5 -23.5t-22.5 -56t-6 -71.5v-12q23 57 74 57q39 0 65 -34t26 -96zM187 -23q0 86 -52 86q-35 0 -58 -58q5 -112 57 -112
q26 0 39.5 25t13.5 59z" />
    <glyph glyph-name="seveninferior" unicode="&#x2087;" horiz-adv-x="238" 
d="M222 216l-109 -362h-54l109 354h-151v46h205v-38z" />
    <glyph glyph-name="eightinferior" unicode="&#x2088;" horiz-adv-x="265" 
d="M241 -47q0 -50 -29 -78t-80 -28q-52 0 -81 28t-29 78q0 36 21.5 66t49.5 41q-27 11 -46.5 37.5t-19.5 61.5q0 49 30.5 75t74.5 26t74.5 -26t30.5 -75q0 -35 -20 -61.5t-46 -37.5q27 -11 48.5 -41t21.5 -66zM182 152q0 30 -13.5 46.5t-36.5 16.5q-50 0 -50 -63
q0 -22 11.5 -39.5t21.5 -24.5t17 -9q7 2 17 9t21.5 24.5t11.5 39.5zM186 -42q0 34 -20 57t-34 25q-14 -3 -34 -26t-20 -57q0 -32 15 -49t39 -17q23 0 38.5 17.5t15.5 49.5z" />
    <glyph glyph-name="nineinferior" unicode="&#x2089;" horiz-adv-x="265" 
d="M23 129q0 55 28.5 93t77.5 38q42 0 69 -30.5t37 -74.5t10 -102q0 -90 -31 -148t-95 -58q-57 0 -86 49l30 36q19 -39 55 -39q35 0 52.5 45t17.5 107v11q-23 -57 -75 -57q-39 0 -64.5 34t-25.5 96zM79 130q0 -86 52 -86q19 0 34 17t23 42q-3 111 -57 111q-26 0 -39 -25
t-13 -59z" />
    <glyph glyph-name="parenleftinferior" unicode="&#x208d;" horiz-adv-x="133" 
d="M121 -199l-28 -12q-65 121 -65 265t65 265l28 -12q-48 -121 -48 -253t48 -253z" />
    <glyph glyph-name="parenrightinferior" unicode="&#x208e;" horiz-adv-x="133" 
d="M105 54q0 -141 -65 -265l-29 12q49 119 49 253t-49 253l29 12q65 -124 65 -265z" />
    <glyph glyph-name="colonmonetary" unicode="&#x20a1;" horiz-adv-x="364" 
d="M209 -12q-14 0 -26 3l-19 -91h-45l22 106q-20 13 -37 33l-28 -139h-45l40 196q-36 88 -36 237q0 148 38 241t118 103l19 91h46l-19 -93q20 -4 39 -15l22 108h46l-30 -145q18 -27 33 -73l-53 -21l-98 -472q4 -1 13 -1q33 0 50.5 26.5t27.5 74.5l63 -23q-34 -146 -141 -146
zM129 154q11 -44 28 -68l103 497q-15 21 -37 25zM113 333v-34l62 300q-62 -47 -62 -266z" />
    <glyph glyph-name="frenchfranc" unicode="&#x20a3;" horiz-adv-x="368" 
d="M155 0h-75v140h-59v45h59v482h248v-67h-173v-225h166v-67h-166v-123h102v-45h-102v-140z" />
    <glyph glyph-name="lira" unicode="&#x20a4;" horiz-adv-x="380" 
d="M30 327v44h43q-24 53 -24 116q0 78 44 134t112 56q53 0 89.5 -30t48.5 -84l-60 -28q-23 78 -75 78q-32 0 -55.5 -34.5t-23.5 -93.5q0 -58 26 -114h100v-44h-79q18 -38 23 -72h56v-44h-55q-2 -37 -20 -74.5t-44 -59.5q18 10 38 10q23 0 52.5 -15.5t46.5 -15.5q44 0 65 34
l27 -59q-12 -18 -40.5 -30.5t-57.5 -12.5q-35 0 -67 20.5t-51 20.5q-31 0 -78 -36l-27 55q40 27 64 70.5t24 88.5v4h-102v44h95q-6 23 -31 72h-64z" />
    <glyph glyph-name="uni20A6" unicode="&#x20a6;" horiz-adv-x="470" 
d="M390 0h-72l-83 243h-80v-243h-75v243h-59v45h59v98h-59v45h59v236h75l80 -236h80v236h75v-236h56v-45h-56v-98h56v-45h-56v-243zM155 386v-98h65l-33 98h-32zM250 386l33 -98h32v98h-65zM155 482v-51h17zM298 243l17 -49v49h-17z" />
    <glyph glyph-name="peseta" unicode="&#x20a7;" horiz-adv-x="441" 
d="M428 443h-53q-6 -77 -46 -125.5t-112 -48.5h-62v-269h-75v443h-59v49h59v175h137q72 0 112 -49t46 -126h53v-49zM155 600v-108h142q-5 50 -27 79t-60 29h-55zM210 336q38 0 60 28.5t27 78.5h-142v-107h55z" />
    <glyph glyph-name="rupee" unicode="&#x20a8;" horiz-adv-x="681" 
d="M524 -12q-86 0 -131 61l33 47q40 -52 93 -52q30 0 50.5 19.5t20.5 52.5q0 25 -13.5 46t-33.5 34.5t-44 31t-44 35t-33.5 46.5t-13.5 66q0 52 35.5 86t92.5 34q70 0 115 -54l-32 -46q-31 44 -82 44q-29 0 -46.5 -18t-17.5 -44q0 -28 18.5 -50.5t45.5 -40t54 -37.5
t45.5 -53.5t18.5 -77.5q0 -58 -37.5 -94t-93.5 -36zM365 0h-81l-87 269h-59v-269h-75v667h140q69 0 112.5 -53.5t43.5 -143.5q0 -80 -27.5 -125t-64.5 -59zM193 336q43 0 65.5 36t22.5 96t-22.5 96t-65.5 36h-55v-264h55z" />
    <glyph glyph-name="uni20A9" unicode="&#x20a9;" horiz-adv-x="578" 
d="M439 0h-80l-33 243h-74l-33 -243h-79l-39 243h-73v45h65l-15 98h-50v45h43l-38 236h78l31 -236h82l33 236h64l34 -236h81l31 236h78l-38 -236h38v-45h-45l-16 -98h61v-45h-68zM148 386l13 -98h42l14 98h-69zM361 386l14 -98h42l13 98h-69zM271 386l-13 -98h62l-14 98h-35
zM167 243l15 -107l15 107h-30zM382 243l15 -107l14 107h-29zM289 514l-12 -83h23z" />
    <glyph glyph-name="afii57636" unicode="&#x20aa;" horiz-adv-x="497" 
d="M303 0h-138v397h56v-344h82q42 0 62 23.5t20 78.5v395h56v-345q0 -113 -32 -159t-106 -46zM195 550q74 0 106 -46.5t32 -158.5v-193h-57v243q0 55 -19.5 78.5t-61.5 23.5h-83v-497h-56v550h139z" />
    <glyph glyph-name="dong" unicode="&#x20ab;" horiz-adv-x="397" 
d="M317 -140h-248v45h248v-45zM328 0h-68v65q-15 -36 -40.5 -56.5t-50.5 -20.5q-66 0 -99 68.5t-33 184.5q0 115 33 184.5t99 69.5q26 0 51.5 -20.5t39.5 -58.5v120h-120v45h120v86h68v-86h45v-45h-45v-536zM186 49q23 0 44.5 24t29.5 56v224q-9 32 -30 56.5t-44 24.5
q-77 0 -77 -193q0 -192 77 -192z" />
    <glyph glyph-name="Euro" unicode="&#x20ac;" horiz-adv-x="403" 
d="M230 -12q-75 0 -117 67.5t-53 183.5h-44v48h41q-1 15 -1 46q0 32 1 48h-41v49h44q12 115 54 181.5t116 66.5q99 0 138 -128l-62 -24q-13 43 -29.5 63.5t-46.5 20.5q-77 0 -92 -180h119v-49h-122q-1 -16 -1 -48q0 -31 1 -46h122v-48h-120q17 -183 93 -183q33 0 50.5 26.5
t27.5 74.5l63 -23q-34 -146 -141 -146z" />
    <glyph glyph-name="afii61289" unicode="&#x2113;" horiz-adv-x="375" 
d="M134 273v-177q0 -54 30 -54q18 0 33 17l22 -43q-25 -28 -68 -28t-64 24.5t-21 79.5v432q0 68 41 110.5t109 42.5q56 0 98.5 -33t42.5 -91q0 -37 -17 -69t-64 -77zM134 352l93 90q36 36 50.5 59.5t14.5 51.5q0 30 -22 50t-54 20q-38 0 -60 -26t-22 -73v-172z" />
    <glyph glyph-name="afii61352" unicode="&#x2116;" horiz-adv-x="725" 
d="M580 350q-55 0 -84 47.5t-29 117.5t29 117.5t84 47.5q56 0 84.5 -47t28.5 -118t-28.5 -118t-84.5 -47zM580 395q58 0 58 120q0 119 -58 119q-57 0 -57 -119q0 -120 57 -120zM373 0h-72l-163 462v-462h-75v667h75l160 -453v453h75v-667z" />
    <glyph glyph-name="published" unicode="&#x2117;" horiz-adv-x="778" 
d="M734 334q0 -142 -101 -243.5t-244 -101.5t-244 101.5t-101 243.5t101 243.5t244 101.5t244 -101.5t101 -243.5zM704 334q0 130 -92.5 222.5t-222.5 92.5t-222 -92.5t-92 -222.5t92 -222.5t222 -92.5t222.5 92.5t92.5 222.5zM549 420q0 -52 -36.5 -83.5t-89.5 -31.5h-112
v-174h-36v405h148q53 0 89.5 -31.5t36.5 -84.5zM512 420q0 38 -24.5 60t-64.5 22h-112v-163h112q40 0 64.5 22t24.5 59z" />
    <glyph glyph-name="servicemark" unicode="&#x2120;" horiz-adv-x="374" 
d="M337 447h-28v182l-55 -182h-8l-55 182v-182h-28v220h43l44 -157l44 157h43v-220zM122 501q0 -26 -15.5 -43t-40.5 -17q-32 0 -51 21l14 25q16 -19 34 -19q12 0 21 9t9 24q0 17 -11.5 30.5t-24.5 22t-24.5 25t-11.5 37.5q0 25 15 41t39 16q25 0 43 -16l-12 -24
q-12 13 -29 13q-11 0 -18.5 -8t-7.5 -22t11 -26.5t24.5 -21.5t24.5 -26.5t11 -40.5z" />
    <glyph glyph-name="trademark" unicode="&#x2122;" horiz-adv-x="374" 
d="M339 447h-28v182l-55 -182h-8l-55 182v-182h-28v220h43l44 -157l44 157h43v-220zM129 641h-42v-194h-28v194h-42v26h112v-26z" />
    <glyph glyph-name="Omega" unicode="&#x2126;" horiz-adv-x="419" 
d="M45 67h73q-83 90 -83 279q0 156 44 244t131 88t130.5 -88t43.5 -244q0 -188 -84 -279h74v-67h-132v67q24 24 43.5 92t19.5 174q0 276 -95 276q-97 0 -97 -276q0 -106 19.5 -174t44.5 -92v-67h-132v67z" />
    <glyph glyph-name="estimated" unicode="&#x212e;" horiz-adv-x="842" 
d="M811 324h-632q-5 0 -5 -5v-190q0 -14 9 -23q98 -103 240 -103q151 0 250 115h57q-54 -63 -135 -99.5t-174 -36.5q-161 0 -275.5 103t-114.5 248t114.5 248t275.5 103t275.5 -103t114.5 -248v-9zM668 349v191q0 14 -10 24q-97 99 -235 99q-140 0 -239 -102
q-10 -10 -10 -24v-188q0 -6 5 -6h485q4 0 4 6z" />
    <glyph glyph-name="onethird" unicode="&#x2153;" horiz-adv-x="608" 
d="M162 267h-55v328l-60 -63l-32 33l99 102h48v-400zM444 667l-274 -667h-41l273 667h42zM587 109q0 -52 -29.5 -84t-82.5 -32q-75 0 -111 66l39 32q25 -52 70 -52q58 0 58 73q0 38 -18 54.5t-43 16.5q-22 0 -27 -1v46q5 -1 24 -1q27 0 43.5 17t16.5 49q0 67 -54 67
q-42 0 -68 -48l-37 30q36 64 107 64q48 0 77 -27t29 -80q0 -33 -18 -59t-46 -33q28 -6 49 -33t21 -65z" />
    <glyph glyph-name="twothirds" unicode="&#x2154;" horiz-adv-x="644" 
d="M241 267h-210v42q99 130 126 174.5t27 83.5q0 27 -15 43.5t-39 16.5q-45 0 -70 -51l-36 32q40 65 109 65q48 0 77 -28t29 -77q0 -42 -27 -90t-112 -165h141v-46zM480 667l-274 -667h-41l273 667h42zM623 109q0 -52 -29.5 -84t-82.5 -32q-75 0 -111 66l39 32
q25 -52 70 -52q58 0 58 73q0 38 -18 54.5t-43 16.5q-22 0 -27 -1v46q5 -1 24 -1q27 0 43.5 17t16.5 49q0 67 -54 67q-42 0 -68 -48l-37 30q36 64 107 64q48 0 77 -27t29 -80q0 -33 -18 -59t-46 -33q28 -6 49 -33t21 -65z" />
    <glyph glyph-name="oneeighth" unicode="&#x215b;" horiz-adv-x="608" 
d="M162 267h-55v328l-60 -63l-32 33l99 102h48v-400zM585 99q0 -50 -29 -78t-80 -28q-52 0 -81 28t-29 78q0 36 21.5 66t49.5 41q-27 11 -46.5 37.5t-19.5 61.5q0 49 30.5 75t74.5 26t74.5 -26t30.5 -75q0 -35 -20 -61.5t-46 -37.5q27 -11 48.5 -41t21.5 -66zM526 298
q0 30 -13.5 46.5t-36.5 16.5q-50 0 -50 -63q0 -22 11.5 -39.5t21.5 -24.5t17 -9q7 2 17 9t21.5 24.5t11.5 39.5zM530 104q0 34 -20 57t-34 25q-14 -3 -34 -26t-20 -57q0 -32 15 -49t39 -17q23 0 38.5 17.5t15.5 49.5zM444 667l-274 -667h-41l273 667h42z" />
    <glyph glyph-name="threeeighths" unicode="&#x215c;" horiz-adv-x="644" 
d="M621 99q0 -50 -29 -78t-80 -28q-52 0 -81 28t-29 78q0 36 21.5 66t49.5 41q-27 11 -46.5 37.5t-19.5 61.5q0 49 30.5 75t74.5 26t74.5 -26t30.5 -75q0 -35 -20 -61.5t-46 -37.5q27 -11 48.5 -41t21.5 -66zM562 298q0 30 -13.5 46.5t-36.5 16.5q-50 0 -50 -63
q0 -22 11.5 -39.5t21.5 -24.5t17 -9q7 2 17 9t21.5 24.5t11.5 39.5zM566 104q0 34 -20 57t-34 25q-14 -3 -34 -26t-20 -57q0 -32 15 -49t39 -17q23 0 38.5 17.5t15.5 49.5zM480 667l-274 -667h-41l273 667h42zM243 376q0 -52 -29.5 -84t-82.5 -32q-75 0 -111 66l39 32
q25 -52 70 -52q58 0 58 73q0 38 -18 54.5t-43 16.5q-22 0 -27 -1v46q5 -1 24 -1q27 0 43.5 17t16.5 49q0 67 -54 67q-42 0 -68 -48l-37 30q36 64 107 64q48 0 77 -27t29 -80q0 -33 -18 -59t-46 -33q28 -6 49 -33t21 -65z" />
    <glyph glyph-name="fiveeighths" unicode="&#x215d;" horiz-adv-x="642" 
d="M618 99q0 -50 -29 -78t-80 -28q-52 0 -81 28t-29 78q0 36 21.5 66t49.5 41q-27 11 -46.5 37.5t-19.5 61.5q0 49 30.5 75t74.5 26t74.5 -26t30.5 -75q0 -35 -20 -61.5t-46 -37.5q27 -11 48.5 -41t21.5 -66zM559 298q0 30 -13.5 46.5t-36.5 16.5q-50 0 -50 -63
q0 -22 11.5 -39.5t21.5 -24.5t17 -9q7 2 17 9t21.5 24.5t11.5 39.5zM563 104q0 34 -20 57t-34 25q-14 -3 -34 -26t-20 -57q0 -32 15 -49t39 -17q23 0 38.5 17.5t15.5 49.5zM241 392q0 -57 -30.5 -94.5t-81.5 -37.5q-73 0 -108 66l37 32q25 -52 69 -52q26 0 42 25t16 61
q0 41 -14.5 63t-39.5 22q-33 0 -58 -40l-41 15v215h191v-46h-137v-136q22 34 64 34q39 0 65 -33t26 -94zM477 667l-274 -667h-41l273 667h42z" />
    <glyph glyph-name="seveneighths" unicode="&#x215e;" horiz-adv-x="589" 
d="M565 99q0 -50 -29 -78t-80 -28q-52 0 -81 28t-29 78q0 36 21.5 66t49.5 41q-27 11 -46.5 37.5t-19.5 61.5q0 49 30.5 75t74.5 26t74.5 -26t30.5 -75q0 -35 -20 -61.5t-46 -37.5q27 -11 48.5 -41t21.5 -66zM506 298q0 30 -13.5 46.5t-36.5 16.5q-50 0 -50 -63
q0 -22 11.5 -39.5t21.5 -24.5t17 -9q7 2 17 9t21.5 24.5t11.5 39.5zM510 104q0 34 -20 57t-34 25q-14 -3 -34 -26t-20 -57q0 -32 15 -49t39 -17q23 0 38.5 17.5t15.5 49.5zM222 629l-109 -362h-54l109 354h-151v46h205v-38zM424 667l-274 -667h-41l273 667h42z" />
    <glyph glyph-name="arrowleft" unicode="&#x2190;" horiz-adv-x="582" 
d="M538 211h-269l12 -130l-281 205l281 204l-12 -129h269v-150z" />
    <glyph glyph-name="arrowup" unicode="&#x2191;" horiz-adv-x="582" 
d="M216 17v269l-130 -12l205 281l204 -281l-129 12v-269h-150z" />
    <glyph glyph-name="arrowright" unicode="&#x2192;" horiz-adv-x="582" 
d="M584 286l-281 -205l12 130h-268v150h268l-12 129z" />
    <glyph glyph-name="arrowdown" unicode="&#x2193;" horiz-adv-x="582" 
d="M366 555v-269l130 12l-205 -281l-204 281l129 -12v269h150z" />
    <glyph glyph-name="partialdiff" unicode="&#x2202;" horiz-adv-x="382" 
d="M191 -12q-78 0 -116 70.5t-38 176.5q0 105 35 175.5t104 70.5q57 0 83 -61q-29 135 -95 231l59 29q121 -192 121 -438q0 -111 -37.5 -182.5t-115.5 -71.5zM191 49q82 0 82 186t-82 186q-44 0 -63 -53.5t-19 -132.5q0 -186 82 -186z" />
    <glyph glyph-name="Delta" unicode="&#x2206;" horiz-adv-x="393" 
d="M387 0h-380l146 667h88zM299 67l-103 510l-101 -510h204z" />
    <glyph glyph-name="product" unicode="&#x220f;" horiz-adv-x="425" 
d="M354 -90h-75v690h-133v-690h-75v690h-53v67h389v-67h-53v-690z" />
    <glyph glyph-name="summation" unicode="&#x2211;" horiz-adv-x="326" 
d="M120 600l115 -301l-117 -322h175v-67h-251v70l116 319l-116 301v67h251v-67h-173z" />
    <glyph glyph-name="minus" unicode="&#x2212;" 
d="M349 312h-320v50h320v-50z" />
    <glyph glyph-name="uni2215" unicode="&#x2215;" horiz-adv-x="115" 
d="M215 667l-274 -667h-41l273 667h42z" />
    <glyph glyph-name="uni2219" unicode="&#x2219;" horiz-adv-x="227" 
d="M165 245q0 -21 -15 -36.5t-37 -15.5q-21 0 -36.5 15.5t-15.5 36.5q0 20 15.5 35.5t36.5 15.5t36.5 -15t15.5 -36z" />
    <glyph glyph-name="radical" unicode="&#x221a;" horiz-adv-x="465" 
d="M289 0h-55l-72 318l-111 -24l-9 48l156 32l64 -303l136 596h49z" />
    <glyph glyph-name="infinity" unicode="&#x221e;" horiz-adv-x="480" 
d="M137 172q-53 0 -80.5 48.5t-27.5 114.5t27.5 115t80.5 49q66 0 103 -108q15 48 41.5 77.5t60.5 29.5q53 0 81 -48.5t28 -114.5t-28 -114.5t-81 -48.5q-34 0 -60.5 30t-41.5 78q-36 -108 -103 -108zM334 221q32 0 49.5 31.5t17.5 82.5t-17.5 83t-49.5 32q-45 0 -72 -115
q27 -114 72 -114zM145 221q44 0 73 114q-29 115 -73 115q-31 0 -49 -32t-18 -83t17.5 -82.5t49.5 -31.5z" />
    <glyph glyph-name="integral" unicode="&#x222b;" horiz-adv-x="234" 
d="M47 -100h-30v51h30q18 0 30.5 15t12.5 38v659q0 46 29.5 75.5t67.5 29.5h30v-52h-30q-18 0 -30.5 -15t-12.5 -38v-659q0 -46 -29 -75t-68 -29z" />
    <glyph glyph-name="approxequal" unicode="&#x2248;" 
d="M29 212v53q35 -19 80 -19q33 0 76 16.5t84 16.5q47 0 80 -15v-52q-35 18 -80 18q-33 0 -76.5 -16.5t-83.5 -16.5q-42 0 -80 15zM29 404v52q36 -18 80 -18q33 0 76 16.5t84 16.5q43 0 80 -15v-53q-34 19 -80 19q-33 0 -76.5 -17t-83.5 -17q-43 0 -80 16z" />
    <glyph glyph-name="notequal" unicode="&#x2260;" 
d="M110 93h-41l49 119h-89v49h110l59 146h-169v49h190l48 118h42l-49 -118h89v-49h-110l-59 -146h169v-49h-190z" />
    <glyph glyph-name="lessequal" unicode="&#x2264;" 
d="M349 161l-320 149v49l320 149v-58l-259 -116l259 -114v-59zM349 44h-320v50h320v-50z" />
    <glyph glyph-name="greaterequal" unicode="&#x2265;" 
d="M349 310l-320 -149v59l259 114l-259 116v58l320 -149v-49zM349 44h-320v50h320v-50z" />
    <glyph glyph-name="triangleright" unicode="&#x22b2;" horiz-adv-x="587" 
d="M589 286l-535 -309v618z" />
    <glyph glyph-name="triangleleft" unicode="&#x22b3;" horiz-adv-x="587" 
d="M535 595v-618l-535 309z" />
    <glyph glyph-name="dotmath" unicode="&#x22c5;" horiz-adv-x="227" 
d="M165 245q0 -21 -15 -36.5t-37 -15.5q-21 0 -36.5 15.5t-15.5 36.5q0 20 15.5 35.5t36.5 15.5t36.5 -15t15.5 -36z" />
    <glyph glyph-name="uni2318" unicode="&#x2318;" horiz-adv-x="667" 
d="M228 154v75h-75q-31 0 -52.5 -22t-21.5 -53q0 -32 21.5 -54t52.5 -22t53 22.5t22 53.5zM228 438v76q0 31 -21.5 53t-52.5 22t-53 -22t-22 -53t22 -53.5t53 -22.5h74zM265 265h137v137h-137v-137zM588 154q0 31 -21.5 53t-52.5 22h-75v-75q0 -31 22 -53.5t53 -22.5
t52.5 22t21.5 54zM588 514q0 31 -21.5 53t-52.5 22t-53 -22t-22 -53v-76h75q31 0 52.5 22.5t21.5 53.5zM625 154q0 -46 -32.5 -79t-78.5 -33t-79 33t-33 79v75h-137v-75q0 -46 -33 -79t-79 -33t-78.5 33t-32.5 79t32.5 78.5t78.5 32.5h75v137h-74q-46 0 -79 33t-33 79
t33 78.5t79 32.5t78.5 -32.5t32.5 -78.5v-76h137v76q0 46 33 78.5t79 32.5t78.5 -32.5t32.5 -78.5t-32.5 -79t-78.5 -33h-75v-137h75q46 0 78.5 -32.5t32.5 -78.5z" />
    <glyph glyph-name="blacksquare" unicode="&#x25a0;" horiz-adv-x="661" 
d="M618 0h-571v572h571v-572z" />
    <glyph glyph-name="triagup" unicode="&#x25b2;" horiz-adv-x="616" 
d="M617 29l-619 1l309 535z" />
    <glyph glyph-name="triagdn" unicode="&#x25bc;" horiz-adv-x="616" 
d="M617 510l-310 -535l-309 535h619z" />
    <glyph glyph-name="lozenge" unicode="&#x25ca;" horiz-adv-x="375" 
d="M198 0h-21l-158 334l158 333h21l158 -333zM188 41l132 293l-133 292l-132 -292z" />
    <glyph glyph-name="circlesolid" unicode="&#x25cf;" horiz-adv-x="695" 
d="M644 285q0 -123 -87 -210t-210 -87t-210 87t-87 210t87 210t210 87t210 -87t87 -210z" />
    <glyph glyph-name="blackstar" unicode="&#x2605;" horiz-adv-x="759" 
d="M759 421l-235 -171l90 -275l-235 170l-234 -170l89 275l-234 171h290l89 276l90 -276h290z" />
    <glyph glyph-name="ballotbox" unicode="&#x2610;" horiz-adv-x="661" 
d="M616 0h-571v572h571v-572zM563 49v474h-465v-474h465z" />
    <glyph glyph-name="boxchecked" unicode="&#x2611;" horiz-adv-x="661" 
d="M675 698l-69 -126h10v-572h-571v572h504l83 154zM563 49v442l-217 -400l-202 246l39 37l156 -192l183 341h-424v-474h465z" />
    <glyph glyph-name="diamond" unicode="&#x2666;" horiz-adv-x="501" 
d="M501 285l-251 -250l-250 250l250 251z" />
    <glyph glyph-name="checkmark" unicode="&#x2713;" horiz-adv-x="531" 
d="M531 698l-329 -607l-202 246l39 37l156 -192l293 544z" />
    <glyph glyph-name="perthousand.onum" unicode="&#xf628;" horiz-adv-x="691" 
d="M226 425q0 -59 -28.5 -97.5t-74.5 -38.5t-73.5 38.5t-27.5 97.5t27.5 98t73.5 39t74.5 -39t28.5 -98zM442 125q0 -59 -28 -97.5t-74 -38.5t-74 38.5t-28 97.5t28 98t74 39t74 -39t28 -98zM377 549l-245 -549h-40l244 549h41zM176 425q0 42 -14 69t-39 27t-39 -27t-14 -69
t14 -68.5t39 -26.5t39 26.5t14 68.5zM394 125q0 41 -15 68t-39 27q-25 0 -39.5 -26.5t-14.5 -68.5q0 -41 14.5 -68t39.5 -27q24 0 39 27t15 68zM669 125q0 -59 -28 -97.5t-74 -38.5t-74 38.5t-28 97.5t28 98t74 39t74 -39t28 -98zM621 125q0 41 -15 68t-39 27t-39 -27
t-15 -68t15 -68t39 -27t39 27t15 68z" />
    <glyph glyph-name="uniF637" unicode="&#xf637;" horiz-adv-x="287" 
d="M242 326h-53v233q0 44 -34 44q-35 0 -57 -50v-227h-53v434h53v-163q11 21 33 36t44 15q67 0 67 -74v-248z" />
    <glyph glyph-name="zero.tzero" unicode="&#xf638;" horiz-adv-x="391" 
d="M195 -12q-58 0 -97 50l-15 -38h-51l37 91q-37 90 -37 242q0 65 7.5 121.5t25 109t51 83t79.5 30.5q57 0 96 -49l16 39h52l-38 -92q38 -91 38 -242q0 -65 -7.5 -121.5t-25 -109t-51 -83.5t-80.5 -31zM195 56q28 0 46.5 23.5t26 68.5t10 85.5t2.5 99.5q0 79 -5 132
l-144 -349q20 -60 64 -60zM110 333q0 -91 4 -133l145 350q-21 59 -64 59q-27 0 -45.5 -23.5t-26.5 -67.5t-10.5 -85.5t-2.5 -99.5z" />
    <glyph glyph-name="zero.tnum" unicode="&#xf639;" horiz-adv-x="391" 
d="M195 -12q-46 0 -79.5 31t-51 83.5t-25 109.5t-7.5 121q0 65 7.5 121.5t25 109t51 83t79.5 30.5t80 -30.5t51.5 -83t25 -109t7.5 -121.5t-7.5 -121.5t-25 -109t-51 -83.5t-80.5 -31zM195 56q28 0 46.5 23.5t26 68.5t10 85.5t2.5 99.5q0 47 -1 79.5t-6 72.5t-14 65t-25 42
t-39 17q-27 0 -45.5 -23.5t-26.5 -67.5t-10.5 -85.5t-2.5 -99.5q0 -46 1 -79t6 -73.5t14 -65t25 -42t39 -17.5z" />
    <glyph glyph-name="two.tnum" unicode="&#xf63a;" horiz-adv-x="391" 
d="M348 0h-295v63q143 229 179.5 305.5t36.5 139.5q0 44 -21 72.5t-55 28.5q-62 0 -100 -83l-54 42q29 55 65.5 82t90.5 27q70 0 111 -46.5t41 -121.5q0 -66 -38 -151t-161 -291h200v-67z" />
    <glyph glyph-name="three.tnum" unicode="&#xf63b;" horiz-adv-x="391" 
d="M188 -12q-54 0 -95 31.5t-63 80.5l56 41q37 -85 99 -85q87 0 87 129q0 67 -27 95.5t-63 28.5q-29 0 -37 -2v70q8 -1 35 -1q39 0 62 29t23 84q0 120 -79 120q-61 0 -94 -78l-55 38q23 52 63.5 80t88.5 28q70 0 111 -44t41 -133q0 -54 -25.5 -98t-68.5 -57q43 -10 72 -56
t29 -109q0 -87 -41 -139.5t-119 -52.5z" />
    <glyph glyph-name="four.tnum" unicode="&#xf63c;" horiz-adv-x="391" 
d="M311 0h-75v173h-210v69l195 425h90v-427h53v-67h-53v-173zM236 240v332l-146 -332h146z" />
    <glyph glyph-name="five.tnum" unicode="&#xf63d;" horiz-adv-x="391" 
d="M192 -12q-59 0 -94.5 28t-61.5 84l55 40q31 -84 98 -84q39 0 62 43.5t23 104.5q0 149 -77 149q-27 0 -46.5 -13.5t-40.5 -48.5l-57 19v357h272v-67h-197v-236q32 56 91 56q61 0 97 -56t36 -159q0 -91 -43.5 -154t-116.5 -63z" />
    <glyph glyph-name="six.tnum" unicode="&#xf63e;" horiz-adv-x="391" 
d="M206 -12q-164 0 -164 345q0 70 9.5 129t29.5 108.5t55.5 78t84.5 28.5q41 0 74.5 -23t51.5 -63l-45 -50q-26 68 -79 68q-30 0 -51 -24.5t-32 -66.5t-16 -86t-5 -94v-14q15 40 42 66.5t64 26.5q57 0 94 -55.5t37 -157.5q0 -90 -39 -153t-111 -63zM203 56q40 0 57.5 42
t17.5 104q0 149 -74 149q-54 0 -84 -104q3 -191 83 -191z" />
    <glyph glyph-name="seven.tnum" unicode="&#xf63f;" horiz-adv-x="391" 
d="M186 0h-80l151 600h-206v67h288v-52z" />
    <glyph glyph-name="eight.tnum" unicode="&#xf640;" horiz-adv-x="391" 
d="M196 -12q-76 0 -116.5 45.5t-40.5 126.5q0 60 32.5 111t72.5 73q-38 20 -67.5 64.5t-29.5 102.5q0 80 42.5 123t106.5 43t106.5 -43t42.5 -123q0 -58 -30 -102.5t-68 -64.5q40 -22 72.5 -72.5t32.5 -110.5q0 -81 -41 -127t-115 -46zM196 371q10 5 24 17t31 43.5t17 68.5
q0 51 -18.5 80t-53.5 29q-74 0 -74 -109q0 -37 17 -68.5t32 -44t25 -16.5zM196 56q35 0 57 29.5t22 83.5q0 41 -17.5 76.5t-35 52t-26.5 18.5q-10 -2 -28 -18.5t-35 -52t-17 -76.5q0 -54 22 -83.5t58 -29.5z" />
    <glyph glyph-name="nine.tnum" unicode="&#xf641;" horiz-adv-x="391" 
d="M170 -11q-41 0 -74.5 23t-51.5 63l46 50q25 -68 79 -68q38 0 62 43.5t32.5 100.5t8.5 126v15q-15 -41 -41.5 -67t-63.5 -26q-58 0 -95 55t-37 158q0 90 39 153t111 63q165 0 165 -345q0 -70 -9.5 -129t-29.5 -108.5t-56 -78t-85 -28.5zM187 315q54 0 84 104
q-3 191 -82 191q-40 0 -58 -42t-18 -104q0 -149 74 -149z" />
    <glyph glyph-name="percent.onum" unicode="&#xf642;" horiz-adv-x="463" 
d="M226 425q0 -59 -28.5 -97.5t-74.5 -38.5t-73.5 38.5t-27.5 97.5t27.5 98t73.5 39t74.5 -39t28.5 -98zM442 125q0 -59 -28 -97.5t-74 -38.5t-74 38.5t-28 97.5t28 98t74 39t74 -39t28 -98zM375 550l-246 -550h-40l245 550h41zM176 425q0 42 -14 69t-39 27t-39 -27t-14 -69
t14 -68.5t39 -26.5t39 26.5t14 68.5zM394 125q0 41 -15 68t-39 27q-25 0 -39.5 -26.5t-14.5 -68.5q0 -41 14.5 -68t39.5 -27q24 0 39 27t15 68z" />
    <glyph glyph-name="zero.tonum" unicode="&#xf643;" horiz-adv-x="391" 
d="M359 275q0 -52 -7.5 -98.5t-25 -91t-51 -71t-80.5 -26.5q-46 0 -79.5 26.5t-51 71t-25 91.5t-7.5 98q0 52 7.5 99t25 91t51 70.5t79.5 26.5t80 -26.5t51.5 -70.5t25 -91t7.5 -99zM280 275q0 219 -85 219t-85 -219t85 -219t85 219z" />
    <glyph glyph-name="one.tonum" unicode="&#xf644;" horiz-adv-x="391" 
d="M291 0h-76v450l-99 -107l-45 48l153 159h67v-550z" />
    <glyph glyph-name="two.tonum" unicode="&#xf645;" horiz-adv-x="391" 
d="M333 0h-280v64q120 118 165.5 193.5t45.5 132.5q0 45 -21 74.5t-54 29.5q-60 0 -96 -80l-54 39q27 55 64 82t91 27q67 0 107.5 -45.5t40.5 -116.5q0 -142 -189 -333h180v-67z" />
    <glyph glyph-name="three.tonum" unicode="&#xf646;" horiz-adv-x="391" 
d="M188 -127q-54 0 -95 31.5t-63 80.5l56 41q37 -85 99 -85q87 0 87 129q0 67 -27 95.5t-63 28.5q-29 0 -37 -2v70q8 -1 35 -1q39 0 62 29t23 84q0 120 -79 120q-61 0 -94 -78l-55 38q23 52 63.5 80t88.5 28q70 0 111 -44t41 -133q0 -54 -25.5 -98t-68.5 -57q43 -10 72 -56
t29 -109q0 -87 -41 -139.5t-119 -52.5z" />
    <glyph glyph-name="four.tonum" unicode="&#xf647;" horiz-adv-x="391" 
d="M364 58h-53v-175h-75v175h-210v70l195 422h90v-425h53v-67zM236 125v330l-146 -330h146z" />
    <glyph glyph-name="five.tonum" unicode="&#xf648;" horiz-adv-x="391" 
d="M192 -129q-59 0 -94.5 28t-61.5 84l55 40q31 -84 98 -84q39 0 62 43.5t23 104.5q0 149 -77 149q-27 0 -46.5 -13.5t-40.5 -48.5l-57 19v357h272v-67h-197v-236q32 56 91 56q61 0 97 -56t36 -159q0 -91 -43.5 -154t-116.5 -63z" />
    <glyph glyph-name="six.tonum" unicode="&#xf649;" horiz-adv-x="391" 
d="M206 -12q-164 0 -164 345q0 70 9.5 129t29.5 108.5t55.5 78t84.5 28.5q41 0 74.5 -23t51.5 -63l-45 -50q-26 68 -79 68q-30 0 -51 -24.5t-32 -66.5t-16 -86t-5 -94v-14q15 40 42 66.5t64 26.5q57 0 94 -55.5t37 -157.5q0 -90 -39 -153t-111 -63zM203 56q40 0 57.5 42
t17.5 104q0 149 -74 149q-54 0 -84 -104q3 -191 83 -191z" />
    <glyph glyph-name="seven.tonum" unicode="&#xf64a;" horiz-adv-x="391" 
d="M186 -117h-80l151 600h-206v67h288v-52z" />
    </font>
</defs>
</svg>
